<svg width="439" height="390" viewBox="0 0 439 390" fill="none" xmlns="http://www.w3.org/2000/svg">
<path d="M170.4 287.419C170.4 289.297 168.892 290.812 167.023 290.812C165.154 290.812 163.646 289.319 163.646 287.442L163.623 284.026L163.376 222.026L163.286 198.886L163.218 178.664L163.15 164.662L163.105 151.633C163.105 149.755 164.614 148.24 166.483 148.217C168.351 148.217 169.86 149.733 169.86 151.61L169.927 165.974L169.972 178.505L170.04 198.999L170.13 222.161L170.378 284.026L170.4 287.419Z" fill="#055052"/>
<path d="M207.414 318.251C207.414 340.938 189.064 359.373 166.505 359.373C143.945 359.373 125.596 340.938 125.596 318.251V290.813H207.414V318.251ZM210.791 284.027H122.197C120.328 284.027 118.819 285.542 118.819 287.42V318.251C118.819 343.539 138.384 364.282 163.105 366.024C164.208 366.114 165.357 366.159 166.482 366.159C167.608 366.159 168.756 366.114 169.86 366.024C194.58 364.282 214.146 343.539 214.146 318.251V287.42C214.168 285.542 212.66 284.027 210.791 284.027Z" fill="#055052"/>
<path d="M207.413 290.812V318.25C207.413 340.938 189.064 359.373 166.504 359.373C143.945 359.373 125.596 340.938 125.596 318.25V290.812H207.413Z" fill="#A8D7D9"/>
<path d="M232.315 215.081C216.51 234.353 207.706 258.805 207.436 284.026H125.574C125.551 258.964 116.861 234.602 100.403 213.566C87.772 197.438 81.4004 177.216 82.4586 156.609C84.62 114.174 119.36 78.8875 161.552 76.241C185.192 74.7933 207.706 82.8912 224.907 99.1322C242.108 115.373 251.587 137.382 251.587 161.088C251.61 180.767 244.743 199.949 232.315 215.081ZM229.545 94.1784C210.971 76.6707 186.678 67.8943 161.147 69.4776C115.6 72.3277 78.0683 110.442 75.7268 156.27C74.601 178.505 81.4679 200.356 95.1117 217.773C110.624 237.588 118.842 260.524 118.842 284.071V287.419C118.842 289.297 120.35 290.812 122.219 290.812H210.791C212.66 290.812 214.168 289.297 214.168 287.419V285.225C214.168 261.135 222.476 237.769 237.538 219.402C250.957 203.047 258.364 182.328 258.364 161.088C258.364 135.867 247.85 111.483 229.545 94.1784Z" fill="#055052"/>
<path d="M129.131 199.61C118.572 190.177 114.047 177.601 112.313 170.95C119.698 172.443 134.355 176.447 145.319 186.219C155.856 195.651 160.381 208.205 162.115 214.878C154.73 213.385 140.073 209.381 129.131 199.61ZM169.837 218.588C169.77 218.158 169.117 213.295 166.685 206.69C166.505 206.192 166.325 205.694 166.123 205.197C165.335 203.206 164.412 201.08 163.286 198.886V198.863C160.291 192.982 155.969 186.648 149.822 181.152C133.049 166.178 109.341 163.531 108.351 163.418C107.315 163.305 106.302 163.689 105.559 164.436C104.838 165.182 104.501 166.2 104.636 167.241C104.771 168.145 107.765 189.589 124.651 204.676C138.272 216.846 156.486 220.872 163.376 222.026C164.276 222.162 164.997 222.275 165.47 222.32L165.492 222.342C165.852 222.388 166.055 222.41 166.145 222.41L166.483 222.433C167.383 222.433 168.261 222.048 168.914 221.392C169.635 220.646 169.95 219.605 169.837 218.588Z" fill="#055052"/>
<path d="M162.136 214.878C154.751 213.385 140.094 209.381 129.152 199.609C118.593 190.177 114.068 177.6 112.334 170.95C119.719 172.443 134.376 176.447 145.34 186.219C155.877 195.651 160.38 208.205 162.136 214.878Z" fill="#0AC789"/>
<path d="M204.151 199.813C193.232 209.562 178.53 213.588 171.145 215.081C172.023 211.756 173.554 206.961 176.233 201.803C178.89 196.646 182.65 191.149 187.963 186.422C198.86 176.673 213.562 172.646 220.97 171.153C219.213 177.826 214.688 190.38 204.151 199.813ZM227.724 164.639C227.003 163.892 225.99 163.508 224.955 163.621C224.437 163.689 218.268 164.368 210.118 166.924C201.967 169.457 191.858 173.868 183.483 181.355C177.359 186.829 173.036 193.14 170.042 198.998V199.021C168.669 201.713 167.565 204.314 166.687 206.689C164.211 213.407 163.513 218.361 163.468 218.791C163.31 219.809 163.67 220.849 164.391 221.596C164.706 221.912 165.066 222.161 165.471 222.319L165.494 222.342C165.899 222.523 166.35 222.613 166.8 222.613H167.16C167.363 222.591 168.421 222.478 170.132 222.161C177.156 220.985 195.146 216.913 208.632 204.88C225.54 189.792 228.534 168.349 228.647 167.444C228.782 166.403 228.444 165.385 227.724 164.639Z" fill="#055052"/>
<path d="M220.967 171.154C219.211 177.827 214.686 190.381 204.149 199.813C193.229 209.562 178.527 213.589 171.143 215.081C172.021 211.756 173.552 206.961 176.231 201.804C178.888 196.646 182.647 191.15 187.961 186.422C198.858 176.673 213.56 172.647 220.967 171.154Z" fill="#0AC789"/>
<path d="M179.066 137.133C178.458 148.375 173.888 158.848 169.925 165.973C168.709 168.122 167.584 169.954 166.615 171.425C165.58 169.683 164.364 167.376 163.148 164.661C160.311 158.192 157.655 149.28 158.195 139.259C158.983 124.602 166.48 111.279 170.646 104.945C174.113 110.872 179.831 122.905 179.066 137.133ZM173.392 96.87C172.762 96.033 171.794 95.558 170.758 95.5354C169.767 95.5128 168.754 96.0104 168.101 96.8021C167.471 97.5938 152.656 116.368 151.441 138.898C150.337 159.029 160.514 174.863 163.193 178.663C163.531 179.161 163.756 179.432 163.824 179.523C164.454 180.337 165.422 180.835 166.458 180.835H166.48C167.516 180.835 168.484 180.382 169.115 179.568C169.182 179.477 169.475 179.115 169.948 178.505C173.145 174.162 184.717 157.265 185.775 137.495C187.036 114.807 173.955 97.5712 173.392 96.87Z" fill="#055052"/>
<path d="M179.069 137.134C178.461 148.376 173.89 158.849 169.928 165.974L169.86 151.61C169.86 149.733 168.352 148.217 166.483 148.217C164.614 148.24 163.106 149.756 163.106 151.633L163.151 164.662C160.314 158.193 157.658 149.281 158.198 139.26C158.986 124.602 166.483 111.279 170.648 104.946C174.116 110.872 179.834 122.906 179.069 137.134Z" fill="#0AC789"/>
<path d="M166.506 389.865H137.125C86.0167 389.865 44.4551 348.086 44.4551 296.762C44.4551 294.884 45.9635 293.369 47.8322 293.369C49.7009 293.369 51.2094 294.884 51.2094 296.762C51.2094 344.354 89.7541 383.079 137.125 383.079H163.106V362.766C163.106 360.889 164.615 359.373 166.483 359.373C168.352 359.373 169.861 360.889 169.861 362.766V386.472C169.883 388.349 168.352 389.865 166.506 389.865Z" fill="#055052"/>
<path d="M51.21 288.822C50.0618 290.631 48.9811 292.169 48.0805 293.391L47.8328 293.73L47.5852 293.391C46.6621 292.169 45.6039 290.654 44.4557 288.889C39.6151 281.312 33.4911 269.075 33.4911 255.39C33.4911 238.266 43.1498 223.315 47.8328 217.049C52.5384 223.292 62.1971 238.221 62.1971 255.39C62.1971 269.007 56.0731 281.244 51.21 288.822ZM50.3319 209.381C49.0486 207.978 46.6171 207.978 45.3337 209.381C44.5682 210.218 26.7368 230.214 26.7368 255.39C26.7368 277.851 40.9209 296.196 44.5232 300.471C44.9735 300.991 45.2437 301.308 45.3337 301.398C45.9867 302.099 46.8872 302.507 47.8328 302.507C48.7784 302.507 49.7015 302.099 50.3319 301.398C50.422 301.308 50.7597 300.923 51.2776 300.29C55.1275 295.675 68.9514 277.534 68.9514 255.39C68.9514 230.214 51.0974 210.218 50.3319 209.381Z" fill="#055052"/>
<path d="M51.2086 288.822V266.315C51.2086 264.438 49.7001 262.922 47.8314 262.922C45.9627 262.922 44.4543 264.438 44.4543 266.315V288.89C39.6137 281.312 33.4897 269.075 33.4897 255.39C33.4897 238.267 43.1484 223.315 47.8314 217.049C52.537 223.292 62.1957 238.221 62.1957 255.39C62.1957 269.007 56.0717 281.244 51.2086 288.822Z" fill="#0AC789"/>
<path d="M100.988 331.935C98.1733 342.702 90.9912 351.23 85.4076 356.545C83.8541 357.993 82.4357 359.214 81.2425 360.164C80.5895 358.513 79.8241 356.364 79.0811 353.853C76.9422 346.547 75.1861 336.12 77.8878 325.85C81.4676 312.075 92.1845 301.986 97.588 297.598C99.4792 302.348 102.339 311.147 102.339 320.919C102.361 324.516 101.956 328.225 100.988 331.935ZM101.956 290.767C101.528 289.93 100.74 289.319 99.8169 289.07C98.9163 288.822 97.9257 288.98 97.1377 289.5C96.3046 290.043 76.8747 302.914 71.3361 324.131C68.6344 334.514 69.7826 344.783 71.7414 352.677C71.8765 353.243 72.0115 353.786 72.1691 354.306C72.8446 356.862 73.6101 359.124 74.308 361.001C75.5238 364.259 76.582 366.362 76.8521 366.882C77.1223 367.493 77.6176 368.036 78.2255 368.375H78.248L78.4732 368.511L78.9235 368.669L79.1261 368.737H79.2387C79.4638 368.783 79.689 368.805 79.8916 368.805C80.2293 368.805 80.567 368.76 80.8822 368.647L81.2875 368.488L81.7153 368.262L82.0755 368.013C82.6384 367.629 83.8091 366.815 85.3401 365.593C87.3664 363.987 90.0456 361.68 92.8599 358.717C98.511 352.768 104.748 344.24 107.517 333.654C113.055 312.437 102.406 291.649 101.956 290.767Z" fill="#055052"/>
<path d="M102.361 320.919C102.361 324.516 101.978 328.225 101.01 331.935C98.1961 342.702 91.0139 351.23 85.4304 356.545L90.4286 334.808C90.8563 332.975 89.7081 331.143 87.9069 330.736C86.0833 330.306 84.2596 331.437 83.8543 333.269L79.1038 353.854C76.9649 346.547 75.2088 336.12 77.9105 325.85C81.4903 312.075 92.2072 301.986 97.6107 297.598C99.4794 302.348 102.361 311.147 102.361 320.919Z" fill="#0AC789"/>
<path d="M38.3304 369.416C24.439 366.612 13.7896 356.455 9.12915 351.275C15.4107 348.312 29.122 343.087 43.0359 345.892C53.8879 348.109 62.7586 354.781 68.3421 360.074C69.9182 361.545 71.224 362.925 72.2371 364.056C70.6386 364.825 68.5448 365.707 66.1132 366.589C58.9536 369.168 48.7096 371.52 38.3304 369.416ZM80.2523 363.106C80.1847 362.992 79.8695 362.585 79.3517 361.929C78.9464 361.432 78.3836 360.753 77.6856 359.961C76.3573 358.446 74.4886 356.455 72.1696 354.329V354.306C68.3421 350.8 63.2539 346.842 57.1525 343.743C53.28 341.798 49.0022 340.192 44.3868 339.242C22.9755 334.921 2.93767 346.774 2.08212 347.294C1.2716 347.769 0.708744 348.606 0.506113 349.534C0.325998 350.461 0.551143 351.434 1.114 352.203C1.38418 352.61 5.009 357.496 11.2455 362.811C17.4595 368.15 26.2852 373.918 37.002 376.067C40.2891 376.745 43.5312 377.017 46.7058 377.017C61.7454 377.017 74.6237 370.615 78.271 368.625L78.4736 368.512L78.9464 368.24L78.9915 368.218L79.2842 368.037C80.0947 367.539 80.6576 366.725 80.8602 365.797C81.0403 364.847 80.8152 363.875 80.2523 363.106Z" fill="#055052"/>
<path d="M42.9231 362.992L66.113 366.589C58.9534 369.167 48.7093 371.52 38.3301 369.416C24.4387 366.611 13.7894 356.455 9.12891 351.275C15.4104 348.312 29.1217 343.087 43.0357 345.891C53.8876 348.108 62.7583 354.781 68.3419 360.074L43.9588 356.297C42.1126 356.025 40.4015 357.269 40.1088 359.124C39.8161 360.979 41.0994 362.721 42.9231 362.992Z" fill="#0AC789"/>
<path d="M206.604 389.91H167.609C165.133 389.91 163.129 388.394 163.129 386.517V362.811C163.129 360.934 165.133 359.418 167.609 359.418C170.086 359.418 172.09 360.934 172.09 362.811V383.124H206.604C269.532 383.124 320.73 351.185 320.73 303.593C320.73 301.715 322.734 300.2 325.21 300.2C327.687 300.2 329.691 301.715 329.691 303.593C329.691 354.917 274.485 389.91 206.604 389.91Z" fill="#055052"/>
<path d="M320.347 309.972C306.411 308.253 286.17 303.48 270.095 290.27C249.449 273.305 240.984 246.749 238.102 234.874C250.26 235.304 277.818 238.335 298.531 255.345C315.327 269.143 324.062 289.342 328.272 302.779" fill="#0AC789"/>
<path d="M327.529 315.875C325.953 315.875 324.355 315.785 322.779 315.604C311.747 314.835 290.38 311.125 270.703 295.156C248.008 276.72 240.556 251.432 238.124 237.995C237.854 236.57 238.26 235.123 239.228 234.037C240.173 232.951 241.569 232.363 242.988 232.476C260.166 233.471 285.067 239.918 303.394 254.96C324.512 272.31 335.882 307.031 337.098 310.922L338.269 314.654L334.419 315.287C332.64 315.581 330.839 315.762 329.038 315.83C328.542 315.853 328.025 315.875 327.529 315.875ZM245.284 239.466C248.031 252.449 255.371 273.983 274.936 289.885C293.217 304.724 313.075 308.139 323.297 308.841L323.454 308.863C325.233 309.067 327.034 309.135 328.79 309.067C328.97 309.067 329.15 309.044 329.33 309.044C324.332 294.907 313.593 272.106 299.116 260.231C279.529 244.148 254.538 240.348 245.284 239.466Z" fill="#055052"/>
<path d="M37.0232 177.918C36.5729 177.918 36.1001 177.827 35.6498 177.624C33.9387 176.855 33.1732 174.864 33.9387 173.145L55.7777 123.63H26.644C25.5633 123.63 24.5502 123.11 23.8972 122.228C23.2668 121.346 23.0867 120.215 23.4244 119.174L41.6161 63.8914C42.2015 62.1271 44.0927 61.1544 45.8939 61.7425C47.6725 62.3307 48.6181 64.2533 48.0327 66.0403L31.3045 116.867H60.956C62.1043 116.867 63.1624 117.455 63.7928 118.405C64.4232 119.378 64.5133 120.577 64.0405 121.64L40.0851 175.927C39.5448 177.171 38.3065 177.918 37.0232 177.918Z" fill="#055052"/>
<path d="M34.8402 183.052C33.4443 183.052 32.1384 182.17 31.6431 180.767L26.7575 166.63C26.1496 164.866 27.0727 162.92 28.8513 162.31C30.6075 161.699 32.5437 162.626 33.1516 164.413L36.934 175.339L47.8085 171.539C49.5646 170.928 51.5009 171.855 52.1087 173.642C52.7166 175.406 51.7935 177.352 50.0149 177.963L35.9434 182.871C35.5832 183.007 35.2004 183.052 34.8402 183.052Z" fill="#055052"/>
<path d="M120.709 118.993C117.129 118.993 114.225 121.911 114.225 125.507C114.225 129.081 117.129 132.022 120.709 132.022C124.266 132.022 127.193 129.104 127.193 125.507C127.193 121.911 124.289 118.993 120.709 118.993ZM120.709 138.785C113.415 138.785 107.471 132.813 107.471 125.485C107.471 118.156 113.415 112.184 120.709 112.184C128.004 112.184 133.948 118.156 133.948 125.485C133.948 132.836 128.004 138.785 120.709 138.785Z" fill="#055052"/>
<path d="M51.2094 266.315V296.762C51.2094 298.639 49.7009 300.155 47.8322 300.155C45.9635 300.155 44.4551 298.639 44.4551 296.762V266.315C44.4551 264.438 45.9635 262.922 47.8322 262.922C49.7009 262.922 51.2094 264.438 51.2094 266.315Z" fill="#055052"/>
<path d="M299.249 285.203L324.758 306.149C325.321 306.602 325.749 307.122 326.019 307.755C326.785 309.203 326.717 310.922 325.726 312.121C324.893 313.139 323.633 313.591 322.327 313.433C321.404 313.365 320.503 313.003 319.715 312.347L294.206 291.401C292.292 289.84 291.842 287.149 293.216 285.43C294.589 283.71 297.336 283.643 299.249 285.203Z" fill="#055052"/>
<path d="M321.831 297.011C318.251 283.371 315.144 262.719 321.403 242.814C329.419 217.253 350.83 199.52 360.736 192.417C364.856 203.93 372.286 230.758 364.248 256.386C357.719 277.173 342.297 292.804 331.445 301.738" fill="#0AC789"/>
<path d="M324.174 315.468L322.148 312.121C321.225 310.583 320.392 308.977 319.649 307.303C318.794 305.38 318.096 303.367 317.533 301.354C314.156 290.768 309.63 269.46 317.105 245.189C325.728 217.185 346.329 200.831 357.834 193.57C359.049 192.801 360.535 192.643 361.886 193.118C363.237 193.616 364.273 194.679 364.723 196.059C370.171 212.481 373.481 238.086 366.367 260.751C358.171 286.9 330.298 310.379 327.146 312.98L324.174 315.468ZM359.162 200.809C348.197 208.183 331.019 223.021 323.567 247.179C316.632 269.731 320.865 289.524 323.994 299.34L324.039 299.499C324.512 301.218 325.098 302.914 325.818 304.566C325.886 304.724 325.976 304.905 326.043 305.063C337.255 295.156 354.344 276.675 359.95 258.738C367.56 234.49 361.774 209.766 359.162 200.809Z" fill="#055052"/>
<path d="M330.319 303.729C339.617 293.369 354.972 279.684 374.717 274.3C400.046 267.379 426.14 275.997 437.285 280.566C430.013 290.225 411.889 310.899 386.492 317.843C365.869 323.476 344.751 318.793 331.58 314.405" fill="#0AC789"/>
<path d="M363.145 324.606C346.372 324.606 330.409 320.806 324.51 319.223C322.439 318.657 320.728 317.141 319.917 315.151C319.129 313.138 319.309 310.921 320.435 309.089L320.773 308.569C321.898 306.782 323.159 305.085 324.533 303.502C331.422 294.793 346.552 279.208 370.8 271.97C398.785 263.623 423.776 271.789 436.159 277.376C437.465 277.964 438.411 279.095 438.748 280.497C439.086 281.9 438.793 283.37 437.893 284.524C427.334 298.186 407.949 315.151 385.232 321.801C378.252 323.86 370.62 324.606 363.145 324.606ZM395.476 275.182C388.316 275.182 380.639 276.109 372.714 278.484C350.199 285.202 336.128 299.724 329.778 307.777L329.688 307.89C328.518 309.225 327.437 310.672 326.491 312.188L326.221 312.64C342.949 317.119 366.725 320.173 383.385 315.287C407.656 308.184 424.925 289.636 430.891 282.488C422.673 279.072 410.133 275.182 395.476 275.182Z" fill="#055052"/>
<path d="M90.4064 334.808L85.4082 356.546L83.6296 364.237L83.1793 366.182C82.9992 366.928 82.6164 367.562 82.0761 368.014L81.7158 368.263L81.2881 368.489L80.8828 368.647C80.5676 368.761 80.2299 368.806 79.8922 368.806C79.6895 368.806 79.4644 368.783 79.2393 368.738H79.1267L78.9241 368.67L78.4738 368.512L78.2486 368.376H78.2261C77.6182 368.037 77.1229 367.494 76.8527 366.883C76.515 366.227 76.425 365.435 76.6051 364.666L77.348 361.477L77.6858 359.961L77.8659 359.192L79.0817 353.854L83.8322 333.27C84.2375 331.438 86.0611 330.307 87.8848 330.737C89.686 331.144 90.8342 332.976 90.4064 334.808Z" fill="#055052"/>
<path d="M81.2645 365.503C81.0618 366.815 80.1387 367.833 78.9905 368.217L78.9455 368.24C78.7203 368.308 78.4952 368.353 78.2475 368.375H78.225L77.9774 368.398H77.9323L77.4145 368.353L66.1122 366.588L42.9223 362.992C41.0987 362.72 39.8154 360.979 40.108 359.124C40.4007 357.269 42.1118 356.025 43.958 356.296L68.3412 360.074L69.3994 360.232L74.3075 361.001L77.347 361.476L78.4276 361.635C78.7654 361.68 79.058 361.793 79.3507 361.929C80.6791 362.539 81.4896 363.987 81.2645 365.503Z" fill="#055052"/>
<path d="M360.714 304.09L329.081 313.342C328.384 313.545 327.708 313.613 327.055 313.5C325.434 313.319 324.061 312.301 323.633 310.786C323.273 309.541 323.61 308.207 324.489 307.234C325.074 306.51 325.884 305.968 326.853 305.674L358.485 296.422C360.849 295.721 363.326 296.874 363.934 299.001C364.564 301.104 363.078 303.389 360.714 304.09Z" fill="#055052"/>
<path d="M339.35 271.993L329.173 303.48C328.948 304.159 328.61 304.769 328.16 305.244C327.079 306.488 325.481 307.054 323.995 306.556C322.756 306.149 321.856 305.131 321.541 303.842C321.27 302.96 321.27 301.964 321.586 300.992L331.762 269.505C332.528 267.153 334.847 265.728 336.94 266.429C339.034 267.13 340.115 269.641 339.35 271.993Z" fill="#055052"/>
<path d="M296.165 4.58186C288.667 24.3968 281.147 44.2343 273.65 64.0492C272.052 68.2565 276.104 72.6448 280.157 72.6448C293.665 72.6448 307.174 72.6448 320.683 72.6448C318.746 69.2518 316.788 65.8362 314.851 62.4432C303.594 84.4749 292.337 106.484 281.08 128.516C277.117 136.274 288.757 143.151 292.742 135.369C304 113.338 315.257 91.3287 326.514 69.297C328.81 64.7957 326.019 59.0955 320.683 59.0955C307.174 59.0955 293.665 59.0955 280.157 59.0955C282.318 61.9682 284.502 64.8183 286.663 67.691C294.161 47.8761 301.681 28.0386 309.178 8.22364C312.285 0.0126643 299.226 -3.51602 296.165 4.58186Z" fill="#FB9477"/>
<path d="M268.472 127.475C271.804 133.99 275.158 140.527 278.491 147.041C279.909 149.823 283.624 150.457 286.191 149.077C292.81 145.503 299.407 141.929 306.026 138.355C312.397 134.894 306.724 125.145 300.352 128.583C293.733 132.157 287.136 135.731 280.517 139.305C283.084 139.984 285.65 140.662 288.217 141.341C284.885 134.826 281.53 128.289 278.198 121.775C274.866 115.306 265.162 121.006 268.472 127.475Z" fill="#FB9477"/>
</svg>
