<svg width="275" height="289" viewBox="0 0 275 289" fill="none" xmlns="http://www.w3.org/2000/svg">
<path d="M244.3 187.8C242.8 187.8 241.5 186.6 241.5 185V130.9C241.5 129.4 242.7 128.1 244.3 128.1C245.9 128.1 247.1 129.3 247.1 130.9V185C247 186.6 245.8 187.8 244.3 187.8Z" fill="#055052"/>
<path d="M237.9 247.4C238.1 256.6 232.3 263.8 228.5 267.6C226.9 269.2 225.6 270.2 225.4 270.3C224.9 270.7 224.3 270.8 223.8 270.8C223.4 270.8 223 270.7 222.6 270.5C222.5 270.5 222.4 270.4 222.3 270.4H222.2C221.9 270.2 221.7 270 221.5 269.8C220.6 268.6 220.8 266.8 222.1 266C222.1 266 222.7 265.6 223.4 264.9C226.2 262.4 232.5 255.8 232.3 247.7C232.1 240.8 227.3 234.1 218 227.8C212.8 224.2 209.7 219.6 208.9 213.9C207.6 205 212.3 195.9 215.7 190.6C217.4 188 218.8 186.3 218.9 186.1C219.5 185.4 220.2 185.1 221 185.1C221.6 185.1 222.2 185.3 222.8 185.7C224 186.7 224.1 188.4 223.2 189.6C223.2 189.6 222.9 190 222.4 190.6C220 193.8 213.1 204 214.4 213.1C215 217.2 217.2 220.5 221.1 223.2C232.1 230.4 237.8 238.6 237.9 247.4Z" fill="#055052"/>
<path d="M269.6 189.6V284.4L233 263.6C236.9 259.9 243 252.6 242.8 243.4C242.6 234.6 231.9 229.6 220.5 222.2C216.4 219.5 214 216.2 213.4 212.1C212 203 219.4 192.7 221.8 189.5L269.6 189.6Z" fill="#A8D7D9"/>
<path d="M244.1 247.4C244.3 255.5 237.7 262.1 234.8 264.6L221.1 257.2C191.2 241.1 159.7 232.9 127.5 232.9L57.6 232.8L60.8 189.4H99.3C106.6 189.4 104.4 216.3 104.4 206.5C104.4 205.1 104.3 203.7 104 202.4C103.9 202.1 103.9 201.8 103.8 201.5C103.8 201.3 103.7 201.1 103.7 200.9C103.6 200.5 103.5 200 103.3 199.6C103.2 199.1 103 198.7 102.8 198.3C102.7 197.9 102.5 197.6 102.4 197.3C102.3 197 102.1 196.6 101.9 196.3C101.8 196.1 101.6 195.9 101.5 195.6C101.3 195.3 101.1 195 100.9 194.7C100.7 194.5 100.6 194.2 100.4 194C100.3 193.9 100.3 193.9 100.3 193.8C100.1 193.5 99.9 193.3 99.7 193C99.7 192.9 99.6 192.9 99.6 192.9C99.4 192.7 99.2 192.4 99 192.2C98.9 192.1 98.8 192.1 98.8 192C98.6 191.8 98.4 191.6 98.2 191.5C98.1 191.4 98 191.4 97.9 191.3C97.7 191.1 97.5 191 97.3 190.9C97.2 190.8 97.1 190.8 97 190.7C96.8 190.6 96.5 190.4 96.3 190.3C96.2 190.2 96.1 190.2 96 190.2C95.9 190.2 95.8 190.1 95.8 190.1H226.7C223.1 195.4 218.2 204.5 219.5 213.4C220.4 219.1 223.6 223.8 229.1 227.3C238.9 233.8 244 240.5 244.1 247.4Z" fill="#A8D7D9"/>
<path d="M86.5 224.1V233L17.4 234.5L9.40001 189.5H23.4C31.1 189.5 36.7 191.1 59.2 187.9C60.4 187.7 59.5 191.4 59.3 190.2H68.4C67.3 190.7 66.3 191.5 65.3 192.3C65.1 192.5 64.9 192.7 64.7 192.9C64.6 192.9 64.6 193 64.6 193C64.4 193.2 64.2 193.5 64 193.7C63.8 194 63.5 194.3 63.3 194.6C63.1 194.8 63 195 62.9 195.2C62.7 195.6 62.5 195.9 62.2 196.3C61.8 197 61.5 197.8 61.2 198.6C61.2 198.7 61.1 198.7 61.1 198.8C60.9 199.3 60.8 199.7 60.6 200.2C60.5 200.6 60.4 200.9 60.3 201.3C60.2 201.6 60.1 201.9 60.1 202.2C60 202.6 60 203 59.9 203.4C59.8 203.8 59.8 204.3 59.8 204.8V204.9C59.8 205.4 59.7 206 59.7 206.5C59.7 216.3 65.4 223.9 72.7 223.9L86.5 224.1Z" fill="#A8D7D9"/>
<path d="M3.00001 184.7C1.40001 184.7 0.100006 185.9 0.100006 187.5V235.8C0.100006 237.3 1.40001 238.6 3.00001 238.6H127.5C158.7 238.6 189.3 246.5 218.3 262.1L233.6 270.3H233.7C233.8 270.3 233.9 270.4 234 270.4L257.6 283.1L267.1 288.3C267.5 288.5 268 288.6 268.5 288.6H271.6C273.2 288.6 274.5 287.4 274.5 285.8V187.3C274.5 185.8 273.2 184.5 271.6 184.5H91.2C90.2 184.5 89.3 185 88.8 185.8C88.3 186.6 88.2 187.6 88.6 188.4L3.00001 184.7ZM19 188.3C19.3 187.5 19.1 186.6 18.5 185.9L19 188.3ZM53.4 185.9C52.9 186.6 52.7 187.5 52.9 188.3L53.4 185.9ZM77.4 188.7C77.8 187.8 77.8 186.8 77.2 186.1C76.7 185.3 75.8 184.8 74.8 184.8L77.4 188.7ZM59.3 190.2H68.4H59.3ZM268.7 190.2V282.9L240.1 267.5L234.8 264.6L221.1 257.2C191.2 241.1 159.7 232.9 127.5 232.9H5.90001V190.1H12.7L268.7 190.2ZM74.8 190.2H68.4Z" fill="#055052"/>
<path d="M33.1 212.3V233H5.90001V190.2H12.7C12.5 191.4 12.4 192.6 12.4 193.9C12.4 204.2 18.4 212.3 26.1 212.3H33.1Z" fill="#A8D7D9"/>
<path d="M149.3 38.4C147.7 32.8 142.5 28.8 136.5 28.8C135.5 28.8 134.5 28.9 133.5 29.1C131.1 26.9 127.9 25.7 124.6 25.7C117.5 25.7 111.7 31.3 111.3 38.3C105.5 39.1 101 44.1 101 50.1C101 56.7 106.4 62.1 113 62.1H147.8C154.4 62.1 159.8 56.8 159.8 50.1C159.7 44.2 155.2 39.2 149.3 38.4Z" fill="#A8D7D9"/>
<path d="M163.8 91.2C162.3 86.4 157.9 82.9 152.6 82.9C151.7 82.9 150.9 83 150.1 83.2C148 81.3 145.2 80.3 142.3 80.3C136.1 80.3 131 85.1 130.6 91.2C125.6 92 121.7 96.4 121.7 101.6C121.7 107.4 126.4 112.2 132.3 112.2H162.4C168.2 112.2 173 107.5 173 101.6C172.8 96.3 168.9 92 163.8 91.2Z" fill="#A8D7D9"/>
<path d="M212.2 75.1C221.257 75.1 228.6 67.7575 228.6 58.7C228.6 49.6425 221.257 42.3 212.2 42.3C203.143 42.3 195.8 49.6425 195.8 58.7C195.8 67.7575 203.143 75.1 212.2 75.1Z" fill="#FB9477"/>
<path d="M211.9 35.8C210.1 35.8 208.6 34.3 208.6 32.5V19.4C208.6 17.6 210.1 16.1 211.9 16.1C213.7 16.1 215.2 17.6 215.2 19.4V32.5C215.2 34.3 213.8 35.8 211.9 35.8Z" fill="#FB9477"/>
<path d="M211.9 101.5C210.1 101.5 208.6 100 208.6 98.2V85.1C208.6 83.3 210.1 81.8 211.9 81.8C213.7 81.8 215.2 83.3 215.2 85.1V98.2C215.2 100.1 213.8 101.5 211.9 101.5Z" fill="#FB9477"/>
<path d="M193.3 43.5C192.5 43.5 191.6 43.2 191 42.5L181.7 33.2C180.4 31.9 180.4 29.8 181.7 28.5C183 27.2 185.1 27.2 186.4 28.5L195.7 37.8C197 39.1 197 41.2 195.7 42.5C195 43.2 194.2 43.5 193.3 43.5Z" fill="#FB9477"/>
<path d="M239.8 90C239 90 238.1 89.7 237.5 89L228.2 79.7C226.9 78.4 226.9 76.3 228.2 75C229.5 73.7 231.6 73.7 232.9 75L242.2 84.3C243.5 85.6 243.5 87.7 242.2 89C241.5 89.7 240.7 90 239.8 90Z" fill="#FB9477"/>
<path d="M185.6 62.1H172.5C170.7 62.1 169.2 60.6 169.2 58.8C169.2 57 170.7 55.5 172.5 55.5H185.6C187.4 55.5 188.9 57 188.9 58.8C188.9 60.6 187.4 62.1 185.6 62.1Z" fill="#FB9477"/>
<path d="M251.4 62.1H238.3C236.5 62.1 235 60.6 235 58.8C235 57 236.5 55.5 238.3 55.5H251.4C253.2 55.5 254.7 57 254.7 58.8C254.7 60.6 253.2 62.1 251.4 62.1Z" fill="#FB9477"/>
<path d="M184.1 90C183.3 90 182.4 89.7 181.8 89C180.5 87.7 180.5 85.6 181.8 84.3L191.1 75C192.4 73.7 194.5 73.7 195.8 75C197.1 76.3 197.1 78.4 195.8 79.7L186.5 89C185.7 89.7 184.9 90 184.1 90Z" fill="#FB9477"/>
<path d="M230.5 43.5C229.7 43.5 228.8 43.2 228.2 42.5C226.9 41.2 226.9 39.1 228.2 37.8L237.5 28.5C238.8 27.2 240.9 27.2 242.2 28.5C243.5 29.8 243.5 31.9 242.2 33.2L232.9 42.5C232.2 43.2 231.4 43.5 230.5 43.5Z" fill="#FB9477"/>
<path d="M232 265.9C232 265.9 232.6 265.5 233.4 264.8L219.8 257.4C190.1 241.3 158.8 233.2 126.8 233.2H84.6V238.7H126.8C157.8 238.7 188.2 246.6 217 262.2L232.2 270.4C231.9 270.2 231.7 270 231.5 269.8C230.4 268.5 230.7 266.7 232 265.9ZM232 265.9C232 265.9 232.6 265.5 233.4 264.8L219.8 257.4C190.1 241.3 158.8 233.2 126.8 233.2H84.6V238.7H126.8C157.8 238.7 188.2 246.6 217 262.2L232.2 270.4C231.9 270.2 231.7 270 231.5 269.8C230.4 268.5 230.7 266.7 232 265.9ZM232 265.9C232 265.9 232.6 265.5 233.4 264.8L219.8 257.4C190.1 241.3 158.8 233.2 126.8 233.2H84.6V238.7H126.8C157.8 238.7 188.2 246.6 217 262.2L232.2 270.4C231.9 270.2 231.7 270 231.5 269.8C230.4 268.5 230.7 266.7 232 265.9ZM268.2 283.6L267 283L238.6 267.6L233.4 264.8L219.8 257.4C190.1 241.3 158.8 233.2 126.8 233.2H3.00001C1.40001 233.2 0.100006 234.4 0.100006 236V286C0.100006 287.5 1.40001 288.8 3.00001 288.8H266.8C268.1 288.8 269.3 288 269.6 286.8C269.8 285.5 269.3 284.2 268.2 283.6ZM5.90001 283.2V238.5H126.7C157.7 238.5 188.1 246.4 216.9 262L232.1 270.2H232.2C232.3 270.2 232.4 270.3 232.5 270.3L255.9 283L5.90001 283.2ZM232 265.9C232 265.9 232.6 265.5 233.4 264.8L219.8 257.4C190.1 241.3 158.8 233.2 126.8 233.2H84.6V238.7H126.8C157.8 238.7 188.2 246.6 217 262.2L232.2 270.4C231.9 270.2 231.7 270 231.5 269.8C230.4 268.5 230.7 266.7 232 265.9ZM232 265.9C232 265.9 232.6 265.5 233.4 264.8L219.8 257.4C190.1 241.3 158.8 233.2 126.8 233.2H84.6V238.7H126.8C157.8 238.7 188.2 246.6 217 262.2L232.2 270.4C231.9 270.2 231.7 270 231.5 269.8C230.4 268.5 230.7 266.7 232 265.9Z" fill="#055052"/>
<path d="M84.5 238.6H126.7C157.7 238.6 188.1 246.5 216.9 262.1L232.1 270.3H232.2C232.3 270.3 232.4 270.4 232.5 270.4L255.9 283.1H5.90001V238.4H32.9" fill="#0AC789"/>
<path d="M58.7 61.7V148.2C58.7 149.7 57.5 151 55.9 151C54.3 151 53.1 149.8 53.1 148.2V61.7C53.1 60.2 54.3 58.9 55.9 58.9C57.5 58.9 58.7 60.2 58.7 61.7Z" fill="#055052"/>
<path d="M58.7 115.4C58.6 115.5 58.5 115.6 58.5 115.7C58 116.2 57.4 116.5 56.8 116.5C56.7 116.5 56.6 116.5 56.6 116.5C55.9 116.5 55.2 116.2 54.7 115.7L43.3 104.3C42.2 103.2 42.2 101.5 43.3 100.4C44.4 99.3 46.1 99.3 47.2 100.4L58.6 111.8C58.7 111.9 58.8 112 58.8 112.1C59.4 113 59.5 114.4 58.7 115.4Z" fill="#055052"/>
<path d="M76.7 97.8L74.4 100.1L70.4 104.1L58.9 115.6C58.8 115.7 58.8 115.7 58.7 115.8C58.2 116.2 57.6 116.4 57 116.4C56.9 116.4 56.9 116.4 56.8 116.4C56.2 116.4 55.5 116.1 55.1 115.6C54 114.5 54 112.8 55.1 111.7L58.8 108L66.5 100.3L72.9 93.9C74 92.8 75.7 92.8 76.8 93.9C77.8 95 77.8 96.8 76.7 97.8Z" fill="#055052"/>
<path d="M50.9 65C35.3 62.6 23.3 49 23.3 32.7C23.3 14.7 37.9 0 56 0C74 0 88.7 14.7 88.7 32.7C88.7 49 76.7 62.6 61.1 65" fill="#0AC789"/>
<path d="M81.7 68.6C70.9 68.6 62.1 77.4 62.1 88.2C62.1 92.8 63.7 97.1 66.4 100.4C67.6 101.8 68.9 103.1 70.4 104.2C73.6 106.5 77.5 107.8 81.7 107.8C92.5 107.8 101.3 99 101.3 88.2C101.3 77.4 92.5 68.6 81.7 68.6Z" fill="#0AC789"/>
<path d="M30.4 70C19.6 70 10.8 78.8 10.8 89.6C10.8 100.4 19.6 109.2 30.4 109.2C34.5 109.2 38.3 107.9 41.5 105.8C43 104.8 44.4 103.5 45.6 102.1C48.4 98.7 50 94.4 50 89.7C50 78.8 41.2 70 30.4 70Z" fill="#0AC789"/>
<path d="M69.6 184.8H55H69.6ZM84.3 188.7C83.9 187.8 84 186.8 84.5 186C85 185.2 85.9 184.7 86.8 184.7H88.4L84.3 188.7ZM50.4 188.3C50.7 189.4 51.8 190.3 53 190.3H65.1H71.2C72.3 190.3 73.2 189.7 73.7 188.7L50.4 188.3ZM13.5 184.8H15.5C16.4 184.8 17.2 185.2 17.7 185.9C18.2 186.6 18.4 187.5 18.1 188.3L13.5 184.8ZM69.6 184.8H55H69.6ZM84.3 188.7C83.9 187.8 84 186.8 84.5 186C85 185.2 85.9 184.7 86.8 184.7H88.4L84.3 188.7ZM50.4 188.3C50.7 189.4 51.8 190.3 53 190.3H65.1H71.2C72.3 190.3 73.2 189.7 73.7 188.7L50.4 188.3ZM13.5 184.8H15.5C16.4 184.8 17.2 185.2 17.7 185.9C18.2 186.6 18.4 187.5 18.1 188.3L13.5 184.8ZM84.3 188.7C84.8 189.6 85.7 190.3 86.8 190.3H91.2H92.6C93.2 190.3 93.7 190.1 94.2 189.8L101.3 184.8L124.8 168.4C128 166.1 131.3 164 134.7 162.1C136.7 161 138.9 159.8 141 158.8C141.8 158.4 142.4 157.7 142.5 156.8C142.6 155.9 142.4 155 141.8 154.4L140.7 153.2C140.6 153.1 140.5 153 140.5 152.9C121.6 132.9 101.5 122.8 80.9 122.8H2.90001C1.40001 122.8 0.100006 124 0.100006 125.6V187.4C0.100006 188.9 1.30001 190.2 2.90001 190.2H15.5C16.7 190.2 17.8 189.4 18.1 188.2L84.3 188.7ZM50.4 188.3C50.7 189.4 51.8 190.3 53 190.3H65.1H71.2C72.3 190.3 73.2 189.7 73.7 188.7L50.4 188.3ZM69.6 184.8H55H69.6ZM13.5 184.8H5.6V128.5H80.9C99.5 128.5 119.4 139.2 136.9 157.2C135.8 157.8 134.7 158.4 133.6 159C130.1 161 126.6 163.2 123.2 165.5L93.3 186.4L88.4 184.8H13.5ZM69.6 184.8H55H69.6ZM84.3 188.7C83.9 187.8 84 186.8 84.5 186C85 185.2 85.9 184.7 86.8 184.7H88.4L84.3 188.7ZM41.5 189.6C42.5 190.8 49.8 186.4 50.4 188.4C50.7 189.5 51.8 190.4 53 190.4H65.1H71.2C72.3 190.4 73.2 189.8 73.7 188.8L41.5 189.6ZM13.5 184.8H15.5C16.4 184.8 17.2 185.2 17.7 185.9C18.2 186.6 18.4 187.5 18.1 188.3" fill="#055052"/>
<path d="M64.4 183.9C64.2 182.7 63.8 181.5 63.4 180.4C63.1 179.7 62.8 179.1 62.5 178.4C62.4 178.1 62.2 177.8 62 177.6C61.9 177.3 61.7 177.1 61.6 176.8C60.6 175.3 59.4 173.9 58.1 172.8C57.8 172.5 57.4 172.3 57.1 172C56.9 171.8 56.7 171.7 56.4 171.5C56.1 171.3 55.9 171.2 55.6 171C54.7 170.5 53.7 170.1 52.7 169.7C50.4 162.5 44.3 157.7 37.2 157.7C30.3 157.7 24.4 162.2 21.9 169.1C20.8 169.3 19.7 169.6 18.7 170C18.3 170.1 18 170.3 17.6 170.5C14.4 172 11.7 174.6 9.90001 178C9.90001 178.1 9.80001 178.1 9.80001 178.2C9.50001 178.8 9.20001 179.5 8.90001 180.2C8.50001 181.3 8.20001 182.5 7.90001 183.7C7.70001 184.9 7.60001 186.1 7.60001 187.4C7.60001 197.7 14.9 205.8 24.1 205.8H48C57.3 205.8 64.5 197.7 64.5 187.4C64.7 186.3 64.6 185.1 64.4 183.9ZM48.2 200.4H24.3C19.1 200.4 14.7 194.5 14.7 187.5C14.7 185.6 15 183.6 15.7 181.9C17.3 177.6 20.8 174.6 24.2 174.6H24.5C26.3 174.7 27.8 173.7 28.2 172.4C29.5 167.2 33.3 163.4 37.3 163.4C41.3 163.4 45.2 167.3 46.4 172.5C46.7 173.6 47.7 174.5 49.1 174.7C50.7 175 52.2 175.8 53.5 177C54.8 178.2 55.9 179.9 56.6 181.9C57.3 183.7 57.6 185.6 57.6 187.5C57.8 194.5 53.4 200.4 48.2 200.4Z" fill="#055052"/>
<path d="M48.9 201.5H24.1C18.7 201.5 14.2 195.4 14.2 188.1C14.2 186.1 14.6 184.1 15.3 182.3C17 177.8 20.6 174.7 24.1 174.7C24.1 174.7 24.4 174.7 24.5 174.7C26.3 174.8 28 173.8 28.3 172.4C29.6 167 33.6 163 37.7 163C41.9 163 45.9 167 47.2 172.5C47.5 173.6 48.6 174.5 50 174.8C51.6 175.1 53.2 175.9 54.6 177.2C56 178.5 57.1 180.2 57.9 182.3C58.6 184.1 59 186.1 59 188.1C58.8 195.4 54.3 201.5 48.9 201.5Z" fill="#F3ECDE"/>
<path d="M188.2 190.3C186.7 190.3 185.4 189.1 185.4 187.5V141.5C185.4 140 186.6 138.7 188.2 138.7C189.8 138.7 191 139.9 191 141.5V187.5C190.9 189.1 189.7 190.3 188.2 190.3Z" fill="#055052"/>
<path d="M86.7 151H35.5C34 151 32.7 149.8 32.7 148.2C32.7 146.6 33.9 145.4 35.5 145.4H86.6C88.1 145.4 89.4 146.6 89.4 148.2C89.4 149.8 88.2 151 86.7 151Z" fill="#055052"/>
<path d="M211.1 172.7H198.1C196.6 172.7 195.3 171.5 195.3 169.9C195.3 168.3 196.5 167.1 198.1 167.1H211.1C212.6 167.1 213.9 168.3 213.9 169.9C213.9 171.5 212.6 172.7 211.1 172.7Z" fill="#055052"/>
<path d="M49.9 247.9C49.9 249.4 48.7 250.7 47.1 250.7H25.1C23.6 250.7 22.3 249.5 22.3 247.9C22.3 246.4 23.5 245.1 25.1 245.1H47.1C48.7 245.2 49.9 246.4 49.9 247.9Z" fill="#055052"/>
<path d="M185.9 187.6V184.8H106.2L98.7 189.8C98.2 190.1 97.6 190.3 97 190.3H188.7C187.2 190.3 185.9 189.1 185.9 187.6ZM271.5 143.9H264C262.9 143.9 261.9 144.5 261.4 145.5C259.7 148.9 257.2 150.9 254.7 150.9H233.6C231.1 150.9 228.5 148.9 226.9 145.5C226.4 144.6 225.4 143.9 224.3 143.9H207.5C205.9 143.9 204.6 145.1 204.6 146.7C204.6 153.4 201 158.1 197.7 158.1H179.8C176.5 158.1 173.5 153.8 173 148.4C172.9 147.6 172.5 146.9 171.9 146.4C171.2 145.9 170.4 145.8 169.6 145.9C168.8 146.1 168 146.2 167.2 146.4C160.4 147.9 153.8 150.1 147.3 152.9C146.7 153.2 146 153.5 145.4 153.7C144.2 154.3 143 154.8 141.9 155.4C140.7 156 139.6 156.6 138.5 157.2C134.8 159.2 131.1 161.4 127.6 163.7L96.3 184.6L95.6 185.1C94.7 185.7 94.3 186.7 94.4 187.7C94.4 187.9 94.5 188.1 94.5 188.2C94.6 188.5 94.7 188.7 94.8 188.9C95.3 189.7 96.2 190.1 97.2 190.1H271.7C272.6 190.1 273.4 189.7 273.9 189.1C274.3 188.6 274.5 188 274.5 187.4V146.5C274.4 145.1 273.1 143.9 271.5 143.9ZM106.2 184.8L130.8 168.4C134.2 166.1 137.7 164 141.2 162.1C143.3 161 145.6 159.8 147.8 158.8C154.3 155.8 161 153.5 167.8 151.9C167.9 152.4 168.1 152.8 168.2 153.3C168.3 153.8 168.5 154.2 168.7 154.7C168.9 155.1 169.1 155.6 169.3 156C169.5 156.4 169.7 156.8 169.9 157.2C170.1 157.6 170.4 158 170.6 158.3C170.8 158.6 171 158.9 171.2 159.1C171.4 159.3 171.6 159.5 171.8 159.7L171.9 159.8C172.1 160 172.3 160.2 172.5 160.4C173.4 161.3 174.4 161.9 175.5 162.4C175.6 162.5 175.8 162.6 176 162.6H176.1C176.2 162.7 176.4 162.7 176.5 162.8C176.5 162.8 176.5 162.8 176.6 162.8C176.7 162.9 176.9 162.9 177.1 162.9C177.1 162.9 177.1 162.9 177.2 162.9C177.3 163 177.5 163 177.7 163C178 163.1 178.4 163.1 178.7 163.2C179.1 163.3 179.5 163.3 179.9 163.3H197.8C198 163.3 198.2 163.3 198.3 163.3C198.5 163.3 198.7 163.3 198.8 163.2C200.8 163 202.7 162.2 204.3 160.9C204.6 160.7 204.9 160.4 205.1 160.2C206.9 158.5 208.3 156.1 209.2 153.4C209.3 153.2 209.3 153 209.4 152.8C209.5 152.6 209.5 152.4 209.6 152.2C209.7 152 209.7 151.7 209.8 151.5C209.9 151.2 209.9 151 209.9 150.7C210 150.2 210.1 149.8 210.1 149.3V149.2H222.5C222.6 149.4 222.8 149.7 223 149.9C223.1 150.1 223.3 150.4 223.5 150.6C224.1 151.4 224.7 152.1 225.4 152.7C225.6 152.9 225.8 153.1 226 153.2C226.3 153.4 226.5 153.6 226.8 153.8C227 154 227.3 154.1 227.5 154.3C227.8 154.5 228 154.6 228.3 154.7C228.6 154.8 228.8 155 229.1 155.1C229.3 155.2 229.5 155.3 229.8 155.4C230.1 155.5 230.3 155.6 230.6 155.7C231.2 155.9 231.9 156.1 232.6 156.1C232.7 156.1 232.9 156.1 233.1 156.1C233.3 156.1 233.6 156.1 233.8 156.1H254.9C256 156.1 257 155.9 258.1 155.6C258.4 155.5 258.6 155.4 258.9 155.3C259.2 155.2 259.4 155.1 259.7 155C259.9 154.9 260.1 154.8 260.3 154.7C262.5 153.5 264.5 151.6 266.1 149.1H269V184.5L106.2 184.8ZM185.9 187.6V184.8H106.2L98.7 189.8C98.2 190.1 97.6 190.3 97 190.3H188.7C187.2 190.3 185.9 189.1 185.9 187.6Z" fill="#055052"/>
<path d="M197.7 163.6H179.8C173.4 163.6 168.1 157.4 167.3 149C167.2 148.2 167.2 147.5 167.2 146.7C167.2 138.1 171.8 131.1 178 129.9C179.9 123.6 184.4 119.5 189.7 119.5C195.1 119.5 199.7 123.8 201.5 130.4C206.8 132.5 210.4 139 210.4 146.6C210.4 156.1 204.8 163.6 197.7 163.6ZM179.7 135.2C176.5 135.2 172.9 139.9 172.9 146.6C172.9 147.2 172.9 147.8 173 148.4C173.5 153.8 176.5 158.1 179.8 158.1H197.7C201 158.1 204.6 153.4 204.6 146.7C204.6 140.4 201.4 135.9 198.4 135.3C197.2 135.1 196.3 134.2 196.1 133.1C195.2 128.4 192.4 125 189.5 125C186.6 125 183.9 128.4 182.9 133C182.6 134.4 181.3 135.3 179.9 135.2C180 135.2 179.8 135.2 179.7 135.2Z" fill="#055052"/>
<path d="M254.7 156.4H233.6C228.8 156.4 224.3 153.2 221.7 147.9C220.1 144.7 219.3 140.9 219.3 137C219.3 126.9 224.7 118.9 231.8 117.7C233.9 110.4 239.1 105.6 245.1 105.6C251.3 105.6 256.6 110.6 258.6 118.3C264.7 120.6 269.1 128.1 269.1 137C269.1 140.9 268.2 144.7 266.6 147.9C264 153.2 259.6 156.4 254.7 156.4ZM233.6 123C228.9 123 225 129.4 225 137C225 140.1 225.7 143.1 226.9 145.6C228.6 149 231.1 151 233.6 151H254.7C257.2 151 259.7 149 261.4 145.6C262.6 143.1 263.3 140.1 263.3 137C263.3 129.2 259.4 123.9 255.6 123.2C254.4 123 253.5 122.1 253.3 121C252.2 115.3 248.7 111.1 245.1 111.1C241.5 111.1 238 115.2 236.9 120.9C236.6 122.3 235.3 123.2 233.9 123.1C233.9 123 233.7 123 233.6 123Z" fill="#055052"/>
<path d="M38.6 186V244.6C38.6 244.8 38.6 245 38.5 245.1C38.3 246.4 37.2 247.4 35.8 247.4C34.5 247.4 33.3 246.4 33.1 245.1C33.1 244.9 33 244.7 33 244.6V186C33 184.4 34.2 183.1 35.7 183.1C37.4 183.1 38.6 184.4 38.6 186Z" fill="#055052"/>
<path d="M107.7 247.9C107.7 249.4 106.5 250.7 104.9 250.7H82.9C81.4 250.7 80.1 249.5 80.1 247.9C80.1 246.4 81.3 245.1 82.9 245.1H104.9C106.5 245.2 107.7 246.4 107.7 247.9Z" fill="#055052"/>
<path d="M116.6 189.7C116.5 189.4 116.5 189.1 116.4 188.8C116.4 188.6 116.3 188.4 116.3 188.2C116.2 187.8 116 187.4 115.9 187C115.8 186.6 115.6 186.2 115.4 185.7C115.3 185.4 115.1 185.1 114.9 184.8C114.7 184.5 114.6 184.2 114.4 183.9C114.3 183.7 114.1 183.5 114 183.3C113.8 183 113.6 182.7 113.4 182.5C113.2 182.3 113 182.1 112.8 181.9C112.7 181.8 112.7 181.8 112.6 181.7C112.4 181.5 112.2 181.2 111.9 181C111.9 180.9 111.8 180.9 111.8 180.9C111.6 180.7 111.3 180.5 111.1 180.3C111 180.2 110.9 180.2 110.8 180.1C110.6 179.9 110.4 179.8 110.1 179.6C110 179.5 109.9 179.5 109.8 179.4C109.6 179.3 109.4 179.1 109.1 179C109 178.9 108.9 178.9 108.8 178.8C108.5 178.7 108.3 178.5 108 178.4C107.9 178.3 107.8 178.3 107.7 178.3C107.7 178.3 107.6 178.3 107.6 178.2C107.6 178.2 107.5 178.2 107.5 178.1C107.3 178 107 177.9 106.8 177.8C106.7 177.5 106.6 177.2 106.5 176.9C106.4 176.5 106.2 176.1 106 175.8C105.8 175.3 105.6 174.9 105.3 174.4C105 173.9 104.7 173.4 104.4 172.9C104.2 172.7 104.1 172.5 103.9 172.3C103.5 171.9 103.2 171.5 102.8 171.1C102.6 170.9 102.4 170.7 102.2 170.6C102 170.4 101.8 170.3 101.6 170.1C101.4 169.9 101.2 169.8 101 169.6C100.3 169.1 99.5 168.7 98.7 168.3C98.5 168.2 98.3 168.1 98 168C97.7 167.9 97.5 167.8 97.3 167.8C97 167.7 96.6 167.6 96.3 167.5C96.1 167.5 95.9 167.4 95.7 167.4C95.5 167.4 95.4 167.3 95.2 167.3C95 167.3 94.8 167.2 94.5 167.2C94.2 167.2 93.9 167.2 93.6 167.2C93.3 167.2 93 167.2 92.7 167.2C92.5 167.2 92.2 167.2 92 167.3L91.6 167.4C91.4 167.4 91.2 167.5 91 167.5C90.7 167.6 90.4 167.6 90.1 167.7C89.8 167.8 89.6 167.8 89.4 167.9C89.1 168 88.8 168.1 88.6 168.2C87.2 168.8 85.9 169.6 84.8 170.7C84.6 170.9 84.4 171.1 84.2 171.3C84 171.5 83.8 171.7 83.6 172C83.4 172.2 83.2 172.5 83 172.7C83 172.8 82.9 172.8 82.9 172.8C82.6 173.3 82.2 173.7 81.9 174.3C81.3 175.2 80.9 176.2 80.6 177.2C79.6 177.3 78.7 177.6 77.8 178C76.6 178.5 75.5 179.2 74.5 180C74.2 180.2 74 180.4 73.8 180.6C73.7 180.6 73.7 180.7 73.6 180.7C73.4 180.9 73.1 181.1 72.9 181.4C72.6 181.7 72.4 181.9 72.2 182.2C72 182.4 71.9 182.6 71.7 182.8C71.4 183.1 71.2 183.5 71 183.8C70.6 184.5 70.2 185.2 69.9 185.9C69.9 186 69.8 186 69.8 186.1C69.6 186.5 69.4 187 69.3 187.4C69.2 187.7 69.1 188 69 188.4C68.9 188.7 68.8 189 68.8 189.3C68.7 189.7 68.6 190.1 68.6 190.4C68.5 190.8 68.5 191.3 68.4 191.7V191.8C68.4 192.3 68.3 192.8 68.3 193.3C68.3 202.5 74.5 209.7 82.5 209.7H102.8C110.8 209.7 117 202.5 117 193.3C117 192.2 116.9 190.9 116.6 189.7ZM102.8 204.7H82.5C78.3 204.7 74.6 199.5 74.6 193.5C74.6 187.5 78.3 182.3 82.5 182.3H82.8C83.6 182.4 84.4 182.1 85 181.7C85.4 181.4 85.7 181.1 85.9 180.6C86 180.5 86 180.3 86.1 180.2C86.4 178.9 86.9 177.7 87.5 176.6C89 174 91.3 172.4 93.6 172.4C95.9 172.4 98.2 174 99.7 176.6C100.4 177.7 100.9 179 101.1 180.3C101.4 181.3 102.3 182.1 103.6 182.3C107.1 182.9 110.7 187.2 110.7 193.4C110.7 199.5 107 204.7 102.8 204.7Z" fill="#055052"/>
<path d="M103.6 204.6H82.2C77.7 204.6 73.8 199.5 73.8 193.6C73.8 187.8 77.7 182.6 82.1 182.6H82.4C83.3 182.7 84.1 182.4 84.7 182C85.1 181.7 85.5 181.4 85.7 181C85.8 180.9 85.8 180.7 85.9 180.6C86.2 179.3 86.7 178.2 87.4 177.1C89 174.5 91.4 173 93.8 173C96.2 173 98.6 174.6 100.2 177.1C100.9 178.2 101.4 179.4 101.7 180.7C102 181.7 103 182.5 104.3 182.7C108 183.3 111.8 187.5 111.8 193.6C112 199.4 108.1 204.6 103.6 204.6Z" fill="#F3ECDE"/>
<path d="M96.4 192.1V244.9C96.4 245 96.4 245.2 96.3 245.4C96.1 246.6 95 247.5 93.6 247.5C92.3 247.5 91.1 246.6 90.9 245.4C90.9 245.3 90.8 245.1 90.8 244.9V192.1C90.8 190.7 92 189.5 93.6 189.5C95.2 189.6 96.4 190.7 96.4 192.1Z" fill="#055052"/>
</svg>
