<svg width="296" height="283" viewBox="0 0 296 283" fill="none" xmlns="http://www.w3.org/2000/svg">
<path d="M294.42 43.5632C294.42 50.2956 288.987 55.7794 282.28 55.7794H220.306C213.616 55.7794 208.167 50.3125 208.167 43.5632C208.167 36.8139 213.599 31.347 220.306 31.347H222.922C224.096 31.347 225.219 30.8239 225.957 29.8959C226.712 28.9679 226.997 27.7867 226.762 26.6394C226.577 25.6607 226.477 24.6652 226.477 23.6866C226.477 15.5874 233.033 8.97314 241.115 8.97314C245.508 8.97314 249.616 10.9136 252.417 14.3388C253.49 15.6549 255.317 16.1611 256.894 15.5031C258.637 14.8113 260.482 14.4569 262.309 14.4569C269.922 14.4569 276.16 20.1938 276.881 27.7699C277.065 29.7947 278.759 31.347 280.804 31.347H282.297C288.987 31.3639 294.42 36.8308 294.42 43.5632Z" fill="#A8D7D9"/>
<path d="M104.81 41.8254C104.81 49.9414 98.2375 56.5219 90.2057 56.5219H15.5893C7.52403 56.5219 0.984619 49.9245 0.984619 41.8254C0.984619 33.7262 7.5408 27.1288 15.5893 27.1288H18.7416C20.1501 27.1288 21.5083 26.4876 22.397 25.3909C23.3025 24.2773 23.6546 22.8599 23.3695 21.4594C23.1516 20.2952 23.0174 19.0803 23.0174 17.9161C23.0174 8.16336 30.915 0.199219 40.6235 0.199219C45.9054 0.199219 50.8854 2.54459 54.2557 6.66165C55.5468 8.24773 57.7434 8.85517 59.6381 8.06213C61.7509 7.23534 63.9474 6.79664 66.1608 6.79664C75.2824 6.79664 82.8447 13.6978 83.6998 22.8262C83.9178 25.2728 85.9635 27.1288 88.3948 27.1288H90.2225C98.2374 27.1288 104.81 33.7262 104.81 41.8254Z" fill="#A8D7D9"/>
<path d="M294.839 127.997L235.833 68.6033C234.71 67.4897 232.882 67.4897 231.759 68.6033L222.587 77.8498L222.319 78.1198C221.765 78.6597 221.48 79.3853 221.48 80.1614C221.48 80.9376 221.765 81.6631 222.319 82.2031L223.71 83.6204L281.324 141.597C281.894 142.154 282.632 142.44 283.353 142.44C284.091 142.44 284.829 142.154 285.382 141.597L286.791 140.179L294.839 132.08C295.376 131.54 295.677 130.815 295.677 130.039C295.677 129.262 295.376 128.537 294.839 127.997ZM283.353 135.472L228.389 80.1614L233.805 74.7114L288.752 130.039L283.353 135.472Z" fill="#055052"/>
<path d="M233.795 74.7328L228.388 80.1733L283.355 135.486L288.762 130.045L233.795 74.7328Z" fill="#0AC789"/>
<path d="M221.833 166.485H160.01C158.987 166.485 158.031 165.928 157.528 165.05C157.008 164.156 157.008 163.059 157.528 162.165L169.702 140.939C170.49 139.555 172.25 139.083 173.625 139.876C175 140.669 175.47 142.44 174.682 143.824L164.99 160.714H216.869L212.879 153.762C212.09 152.379 212.56 150.624 213.935 149.814C215.31 149.021 217.054 149.493 217.859 150.877L224.331 162.148C224.851 163.042 224.851 164.139 224.331 165.034C223.794 165.928 222.855 166.485 221.833 166.485Z" fill="#055052"/>
<path d="M174.9 157.221L171.345 143.841L158.065 147.435L162.19 140.23L175.47 136.653L179.025 150.016L174.9 157.221Z" fill="#055052"/>
<path d="M209.005 144.111C208.016 144.111 207.043 143.588 206.523 142.659L190.929 115.477L182.328 130.46C181.54 131.844 179.779 132.316 178.404 131.523C177.029 130.73 176.56 128.958 177.348 127.575L188.431 108.255C188.934 107.361 189.89 106.821 190.913 106.821C191.936 106.821 192.891 107.378 193.394 108.255L211.47 139.774C212.258 141.158 211.789 142.913 210.414 143.722C209.978 143.992 209.491 144.111 209.005 144.111Z" fill="#055052"/>
<path d="M194.87 136.163L208.15 139.757L211.705 126.394L215.83 133.582L212.275 146.945L198.995 143.368L194.87 136.163Z" fill="#055052"/>
<path d="M98.2543 111.714H65.4566C63.8637 111.714 62.5894 112.997 62.5894 114.6V144.381C62.5894 145.984 63.8637 147.266 65.4566 147.266H98.2543C99.8473 147.266 101.122 145.984 101.122 144.381V114.6C101.122 113.014 99.8473 111.714 98.2543 111.714ZM95.3871 141.496H68.3239V117.485H95.3871V141.496Z" fill="#055052"/>
<path d="M67.8879 232.256C59.0177 232.256 51.8076 225.001 51.8076 216.058C51.8076 214.472 53.0987 213.173 54.6749 213.173C56.2511 213.173 57.5422 214.472 57.5422 216.058C57.5422 221.812 62.1868 226.486 67.8879 226.486C73.5889 226.486 78.2335 221.812 78.2335 216.058C78.2335 210.304 73.5889 205.63 67.8879 205.63C66.3117 205.63 65.0206 204.331 65.0206 202.745C65.0206 201.159 66.3117 199.86 67.8879 199.86C76.758 199.86 83.9681 207.115 83.9681 216.058C83.9681 224.984 76.758 232.256 67.8879 232.256Z" fill="#055052"/>
<path d="M112.675 100.612C112.675 99.7847 112.322 99.0423 111.752 98.5193C112.272 99.0592 112.591 99.7848 112.591 100.595V200.602C112.591 202.171 111.35 203.47 109.807 203.504H209.441C209.994 202.019 210.682 200.585 211.487 199.168C211.772 198.662 212.057 198.189 212.359 197.717H112.675V100.612ZM285.952 138.087L226.93 78.6933C226.393 78.1533 225.672 77.8496 224.901 77.8496H72.9518C71.3588 77.8496 70.0845 79.132 70.0845 80.7349V100.612C70.0845 102.214 71.3588 103.497 72.9518 103.497H106.94V200.636C106.94 202.205 108.181 203.487 109.723 203.521H213.952C214.991 203.521 215.913 202.981 216.433 202.07C221.111 193.853 229.847 188.757 239.221 188.757C243.899 188.757 248.426 190.023 252.366 192.334C256.307 194.646 259.66 197.953 262.008 202.07C262.528 202.981 263.467 203.521 264.49 203.521H283.907C285.466 203.521 286.774 202.239 286.774 200.636V140.129C286.791 139.369 286.489 138.627 285.952 138.087ZM281.056 197.75H266.116C266.032 197.632 265.965 197.514 265.881 197.43C265.864 197.396 265.848 197.346 265.797 197.312C265.63 197.025 265.428 196.755 265.227 196.485C265.06 196.232 264.875 195.979 264.691 195.759C264.657 195.726 264.64 195.658 264.59 195.624C264.305 195.253 264.02 194.899 263.735 194.545C263.685 194.494 263.618 194.41 263.567 194.359C263.299 194.038 263.014 193.701 262.712 193.397L262.695 193.38C262.544 193.195 262.377 193.009 262.176 192.824C261.907 192.537 261.639 192.267 261.371 192.03C261.354 192.014 261.337 191.997 261.32 191.98C261.136 191.76 260.935 191.592 260.734 191.406C260.331 191.035 259.895 190.664 259.459 190.309C258.956 189.888 258.42 189.483 257.9 189.095C257.38 188.706 256.843 188.352 256.307 188.015C256.257 187.981 256.206 187.93 256.173 187.913C255.737 187.627 255.267 187.357 254.798 187.103C254.479 186.884 254.127 186.715 253.792 186.564C253.641 186.462 253.473 186.395 253.305 186.31C253.02 186.159 252.735 186.024 252.434 185.889C252.148 185.754 251.847 185.619 251.562 185.501C250.992 185.247 250.421 185.011 249.818 184.826C249.717 184.792 249.6 184.741 249.499 184.708C249.482 184.708 249.466 184.691 249.449 184.691C248.946 184.522 248.46 184.37 247.94 184.235C247.906 184.218 247.856 184.218 247.822 184.201C247.722 184.168 247.655 184.151 247.571 184.117C247.135 183.999 246.699 183.881 246.246 183.796C245.877 183.712 245.542 183.644 245.173 183.56C244.771 183.476 244.368 183.408 243.949 183.375C243.798 183.341 243.647 183.324 243.496 183.29C243.278 183.273 243.077 183.24 242.859 183.206C242.507 183.172 242.172 183.121 241.82 183.105C241.669 183.088 241.534 183.071 241.384 183.071C241.166 183.054 240.964 183.037 240.746 183.037C240.243 183.02 239.757 183.003 239.254 183.003C238.751 183.003 238.265 183.02 237.762 183.037C237.544 183.037 237.343 183.054 237.125 183.071C236.974 183.071 236.84 183.088 236.689 183.105C236.337 183.121 236.001 183.155 235.649 183.206C235.431 183.223 235.23 183.256 235.012 183.29C234.861 183.307 234.71 183.324 234.559 183.375C234.14 183.408 233.738 183.493 233.335 183.56C232.966 183.644 232.631 183.712 232.262 183.796C232.161 183.813 232.044 183.83 231.96 183.881C231.608 183.965 231.273 184.049 230.921 184.151C230.887 184.151 230.837 184.151 230.786 184.184C230.468 184.269 230.132 184.353 229.814 184.454C229.512 184.556 229.21 184.674 228.892 184.758C228.221 184.994 227.567 185.247 226.947 185.501C226.293 185.771 225.672 186.057 225.052 186.361C224.566 186.597 224.113 186.834 223.66 187.087C223.627 187.103 223.559 187.137 223.526 187.171C223.241 187.34 222.939 187.525 222.654 187.711C222.403 187.846 222.134 188.015 221.883 188.2C221.581 188.369 221.296 188.588 221.011 188.791C220.977 188.808 220.96 188.841 220.91 188.875C220.743 188.976 220.592 189.095 220.407 189.23C220.39 189.23 220.39 189.246 220.374 189.263C219.971 189.533 219.586 189.82 219.233 190.124L219.183 190.174C219.049 190.276 218.915 190.394 218.781 190.495C218.412 190.782 218.076 191.086 217.724 191.423C217.59 191.541 217.456 191.659 217.322 191.811C216.953 192.115 216.618 192.486 216.266 192.824C216.098 193.009 215.897 193.195 215.746 193.38C215.477 193.667 215.209 193.954 214.958 194.258C214.807 194.443 214.639 194.646 214.471 194.831C214.304 195.017 214.153 195.219 214.019 195.405C213.918 195.506 213.868 195.574 213.801 195.675C213.499 196.063 213.197 196.468 212.946 196.89C212.711 197.16 212.543 197.447 212.359 197.734H112.675V100.612C112.675 99.7847 112.322 99.0423 111.752 98.5193C111.635 98.418 111.518 98.2999 111.383 98.2155C110.931 97.9118 110.394 97.7262 109.79 97.7262H75.819V83.6202H223.71L281.056 141.327V197.75Z" fill="#055052"/>
<path d="M111.752 98.5024C111.635 98.4011 111.518 98.283 111.383 98.1986C110.931 97.8443 110.344 97.6587 109.723 97.6587H65.7584C56.2846 97.6587 48.5547 105.505 48.5547 115.139V130.831C48.5547 134.307 45.7713 137.142 42.3507 137.142H40.1541C28.1149 137.142 18.3225 147.08 18.3225 159.296V200.602C18.3225 202.205 19.6304 203.504 21.1898 203.504H43.1388C44.1113 203.504 45.0503 202.981 45.5701 202.137C45.8719 201.631 46.1737 201.159 46.5091 200.686C46.8109 200.248 47.1462 199.826 47.4648 199.421C47.7834 198.999 48.1188 198.594 48.5044 198.206C53.4174 192.655 60.3927 189.449 67.9047 189.449C75.97 189.449 83.4316 193.144 88.3781 199.488C88.6799 199.876 88.9817 200.281 89.2835 200.686C89.6357 201.142 89.9375 201.631 90.2393 202.137C90.7591 202.981 91.6813 203.504 92.6706 203.504H109.841C111.383 203.47 112.624 202.171 112.624 200.602V100.578C112.591 99.7847 112.272 99.0423 111.752 98.5024ZM106.856 197.683H94.1797C88.1769 188.858 78.4684 183.644 67.8712 183.644C57.4081 183.644 47.8002 188.723 41.8141 197.362C41.7135 197.464 41.6464 197.582 41.5626 197.683H24.0571V159.313C24.0571 150.303 31.284 142.98 40.1541 142.98H42.3507C48.9404 142.98 54.3061 137.53 54.3061 130.848V115.156C54.3061 108.728 59.4538 103.497 65.7752 103.497H106.873V197.683H106.856Z" fill="#055052"/>
<path d="M65.7586 103.497C59.4372 103.497 54.2895 108.727 54.2895 115.156V130.848C54.2895 137.547 48.9406 142.98 42.3341 142.98H40.1375C31.2674 142.98 24.0405 150.303 24.0405 159.313V197.683H41.5628C41.6466 197.565 41.7137 197.447 41.8143 197.362C47.8004 188.723 57.4083 183.644 67.8714 183.644C78.4686 183.644 88.1771 188.858 94.1799 197.683H106.856V103.497H65.7586ZM101.122 144.38C101.122 145.983 99.8474 147.266 98.2545 147.266H65.4568C63.8639 147.266 62.5895 145.983 62.5895 144.38V114.599C62.5895 112.996 63.8639 111.714 65.4568 111.714H98.2545C99.8474 111.714 101.122 112.996 101.122 114.599V144.38Z" fill="#0AC789"/>
<path d="M289.088 231.429H261.337C260.515 231.429 259.711 231.8 259.174 232.425C254.144 238.297 246.883 241.654 239.237 241.654C231.574 241.654 224.314 238.297 219.3 232.425C218.764 231.784 217.959 231.429 217.121 231.429H90.6919C89.8199 231.429 88.9983 231.834 88.4282 232.509C83.3979 238.87 75.9027 242.515 67.8877 242.515C59.8392 242.515 52.3441 238.887 47.3137 232.509C46.7772 231.834 45.9556 231.429 45.0836 231.429H24.0401C22.4472 231.429 21.1729 232.712 21.1729 234.315V279.754C21.1729 281.357 22.4472 282.639 24.0401 282.639H289.088C290.681 282.639 291.955 281.357 291.955 279.754V234.315C291.955 232.712 290.681 231.429 289.088 231.429ZM286.22 276.852H26.9074V237.183H43.7422C43.8428 237.284 43.9267 237.402 44.0273 237.487C44.3962 237.908 44.765 238.313 45.1675 238.718C45.637 239.225 46.1568 239.714 46.6933 240.186C47.5485 240.979 48.4539 241.688 49.3929 242.346C49.8624 242.7 50.3655 243.021 50.8685 243.342C51.3883 243.645 51.8746 243.949 52.3944 244.253C52.9309 244.54 53.4507 244.81 53.9873 245.08C54.5239 245.35 55.0604 245.603 55.6138 245.805C56.1503 246.041 56.7037 246.244 57.257 246.463C57.2738 246.463 57.2738 246.463 57.2905 246.463C57.8439 246.649 58.3972 246.834 58.9673 247.003C59.4368 247.138 59.9231 247.273 60.4261 247.391C61.734 247.712 63.0586 247.948 64.4168 248.083C65.5403 248.218 66.714 248.269 67.871 248.269C69.0447 248.269 70.2017 248.218 71.3251 248.083C72.6833 247.948 74.0247 247.712 75.3159 247.391C75.8189 247.273 76.2884 247.138 76.7746 247.003C77.3447 246.834 77.8981 246.649 78.4514 246.463C78.4682 246.463 78.4682 246.463 78.485 246.463C79.0383 246.244 79.5916 246.041 80.1282 245.805C80.6815 245.586 81.2181 245.35 81.7547 245.08C82.2912 244.81 82.811 244.54 83.3476 244.253C83.8674 243.966 84.3537 243.662 84.8735 243.342C85.3765 243.021 85.8628 242.684 86.349 242.346C87.288 241.688 88.1767 240.979 89.0486 240.186C89.5852 239.731 90.105 239.225 90.5745 238.718C90.9769 238.313 91.3626 237.908 91.7147 237.487C91.8153 237.385 91.8991 237.267 91.9997 237.183H215.813C215.913 237.284 215.997 237.402 216.114 237.487C216.584 237.993 217.07 238.465 217.59 238.955C217.892 239.241 218.227 239.511 218.546 239.798C218.63 239.849 218.713 239.933 218.814 240.018C219.2 240.338 219.602 240.659 220.005 240.963C220.441 241.283 220.877 241.621 221.346 241.924C221.38 241.958 221.447 241.975 221.497 242.026C221.883 242.296 222.268 242.532 222.637 242.751C223.274 243.156 223.911 243.527 224.582 243.848C224.985 244.084 225.421 244.27 225.84 244.455C225.84 244.455 225.857 244.472 225.873 244.472C226.393 244.725 226.913 244.961 227.416 245.147C227.852 245.333 228.321 245.501 228.774 245.653C228.892 245.704 229.026 245.755 229.16 245.788C229.579 245.94 230.015 246.075 230.434 246.193C230.535 246.227 230.619 246.244 230.719 246.278C231.205 246.413 231.675 246.548 232.144 246.649C232.228 246.666 232.279 246.683 232.329 246.683C232.748 246.784 233.184 246.868 233.603 246.936C235.414 247.256 237.292 247.442 239.17 247.442C241.635 247.442 244.066 247.155 246.414 246.598C246.816 246.514 247.219 246.413 247.638 246.294C247.738 246.278 247.822 246.261 247.923 246.21C248.342 246.092 248.744 245.957 249.164 245.822C249.868 245.586 250.555 245.316 251.243 245.029C251.612 244.894 251.947 244.759 252.282 244.59C252.735 244.405 253.188 244.185 253.607 243.949C253.909 243.797 254.211 243.645 254.513 243.494C255.904 242.717 257.246 241.857 258.503 240.878C258.805 240.659 259.09 240.439 259.375 240.186C259.694 239.916 260.029 239.646 260.331 239.376C260.7 239.073 261.035 238.718 261.387 238.398C261.79 238.01 262.175 237.605 262.561 237.2H286.17V276.852H286.22Z" fill="#055052"/>
<path d="M286.22 237.2V276.869H26.9072V237.2H43.742C43.8426 237.301 43.9265 237.419 44.0271 237.503C44.396 237.942 44.7649 238.347 45.1673 238.735C45.6368 239.241 46.1566 239.731 46.6932 240.203C47.5483 240.996 48.4538 241.705 49.3928 242.363C49.8623 242.734 50.3485 243.055 50.8683 243.358C51.3713 243.679 51.8744 244 52.3942 244.27C52.914 244.573 53.4505 244.843 53.9871 245.096C54.5237 245.366 55.0602 245.619 55.6136 245.822C56.1502 246.075 56.7035 246.277 57.2568 246.48C57.2736 246.48 57.2736 246.48 57.2904 246.48C57.8437 246.699 58.397 246.868 58.9671 247.02C59.4366 247.172 59.9229 247.29 60.4259 247.408C61.7338 247.729 63.0585 247.965 64.4166 248.1C65.5401 248.235 66.7138 248.285 67.8708 248.285C69.0445 248.285 70.2015 248.235 71.3249 248.1C72.6831 247.965 74.0246 247.729 75.3157 247.408C75.8187 247.29 76.2882 247.172 76.7745 247.02C77.3446 246.868 77.8979 246.699 78.4512 246.48C78.468 246.48 78.468 246.48 78.4848 246.48C79.0381 246.294 79.5914 246.075 80.128 245.822C80.6813 245.603 81.2179 245.366 81.7545 245.096C82.291 244.843 82.8276 244.573 83.3474 244.27C83.8672 244 84.387 243.696 84.8733 243.358C85.3931 243.055 85.8626 242.717 86.3488 242.363C87.2878 241.705 88.1765 240.996 89.0484 240.203C89.585 239.748 90.1048 239.241 90.5743 238.735C90.9767 238.347 91.3624 237.942 91.7145 237.503C91.8151 237.402 91.899 237.284 91.9996 237.2H215.812C215.913 237.301 215.997 237.419 216.114 237.503C216.584 238.01 217.07 238.482 217.59 238.971C217.892 239.258 218.227 239.545 218.546 239.815C218.629 239.866 218.713 239.95 218.814 240.034C219.2 240.389 219.602 240.692 220.004 240.979C220.44 241.334 220.876 241.654 221.346 241.941C221.379 241.975 221.446 241.992 221.497 242.042C221.882 242.312 222.268 242.565 222.637 242.768C223.274 243.173 223.911 243.544 224.582 243.865C224.984 244.101 225.404 244.303 225.84 244.472C225.84 244.472 225.856 244.489 225.873 244.489C226.393 244.742 226.913 244.978 227.416 245.164C227.852 245.349 228.321 245.535 228.774 245.67C228.891 245.721 229.025 245.771 229.16 245.805C229.579 245.957 229.998 246.092 230.434 246.21C230.535 246.244 230.618 246.261 230.719 246.294C231.205 246.429 231.675 246.547 232.144 246.666C232.228 246.682 232.278 246.699 232.329 246.699C232.748 246.801 233.184 246.885 233.603 246.952C235.414 247.273 237.292 247.459 239.17 247.459C241.635 247.459 244.066 247.172 246.414 246.615C246.833 246.531 247.235 246.429 247.638 246.311C247.738 246.294 247.822 246.277 247.923 246.227C248.342 246.109 248.744 245.974 249.163 245.839C249.868 245.603 250.555 245.333 251.243 245.046C251.612 244.911 251.947 244.776 252.282 244.607C252.735 244.421 253.188 244.202 253.607 243.966C253.909 243.831 254.211 243.662 254.512 243.51C255.904 242.734 257.246 241.874 258.503 240.895C258.805 240.676 259.09 240.456 259.375 240.203C259.694 239.933 260.029 239.663 260.331 239.393C260.7 239.09 261.035 238.752 261.387 238.415C261.79 238.026 262.175 237.622 262.561 237.217H286.22V237.2Z" fill="#A8D7D9"/>
<path d="M98.6737 207.267C98.3048 206.002 97.8688 204.753 97.3322 203.521C96.6951 202.003 95.9573 200.535 95.0686 199.117C89.1663 189.55 78.9883 183.847 67.8713 183.847C57.4083 183.847 47.8339 188.875 41.8143 197.363C41.4119 197.936 41.0262 198.51 40.6741 199.117C39.8022 200.535 39.0476 202.003 38.4104 203.521C36.7337 207.487 35.845 211.755 35.845 216.058C35.845 221.525 37.1864 226.739 39.7183 231.43C40.5902 233.066 41.6298 234.619 42.8203 236.103C43.206 236.593 43.6084 237.065 44.0109 237.504C44.3797 237.926 44.7486 238.331 45.1511 238.736C45.6206 239.242 46.1404 239.731 46.6769 240.204C47.5321 240.98 48.4375 241.688 49.3765 242.363C49.846 242.718 50.3491 243.038 50.8521 243.359C51.3719 243.663 51.8582 243.966 52.378 244.27C52.9145 244.557 53.4343 244.827 53.9709 245.097C54.5075 245.367 55.044 245.603 55.5974 245.822C56.1339 246.059 56.6873 246.261 57.2406 246.48C57.2574 246.48 57.2574 246.48 57.2741 246.48C57.8275 246.666 58.3808 246.852 58.9509 247.02C59.4204 247.155 59.9067 247.29 60.4097 247.408C61.7176 247.729 63.0422 247.965 64.4004 248.1C65.5406 248.235 66.6976 248.286 67.8546 248.286C69.0283 248.286 70.1685 248.235 71.3087 248.1C72.6669 247.965 74.0083 247.729 75.2994 247.408C75.8025 247.29 76.272 247.155 76.7582 247.02C77.3283 246.852 77.8817 246.666 78.435 246.48C78.4518 246.48 78.4518 246.48 78.4685 246.48C79.0219 246.261 79.5752 246.059 80.1118 245.822C80.6651 245.586 81.2017 245.367 81.7382 245.097C82.2748 244.827 82.7946 244.557 83.3312 244.27C83.851 243.983 84.3372 243.679 84.857 243.359C85.3601 243.038 85.8463 242.701 86.3326 242.363C87.2716 241.688 88.1603 240.98 89.0322 240.204C89.5688 239.748 90.0886 239.242 90.5581 238.736C90.9605 238.331 91.3462 237.926 91.6983 237.504C92.1007 237.065 92.5031 236.576 92.8888 236.103C94.0793 234.619 95.1021 233.066 95.9908 231.43C98.5395 226.739 99.8642 221.525 99.8642 216.058C99.8977 213.072 99.4785 210.119 98.6737 207.267ZM67.8881 242.498C59.8396 242.498 52.3444 238.871 47.3141 232.493C43.5749 227.768 41.5963 222.082 41.5963 216.041C41.5963 211.148 42.9545 206.339 45.5535 202.138C45.8553 201.632 46.1571 201.176 46.4925 200.687C51.439 193.701 59.3198 189.584 67.8881 189.584C72.4489 189.584 76.8421 190.765 80.6651 192.908C84.0019 194.798 86.953 197.43 89.267 200.687C89.6191 201.176 89.9209 201.632 90.2227 202.138C92.8049 206.356 94.1799 211.165 94.1799 216.041C94.1799 222.082 92.1845 227.751 88.4453 232.493C83.3982 238.871 75.9198 242.498 67.8881 242.498Z" fill="#055052"/>
<path d="M269.034 203.521C268.464 202.036 267.793 200.602 266.988 199.219V199.202C266.619 198.611 266.267 198.004 265.881 197.43C265.865 197.396 265.848 197.346 265.797 197.312C265.445 196.772 265.076 196.249 264.691 195.76C264.339 195.287 263.97 194.815 263.567 194.359C263.299 194.005 262.997 193.684 262.695 193.38C262.545 193.195 262.377 193.009 262.176 192.824C261.891 192.52 261.606 192.233 261.32 191.98C261.136 191.761 260.935 191.592 260.734 191.406C260.331 191.035 259.895 190.664 259.459 190.31C258.956 189.888 258.42 189.483 257.9 189.095C257.38 188.707 256.843 188.352 256.307 188.015C256.257 187.981 256.206 187.93 256.173 187.914C255.737 187.627 255.267 187.357 254.798 187.104C254.479 186.884 254.127 186.716 253.792 186.564C253.641 186.462 253.473 186.395 253.305 186.311C252.735 186.007 252.132 185.754 251.545 185.501C250.975 185.248 250.405 185.011 249.801 184.826C249.7 184.792 249.583 184.741 249.482 184.708C248.929 184.522 248.376 184.336 247.806 184.185C247.705 184.151 247.638 184.134 247.554 184.1C247.118 183.982 246.682 183.864 246.23 183.78C245.324 183.56 244.419 183.392 243.48 183.273C242.792 183.172 242.088 183.105 241.384 183.054C240.679 183.003 239.975 182.97 239.254 182.97C238.55 182.97 237.846 182.987 237.125 183.054C236.42 183.088 235.716 183.172 235.029 183.273C234.09 183.392 233.167 183.56 232.279 183.78C231.843 183.881 231.373 183.999 230.937 184.134C230.904 184.134 230.854 184.134 230.803 184.168C230.166 184.32 229.546 184.539 228.908 184.741C228.238 184.978 227.584 185.231 226.963 185.484C226.309 185.754 225.689 186.041 225.069 186.344C224.549 186.597 224.029 186.867 223.543 187.154C223.258 187.323 222.956 187.509 222.671 187.694C222.419 187.829 222.151 187.998 221.9 188.184C221.547 188.369 221.229 188.605 220.927 188.858C220.759 188.96 220.608 189.078 220.424 189.213C220.005 189.5 219.586 189.82 219.183 190.175C219.049 190.276 218.915 190.394 218.781 190.495C218.412 190.782 218.076 191.086 217.724 191.423C217.59 191.541 217.456 191.659 217.322 191.811C216.953 192.115 216.618 192.486 216.266 192.824C216.098 193.009 215.897 193.195 215.746 193.38C215.478 193.667 215.209 193.954 214.958 194.258C214.639 194.629 214.304 195.034 214.019 195.405C213.918 195.506 213.868 195.574 213.801 195.675C213.499 196.063 213.197 196.468 212.946 196.89C212.711 197.16 212.543 197.447 212.359 197.734C212.057 198.189 211.772 198.679 211.487 199.185C210.682 200.585 209.994 202.036 209.441 203.521C207.966 207.25 207.228 211.215 207.228 215.214C207.228 220.951 208.754 226.536 211.604 231.43C212.577 233.117 213.7 234.72 214.974 236.205C215.36 236.643 215.763 237.082 216.165 237.521C216.634 238.027 217.121 238.499 217.641 238.989C217.942 239.276 218.278 239.546 218.596 239.832C218.68 239.883 218.764 239.967 218.865 240.052C219.25 240.372 219.653 240.693 220.055 240.997C220.491 241.317 220.927 241.655 221.397 241.958C221.43 241.992 221.497 242.009 221.547 242.06C221.933 242.33 222.319 242.566 222.688 242.785C223.325 243.19 223.962 243.561 224.633 243.882C225.035 244.118 225.471 244.304 225.89 244.489C225.89 244.489 225.907 244.506 225.924 244.506C226.444 244.759 226.963 244.962 227.466 245.181C227.902 245.367 228.372 245.536 228.825 245.687C228.942 245.738 229.076 245.789 229.21 245.822C229.629 245.974 230.065 246.109 230.485 246.227C230.585 246.261 230.669 246.278 230.77 246.312C231.256 246.447 231.725 246.582 232.195 246.683C232.279 246.7 232.329 246.717 232.379 246.717C232.799 246.818 233.235 246.902 233.654 246.97C235.465 247.29 237.343 247.476 239.221 247.476C241.685 247.476 244.117 247.189 246.464 246.632C246.867 246.548 247.269 246.447 247.688 246.329C247.789 246.312 247.873 246.295 247.973 246.244C248.393 246.126 248.795 245.991 249.214 245.856C249.918 245.62 250.606 245.35 251.293 245.063C251.645 244.928 251.981 244.793 252.333 244.624C252.786 244.439 253.238 244.219 253.658 243.983C253.959 243.831 254.261 243.679 254.563 243.528C255.955 242.751 257.296 241.891 258.554 240.912C258.856 240.693 259.141 240.474 259.426 240.22C259.744 239.95 260.08 239.681 260.381 239.411C260.75 239.107 261.086 238.752 261.438 238.432C261.84 238.044 262.226 237.639 262.612 237.234C262.913 236.913 263.215 236.576 263.517 236.238C264.775 234.754 265.915 233.167 266.887 231.463C269.738 226.57 271.264 220.985 271.264 215.248C271.247 211.215 270.509 207.233 269.034 203.521ZM239.237 241.655C231.575 241.655 224.314 238.297 219.301 232.425C215.209 227.633 212.962 221.525 212.962 215.214C212.962 210.642 214.17 206.086 216.467 202.07C221.145 193.853 229.881 188.757 239.254 188.757C243.932 188.757 248.46 190.023 252.4 192.334C256.34 194.646 259.694 197.953 262.041 202.07C264.339 206.069 265.546 210.625 265.546 215.214C265.546 221.525 263.282 227.633 259.208 232.425C254.144 238.297 246.883 241.655 239.237 241.655Z" fill="#055052"/>
<path d="M239.237 231.413C230.367 231.413 223.157 224.157 223.157 215.214C223.157 213.628 224.448 212.329 226.024 212.329C227.6 212.329 228.892 213.628 228.892 215.214C228.892 220.968 233.536 225.642 239.237 225.642C244.938 225.642 249.583 220.968 249.583 215.214C249.583 209.461 244.938 204.787 239.237 204.787C237.661 204.787 236.37 203.488 236.37 201.901C236.37 200.315 237.661 199.016 239.237 199.016C248.107 199.016 255.318 206.272 255.318 215.214C255.318 224.157 248.107 231.413 239.237 231.413Z" fill="#055052"/>
<path d="M156.254 50.7344C167.7 50.7344 176.979 41.3972 176.979 29.8792C176.979 18.3611 167.7 9.02393 156.254 9.02393C144.808 9.02393 135.529 18.3611 135.529 29.8792C135.529 41.3972 144.808 50.7344 156.254 50.7344Z" fill="#FB9477"/>
</svg>
