<svg width="274" height="302" viewBox="0 0 274 302" fill="none" xmlns="http://www.w3.org/2000/svg">
<path d="M243.517 196.294C241.941 196.294 240.65 195.001 240.65 193.423V136.823C240.65 135.245 241.941 133.952 243.517 133.952C245.093 133.952 246.384 135.245 246.384 136.823V193.423C246.384 195.018 245.093 196.294 243.517 196.294Z" fill="#055052"/>
<path d="M248.615 258.569C248.816 268.173 242.763 275.762 238.839 279.64C237.112 281.336 235.821 282.327 235.653 282.444C235.133 282.831 234.546 283.015 233.943 283.015C233.507 283.015 233.071 282.931 232.685 282.73L232.668 282.713C232.568 282.663 232.467 282.612 232.383 282.562L232.316 282.512C232.048 282.344 231.83 282.125 231.629 281.874C230.69 280.598 230.941 278.784 232.232 277.861C232.249 277.827 232.803 277.407 233.624 276.669C236.559 273.999 243.081 267.115 242.88 258.653C242.696 251.433 237.699 244.415 227.99 237.816C222.524 234.106 219.321 229.203 218.483 223.242C217.175 213.974 222.054 204.404 225.609 198.897C227.37 196.143 228.812 194.397 228.98 194.195C229.55 193.507 230.355 193.154 231.176 193.154C231.813 193.154 232.467 193.389 233.004 193.826C234.211 194.833 234.379 196.647 233.373 197.872C233.356 197.889 233.071 198.242 232.568 198.897C230.12 202.204 222.826 212.933 224.184 222.453C224.788 226.785 227.085 230.244 231.21 233.065C242.545 240.771 248.413 249.351 248.615 258.569Z" fill="#055052"/>
<path d="M270.127 193.154H90.8801C89.8908 193.154 88.9686 193.675 88.4655 194.498C87.929 195.337 87.8619 196.378 88.2811 197.268C88.9015 198.527 89.3375 199.921 89.6057 201.381C89.8405 202.54 90.7292 203.43 91.8861 203.665C95.0553 204.303 98.3417 209.105 98.3417 216.056C98.3417 222.705 94.9714 228.531 91.1316 228.531H72.6703C68.8305 228.531 65.4602 222.705 65.4602 216.056C65.4602 209.407 68.8305 203.581 72.62 203.581H72.6368C72.6703 203.581 72.8548 203.615 72.9051 203.615C73.6429 203.665 74.3806 203.396 74.934 202.96C75.2861 202.624 75.5879 202.221 75.7724 201.768C75.8227 201.617 75.8562 201.449 75.9065 201.264C76.1748 199.837 76.6107 198.494 77.1976 197.268C77.6168 196.378 77.5665 195.337 77.0299 194.498C76.5101 193.675 75.5879 193.154 74.5986 193.154H55.6008C54.6953 193.154 53.8402 193.574 53.3036 194.313C52.767 195.035 52.5994 195.975 52.8509 196.848C53.4042 198.712 53.6893 200.693 53.6893 202.725C53.6893 210.045 50.101 216.224 45.842 216.224H26.1566C21.8976 216.224 18.2926 210.045 18.2926 202.725C18.2926 200.693 18.5776 198.712 19.131 196.848C19.3825 195.975 19.198 195.035 18.6782 194.313C18.1417 193.574 17.2697 193.154 16.3811 193.154H3.25193C1.65899 193.154 0.384644 194.447 0.384644 196.025V246.463C0.384644 248.058 1.65899 249.334 3.25193 249.334H126.947C157.985 249.334 188.334 257.629 217.141 273.932L232.316 282.512L232.383 282.562C232.467 282.612 232.567 282.663 232.668 282.713L232.685 282.73L256.126 296.011H256.143L265.617 301.401C266.036 301.652 266.539 301.753 267.042 301.753H270.127C271.72 301.753 272.994 300.477 272.994 298.882V196.025C272.994 194.447 271.72 193.154 270.127 193.154ZM238.839 279.641L233.624 276.669L219.975 268.928C190.279 252.121 158.991 243.592 126.947 243.592H6.11921V198.897H12.8263C12.6419 200.156 12.558 201.449 12.558 202.725C12.558 213.521 18.5441 221.966 26.1566 221.966H45.842C53.4377 221.966 59.4238 213.521 59.4238 202.725L59.1555 198.897H68.2437C67.1202 199.451 66.1142 200.206 65.1919 201.113C64.9739 201.331 64.756 201.533 64.5715 201.768C64.5044 201.801 64.4709 201.868 64.4374 201.919C64.2194 202.154 64.0182 202.406 63.817 202.674C63.599 202.96 63.3642 203.262 63.163 203.581C63.0121 203.799 62.878 204.034 62.7438 204.253C62.5259 204.622 62.3079 205.008 62.1067 205.411C61.7378 206.15 61.3856 206.939 61.1006 207.762C61.0671 207.846 61.0503 207.913 61.0335 207.997C60.8658 208.467 60.6982 208.971 60.564 209.458C60.4802 209.827 60.3796 210.196 60.3293 210.582C60.2287 210.902 60.1784 211.237 60.1113 211.573C60.0442 211.993 59.9772 212.413 59.9269 212.849C59.8598 213.319 59.8262 213.806 59.7927 214.293V214.344C59.7424 214.898 59.7256 215.468 59.7256 216.056C59.7256 226.265 65.4099 234.273 72.6703 234.273H91.1316C98.3753 234.273 104.076 226.265 104.076 216.056C104.076 214.562 103.959 213.118 103.707 211.741C103.657 211.422 103.607 211.086 103.523 210.784C103.506 210.583 103.439 210.364 103.389 210.146C103.288 209.693 103.154 209.239 103.02 208.803C102.886 208.316 102.718 207.862 102.55 207.392C102.433 207.04 102.282 206.687 102.131 206.368C101.98 206.016 101.829 205.68 101.645 205.344C101.528 205.126 101.427 204.891 101.293 204.656C101.092 204.337 100.924 204.034 100.74 203.749C100.555 203.497 100.404 203.245 100.236 203.01C100.186 202.96 100.136 202.876 100.086 202.825C99.8844 202.557 99.6832 202.288 99.4484 202.036C99.4149 201.986 99.3981 201.936 99.3646 201.919C99.1466 201.667 98.9118 201.449 98.7106 201.214C98.6268 201.146 98.5597 201.062 98.4759 201.012C98.3753 200.911 98.2747 200.811 98.174 200.727C98.0734 200.626 97.9728 200.542 97.8722 200.441C97.7884 200.374 97.6878 200.29 97.6207 200.24C97.4195 200.089 97.2183 199.938 97.0003 199.786C96.9165 199.719 96.8159 199.652 96.7153 199.585C96.4973 199.434 96.2625 199.283 96.011 199.165C95.9272 199.115 95.8601 199.048 95.7595 199.014C95.7427 198.997 95.726 198.997 95.7092 198.997C95.6924 198.98 95.6589 198.964 95.6254 198.964C95.6086 198.947 95.6086 198.93 95.6086 198.93C95.5918 198.93 95.5918 198.913 95.5751 198.913C95.5583 198.913 95.5583 198.897 95.5415 198.897H267.26V295.725L238.839 279.641ZM72.6703 228.531C68.8305 228.531 65.4602 222.705 65.4602 216.056C65.4602 209.407 68.8305 203.581 72.62 203.581H72.6368C72.6703 203.581 72.8548 203.615 72.9051 203.615C73.6429 203.665 74.3806 203.396 74.934 202.96C75.2861 202.624 75.5879 202.221 75.7724 201.768C75.8227 201.617 75.8562 201.449 75.9065 201.264C76.1748 199.837 76.6107 198.494 77.1976 197.268C76.7281 198.275 75.7053 198.897 74.5986 198.897H68.2604C68.2437 198.897 68.2437 198.897 68.2437 198.897C67.1202 199.451 66.1142 200.206 65.1919 201.113C64.9739 201.331 64.756 201.533 64.5715 201.768C64.5044 201.801 64.4709 201.868 64.4374 201.919C64.2194 202.154 64.0182 202.406 63.817 202.674C63.599 202.96 63.3642 203.262 63.163 203.581C63.0121 203.799 62.878 204.034 62.7438 204.253C62.5259 204.622 62.3079 205.008 62.1067 205.411C61.7378 206.15 61.3856 206.939 61.1006 207.762C61.0671 207.846 61.0503 207.913 61.0335 207.997C60.8658 208.467 60.6982 208.971 60.564 209.458C60.4802 209.827 60.3796 210.196 60.3293 210.582C60.2287 210.902 60.1784 211.237 60.1113 211.573C60.0442 211.993 59.9772 212.413 59.9269 212.849C59.8598 213.319 59.8262 213.806 59.7927 214.293V214.344C59.7424 214.898 59.7256 215.468 59.7256 216.056C59.7256 226.265 65.4099 234.273 72.6703 234.273H79.0421V228.531H72.6703Z" fill="#055052"/>
<path d="M267.26 198.896V295.725L238.838 279.624C242.762 275.762 248.815 268.156 248.614 258.552C248.429 249.351 242.561 240.771 231.226 233.064C227.101 230.244 224.804 226.785 224.183 222.453C222.825 212.916 230.136 202.204 232.567 198.896H267.26Z" fill="#A8D7D9"/>
<path d="M33.1153 221.966V243.592H6.10254V198.896H12.8096C12.642 200.156 12.5413 201.449 12.5413 202.725C12.5413 213.521 18.5274 221.966 26.1567 221.966H33.1153Z" fill="#A8D7D9"/>
<path d="M79.0255 234.273V243.592H38.85V221.966H45.8254C53.4379 221.966 59.424 213.521 59.424 202.725C59.424 201.449 59.3234 200.156 59.1557 198.896H68.2438C67.1371 199.451 66.1143 200.206 65.2088 201.113C64.9741 201.331 64.7729 201.533 64.5717 201.768C64.5214 201.801 64.4711 201.868 64.4375 201.919C64.2195 202.154 64.0183 202.406 63.8339 202.657C63.5991 202.943 63.3812 203.245 63.1799 203.581C63.029 203.799 62.8781 204.017 62.7608 204.253C62.526 204.622 62.3248 204.991 62.1068 205.394C61.7379 206.133 61.4026 206.922 61.1175 207.745C61.084 207.829 61.0672 207.896 61.0337 207.98C60.866 208.467 60.7151 208.954 60.5809 209.458C60.4803 209.827 60.3965 210.179 60.3294 210.566C60.2288 210.885 60.1785 211.237 60.1115 211.556C60.0276 211.976 59.9773 212.396 59.927 212.832C59.8767 213.286 59.8264 213.789 59.7929 214.276V214.327C59.7593 214.881 59.7426 215.452 59.7426 216.022C59.7426 226.248 65.4268 234.24 72.6873 234.24H79.0255V234.273Z" fill="#A8D7D9"/>
<path d="M242.863 258.653C243.081 267.115 236.558 273.999 233.607 276.669L219.958 268.928C190.279 252.121 158.974 243.592 126.931 243.592H84.7601V234.273H91.1319C98.3755 234.273 104.077 226.264 104.077 216.056C104.077 214.562 103.959 213.135 103.708 211.741C103.657 211.422 103.59 211.086 103.523 210.784C103.506 210.566 103.439 210.364 103.389 210.146C103.288 209.693 103.154 209.222 103.02 208.786C102.886 208.316 102.718 207.846 102.534 207.392C102.417 207.023 102.266 206.687 102.115 206.351C101.964 205.999 101.813 205.663 101.645 205.344C101.528 205.109 101.394 204.891 101.276 204.656C101.092 204.337 100.907 204.017 100.723 203.732C100.555 203.48 100.404 203.228 100.22 203.01C100.17 202.96 100.119 202.876 100.069 202.825C99.8846 202.557 99.6666 202.288 99.4319 202.036C99.3984 201.986 99.3816 201.936 99.3313 201.919C99.1133 201.667 98.9121 201.415 98.6774 201.214C98.5935 201.13 98.5264 201.062 98.4426 200.995C98.2582 200.777 98.0402 200.592 97.839 200.441C97.7551 200.357 97.6713 200.29 97.5874 200.223C97.403 200.055 97.185 199.904 96.9838 199.77C96.8832 199.719 96.7994 199.635 96.6988 199.585C96.464 199.434 96.246 199.283 95.9945 199.165C95.9107 199.115 95.8436 199.048 95.743 199.014C95.6592 198.98 95.5921 198.93 95.5083 198.896H225.592C222.038 204.404 217.158 213.974 218.466 223.242C219.304 229.203 222.507 234.089 227.973 237.816C237.682 244.415 242.695 251.433 242.863 258.653Z" fill="#A8D7D9"/>
<path d="M156.09 40.1622C154.38 34.3192 149.031 30.1721 142.743 30.1721C141.687 30.1721 140.63 30.2896 139.591 30.5415C137.042 28.258 133.756 26.9819 130.285 26.9819C122.873 26.9819 116.77 32.8249 116.367 40.1622C110.314 41.0017 105.619 46.2235 105.619 52.5366C105.619 59.4373 111.203 65.0285 118.094 65.0285H154.464C161.355 65.0285 166.939 59.4373 166.939 52.5366C166.922 46.2067 162.21 40.9514 156.09 40.1622ZM154.447 58.9168H118.078C114.556 58.9168 111.689 56.0457 111.689 52.5198C111.689 48.9939 114.556 46.1227 118.078 46.1227H119.604C120.526 46.1227 121.398 45.7198 121.968 44.9978C122.555 44.3094 122.773 43.3691 122.605 42.4793C122.504 41.942 122.437 41.4215 122.437 40.9178C122.437 36.5859 125.975 33.06 130.285 33.06C132.649 33.06 134.862 34.101 136.355 35.9311C137.193 36.9553 138.618 37.3079 139.825 36.821C140.764 36.4516 141.737 36.2501 142.726 36.2501C146.784 36.2501 150.138 39.3059 150.523 43.3524C150.657 44.9138 151.982 46.1227 153.558 46.1227H154.43C157.951 46.1227 160.819 48.9939 160.819 52.5198C160.819 56.0457 157.968 58.9168 154.447 58.9168Z" fill="#A8D7D9"/>
<path d="M160.836 52.5365C160.836 56.0624 157.968 58.9335 154.447 58.9335H118.078C114.557 58.9335 111.689 56.0624 111.689 52.5365C111.689 49.0105 114.557 46.1394 118.078 46.1394H119.604C120.526 46.1394 121.398 45.7364 121.968 45.0145C122.555 44.3261 122.773 43.3858 122.605 42.4959C122.505 41.9587 122.437 41.4382 122.437 40.9345C122.437 36.6026 125.975 33.0767 130.285 33.0767C132.649 33.0767 134.862 34.1176 136.355 35.9478C137.193 36.972 138.618 37.3246 139.826 36.8377C140.765 36.4683 141.737 36.2668 142.726 36.2668C146.784 36.2668 150.138 39.3226 150.523 43.369C150.658 44.9305 151.982 46.1394 153.558 46.1394H154.43C157.968 46.1394 160.836 49.0105 160.836 52.5365Z" fill="#A8D7D9"/>
<path d="M171.248 95.3346C169.705 90.2808 165.027 86.7045 159.527 86.7045C158.622 86.7045 157.75 86.8052 156.895 86.9899C154.665 85.0254 151.814 83.9341 148.796 83.9341C142.324 83.9341 137.008 88.9879 136.539 95.3682C131.274 96.1909 127.233 100.758 127.233 106.265C127.233 112.326 132.179 117.296 138.249 117.296H169.655C175.742 117.296 180.672 112.343 180.672 106.265C180.655 100.707 176.563 96.107 171.248 95.3346ZM169.638 111.52H138.232C135.332 111.52 132.951 109.153 132.951 106.231C132.951 103.31 135.315 100.943 138.232 100.943H139.574C140.412 100.943 141.234 100.556 141.787 99.8847C142.324 99.2131 142.525 98.3568 142.374 97.5173C142.273 97.0808 142.24 96.6442 142.24 96.1909C142.24 92.5978 145.157 89.6427 148.779 89.6427C150.724 89.6427 152.586 90.5158 153.826 92.0437C154.631 93.0176 155.956 93.3534 157.113 92.8832C157.884 92.581 158.706 92.4299 159.527 92.4299C162.915 92.4299 165.715 94.982 166.033 98.34C166.184 99.8176 167.408 100.943 168.901 100.943H169.638C172.539 100.943 174.92 103.31 174.92 106.231C174.92 109.153 172.539 111.52 169.638 111.52Z" fill="#A8D7D9"/>
<path d="M174.92 106.231C174.92 109.136 172.556 111.52 169.638 111.52H138.233C135.332 111.52 132.951 109.153 132.951 106.231C132.951 103.31 135.315 100.942 138.233 100.942H139.574C140.412 100.942 141.234 100.556 141.787 99.8846C142.324 99.213 142.525 98.3567 142.374 97.5172C142.274 97.0806 142.24 96.6441 142.24 96.1908C142.24 92.5977 145.158 89.6426 148.779 89.6426C150.724 89.6426 152.586 90.5157 153.826 92.0436C154.631 93.0174 155.956 93.3532 157.113 92.8831C157.884 92.5809 158.706 92.4297 159.528 92.4297C162.915 92.4297 165.715 94.9819 166.033 98.3399C166.184 99.8174 167.408 100.942 168.901 100.942H169.638C172.539 100.959 174.92 103.327 174.92 106.231Z" fill="#A8D7D9"/>
<path d="M221.753 78.5112C231.198 78.5112 238.856 70.8437 238.856 61.3853C238.856 51.9268 231.198 44.2593 221.753 44.2593C212.307 44.2593 204.649 51.9268 204.649 61.3853C204.649 70.8437 212.307 78.5112 221.753 78.5112Z" fill="#FB9477"/>
<path d="M221.468 37.4087C219.573 37.4087 218.03 35.864 218.03 33.9667V20.2491C218.03 18.3518 219.573 16.8071 221.468 16.8071C223.362 16.8071 224.905 18.3518 224.905 20.2491V33.9667C224.905 35.864 223.362 37.4087 221.468 37.4087Z" fill="#FB9477"/>
<path d="M221.468 106.114C219.573 106.114 218.03 104.57 218.03 102.672V88.9547C218.03 87.0574 219.573 85.5127 221.468 85.5127C223.362 85.5127 224.905 87.0574 224.905 88.9547V102.672C224.905 104.57 223.362 106.114 221.468 106.114Z" fill="#FB9477"/>
<path d="M202.051 45.4681C201.162 45.4681 200.29 45.1323 199.619 44.4607L189.927 34.756C188.586 33.4127 188.586 31.23 189.927 29.8868C191.269 28.5436 193.449 28.5436 194.79 29.8868L204.482 39.5915C205.823 40.9347 205.823 43.1175 204.482 44.4607C203.811 45.1155 202.939 45.4681 202.051 45.4681Z" fill="#FB9477"/>
<path d="M250.576 94.0418C249.688 94.0418 248.816 93.706 248.145 93.0344L238.453 83.3297C237.112 81.9865 237.112 79.8037 238.453 78.4605C239.795 77.1173 241.975 77.1173 243.316 78.4605L253.008 88.1653C254.349 89.5085 254.349 91.6912 253.008 93.0344C252.337 93.706 251.448 94.0418 250.576 94.0418Z" fill="#FB9477"/>
<path d="M194.019 64.8942H180.32C178.425 64.8942 176.882 63.3495 176.882 61.4522C176.882 59.555 178.425 58.0103 180.32 58.0103H194.019C195.914 58.0103 197.456 59.555 197.456 61.4522C197.456 63.3495 195.914 64.8942 194.019 64.8942Z" fill="#FB9477"/>
<path d="M262.632 64.8942H248.933C247.038 64.8942 245.496 63.3495 245.496 61.4522C245.496 59.555 247.038 58.0103 248.933 58.0103H262.632C264.527 58.0103 266.07 59.555 266.07 61.4522C266.07 63.3495 264.527 64.8942 262.632 64.8942Z" fill="#FB9477"/>
<path d="M192.359 94.0418C191.47 94.0418 190.598 93.706 189.927 93.0344C188.586 91.6912 188.586 89.5085 189.927 88.1653L199.619 78.4605C200.961 77.1173 203.14 77.1173 204.482 78.4605C205.823 79.8037 205.823 81.9865 204.482 83.3297L194.79 93.0344C194.119 93.706 193.247 94.0418 192.359 94.0418Z" fill="#FB9477"/>
<path d="M240.885 45.4681C239.996 45.4681 239.124 45.1323 238.453 44.4607C237.112 43.1175 237.112 40.9347 238.453 39.5915L248.145 29.8868C249.487 28.5436 251.666 28.5436 253.008 29.8868C254.349 31.23 254.349 33.4127 253.008 34.756L243.316 44.4607C242.645 45.1155 241.757 45.4681 240.885 45.4681Z" fill="#FB9477"/>
<path d="M232.232 277.861C232.249 277.827 232.802 277.407 233.624 276.668L219.975 268.928C190.279 252.121 158.991 243.592 126.947 243.592H84.7766V249.334H126.947C157.985 249.334 188.334 257.628 217.141 273.932L232.316 282.511C232.048 282.344 231.83 282.125 231.628 281.873C230.689 280.597 230.941 278.784 232.232 277.861ZM232.232 277.861C232.249 277.827 232.802 277.407 233.624 276.668L219.975 268.928C190.279 252.121 158.991 243.592 126.947 243.592H84.7766V249.334H126.947C157.985 249.334 188.334 257.628 217.141 273.932L232.316 282.511C232.048 282.344 231.83 282.125 231.628 281.873C230.689 280.597 230.941 278.784 232.232 277.861ZM232.232 277.861C232.249 277.827 232.802 277.407 233.624 276.668L219.975 268.928C190.279 252.121 158.991 243.592 126.947 243.592H84.7766V249.334H126.947C157.985 249.334 188.334 257.628 217.141 273.932L232.316 282.511C232.048 282.344 231.83 282.125 231.628 281.873C230.689 280.597 230.941 278.784 232.232 277.861ZM268.45 296.397L267.26 295.725L238.839 279.64L233.624 276.668L219.975 268.928C190.279 252.121 158.991 243.592 126.947 243.592H3.25193C1.65899 243.592 0.384644 244.868 0.384644 246.463V298.882C0.384644 300.477 1.65899 301.753 3.25193 301.753H267.042C268.333 301.753 269.49 300.897 269.809 299.637C270.127 298.378 269.574 297.052 268.45 296.397ZM6.11921 296.011V249.334H126.947C157.985 249.334 188.334 257.628 217.141 273.932L232.316 282.511L232.383 282.562C232.467 282.612 232.567 282.663 232.668 282.713L232.685 282.73L256.126 296.011H6.11921ZM232.232 277.861C232.249 277.827 232.802 277.407 233.624 276.668L219.975 268.928C190.279 252.121 158.991 243.592 126.947 243.592H84.7766V249.334H126.947C157.985 249.334 188.334 257.628 217.141 273.932L232.316 282.511C232.048 282.344 231.83 282.125 231.628 281.873C230.689 280.597 230.941 278.784 232.232 277.861ZM232.232 277.861C232.249 277.827 232.802 277.407 233.624 276.668L219.975 268.928C190.279 252.121 158.991 243.592 126.947 243.592H84.7766V249.334H126.947C157.985 249.334 188.334 257.628 217.141 273.932L232.316 282.511C232.048 282.344 231.83 282.125 231.628 281.873C230.689 280.597 230.941 278.784 232.232 277.861Z" fill="#055052"/>
<path d="M256.126 296.011H6.11914V249.334H33.1152V255.765C33.1152 255.933 33.1487 256.117 33.1823 256.285H24.8487C23.2558 256.285 21.9814 257.561 21.9814 259.156C21.9814 260.735 23.2558 262.027 24.8487 262.027H47.7869C49.3631 262.027 50.6542 260.735 50.6542 259.156C50.6542 257.561 49.3631 256.285 47.7869 256.285H38.7994C38.833 256.117 38.8498 255.933 38.8498 255.765V249.334H79.042V260.315C79.042 260.533 79.0588 260.735 79.1091 260.936H65.8123C64.2193 260.936 62.945 262.229 62.945 263.807C62.945 265.385 64.2193 266.678 65.8123 266.678H97.9895C99.5825 266.678 100.857 265.385 100.857 263.807C100.857 262.229 99.5825 260.936 97.9895 260.936H84.6927C84.7598 260.735 84.7766 260.533 84.7766 260.315V249.334H126.947C157.984 249.334 188.334 257.628 217.141 273.932L232.316 282.511L232.383 282.562C232.467 282.612 232.567 282.662 232.668 282.713L232.685 282.73L256.126 296.011Z" fill="#0AC789"/>
<path d="M61.5369 64.5078V154.957C61.5369 156.552 60.2626 157.828 58.6697 157.828C57.0767 157.828 55.8024 156.552 55.8024 154.957V64.5078C55.8024 62.9128 57.0767 61.6367 58.6697 61.6367C60.2626 61.6367 61.5369 62.9128 61.5369 64.5078Z" fill="#055052"/>
<path d="M61.5367 120.57C61.4863 120.688 61.3857 120.788 61.2851 120.872C60.7653 121.376 60.1449 121.661 59.491 121.695C59.4072 121.712 59.3401 121.712 59.2562 121.712C58.5185 121.712 57.7807 121.426 57.2273 120.872L45.339 108.968C44.2324 107.86 44.2324 106.047 45.339 104.905C46.4625 103.797 48.2902 103.797 49.4136 104.905L61.2851 116.792C61.3857 116.893 61.4528 116.977 61.5367 117.095C62.308 118.119 62.3247 119.546 61.5367 120.57Z" fill="#055052"/>
<path d="M80.3331 102.252L77.9018 104.704C77.885 104.704 77.885 104.704 77.885 104.704L73.7602 108.834L61.7545 120.873C61.7042 120.923 61.6204 121.007 61.5365 121.04C61.0167 121.477 60.346 121.712 59.7256 121.712C59.6418 121.712 59.5915 121.712 59.5076 121.695H59.4909C58.8201 121.662 58.183 121.376 57.6967 120.873C56.5733 119.748 56.5733 117.917 57.6967 116.793L61.5365 112.948L69.5683 104.905L76.2753 98.189C77.3988 97.0809 79.2265 97.0809 80.3331 98.189C81.4566 99.3308 81.4566 101.144 80.3331 102.252Z" fill="#055052"/>
<path d="M53.3875 67.9163C37.0557 65.3642 24.547 51.21 24.547 34.1512C24.547 15.3294 39.8392 0 58.6861 0C77.4827 0 92.7917 15.3294 92.7917 34.1512C92.7917 51.21 80.2829 65.3642 63.9847 67.9163" fill="#0AC789"/>
<path d="M85.5145 71.6606C74.2633 71.6606 65.0746 80.8449 65.0746 92.1279C65.0746 96.9634 66.7514 101.413 69.5683 104.922C70.7756 106.416 72.1841 107.76 73.7603 108.851C77.0803 111.218 81.1381 112.595 85.5145 112.595C96.7991 112.595 105.954 103.428 105.954 92.1279C105.954 80.8617 96.7824 71.6606 85.5145 71.6606ZM85.5145 106.853C82.731 106.853 80.132 106.064 77.9019 104.704C77.8851 104.704 77.8851 104.704 77.8851 104.704C76.2419 103.696 74.7999 102.387 73.6597 100.825C71.8655 98.3906 70.8091 95.3852 70.8091 92.1279C70.8091 84.0182 77.3989 77.4029 85.5145 77.4029C93.6133 77.4029 100.22 84.0014 100.22 92.1279C100.22 100.254 93.6133 106.853 85.5145 106.853Z" fill="#0AC789"/>
<path d="M100.22 92.1278C100.22 100.237 93.63 106.853 85.5144 106.853C82.7309 106.853 80.1319 106.064 77.9018 104.704C77.5329 104.737 76.4598 104.771 75.4202 104.099C73.7602 103.008 73.6596 101.027 73.6596 100.825C73.1063 100.086 72.4188 99.0118 71.8655 97.6014C71.178 95.9056 70.8091 94.0587 70.8091 92.1278C70.8091 84.0182 77.3988 77.4028 85.5144 77.4028C93.6132 77.4028 100.22 84.0182 100.22 92.1278Z" fill="#0AC789"/>
<path d="M32.009 73.2051C20.7578 73.2051 11.5691 82.3893 11.5691 93.6723C11.5691 104.972 20.741 114.14 32.009 114.14C36.2847 114.14 40.2587 112.813 43.5619 110.546C45.1549 109.472 46.5801 108.145 47.8042 106.668C50.705 103.125 52.4488 98.6086 52.4488 93.6891C52.432 82.3893 43.2769 73.2051 32.009 73.2051ZM39.4035 106.366C37.2405 107.642 34.7086 108.381 32.009 108.381C23.9101 108.381 17.3037 101.782 17.3037 93.6555C17.3037 85.5459 23.8934 78.9305 32.009 78.9305C40.1078 78.9305 46.7143 85.5291 46.7143 93.6555C46.7143 96.98 45.6076 100.069 43.7128 102.538C42.5391 104.099 41.0803 105.392 39.4035 106.366Z" fill="#0AC789"/>
<path d="M39.4035 106.366C37.2404 107.642 34.7085 108.381 32.0089 108.381C23.9101 108.381 17.3036 101.782 17.3036 93.6557C17.3036 85.546 23.8933 78.9307 32.0089 78.9307C40.1077 78.9307 46.7142 85.5292 46.7142 93.6557C46.7142 96.9801 45.6075 100.07 43.7463 102.941C43.7463 102.941 42.321 105.442 41.8851 105.778C41.2144 106.282 39.4035 106.366 39.4035 106.366Z" fill="#0AC789"/>
<path d="M38.8501 196.865V255.765C38.8501 255.933 38.8333 256.117 38.7997 256.285C38.565 257.628 37.408 258.636 35.9828 258.636C34.5743 258.636 33.4173 257.628 33.1826 256.285C33.149 256.117 33.1155 255.933 33.1155 255.765V196.865C33.1155 195.286 34.4066 193.994 35.9828 193.994C37.5757 193.994 38.8501 195.286 38.8501 196.865Z" fill="#055052"/>
<path d="M92.1211 192.432C91.8025 191.945 91.4504 191.492 91.0815 191.072C90.9138 190.854 90.7294 190.669 90.5449 190.485C90.3773 190.3 90.176 190.098 89.9916 189.93C89.8072 189.746 89.6059 189.561 89.4047 189.393C88.734 188.822 88.013 188.352 87.2752 187.983C87.0573 187.865 86.8728 187.765 86.6716 187.681C86.4368 187.58 86.2356 187.496 86.0009 187.412C85.6991 187.294 85.3972 187.227 85.0787 187.126C84.911 187.093 84.7265 187.043 84.5589 187.026C84.4247 186.992 84.2906 186.975 84.1397 186.942C83.9217 186.908 83.7372 186.891 83.536 186.858C83.2677 186.841 82.9995 186.824 82.7312 186.824C82.4629 186.824 82.1946 186.841 81.9263 186.858C81.7084 186.875 81.5071 186.891 81.3227 186.942L80.9203 186.992C80.7358 187.026 80.5178 187.076 80.3502 187.126C80.0651 187.21 79.7801 187.294 79.495 187.395C79.2603 187.479 79.0423 187.563 78.8243 187.664C78.556 187.781 78.3213 187.899 78.0865 188.033C76.8457 188.705 75.672 189.645 74.6491 190.787C74.4815 191.005 74.2802 191.207 74.1126 191.442C73.8946 191.693 73.7269 191.945 73.5425 192.214C73.3748 192.466 73.1736 192.734 73.0227 193.003C72.9891 193.053 72.9388 193.121 72.9053 193.171H57.6467C57.5293 192.886 57.3951 192.6 57.261 192.331C57.1436 192.063 57.0262 191.794 56.8921 191.542C56.0873 189.93 55.1147 188.52 54.0081 187.345C53.7398 187.076 53.4715 186.807 53.2032 186.556C53.0355 186.388 52.8343 186.237 52.6499 186.086C52.4319 185.918 52.2139 185.733 51.9959 185.599C51.2582 185.045 50.4533 184.608 49.6317 184.272C47.7034 176.733 42.7234 171.78 36.8882 171.78C31.2039 171.78 26.3413 176.482 24.2956 183.685C23.3902 183.852 22.5015 184.155 21.6631 184.591C21.3613 184.742 21.0595 184.91 20.7576 185.095C18.1419 186.69 15.895 189.427 14.4362 192.969C14.4027 193.053 14.3859 193.104 14.3356 193.188H16.3813C17.2867 193.188 18.1419 193.607 18.6784 194.329C19.215 195.051 19.3827 195.992 19.1312 196.882C20.4726 192.348 23.3063 189.276 26.1233 189.276C26.1569 189.292 26.3748 189.292 26.4084 189.309C27.8672 189.393 29.1415 188.386 29.4098 186.975C30.4662 181.502 33.6017 177.539 36.8882 177.539C40.2082 177.539 43.3605 181.552 44.4001 187.093C44.6181 188.235 45.5068 189.141 46.6638 189.376C47.9717 189.645 49.2125 190.485 50.2688 191.794C51.3588 193.07 52.2307 194.816 52.8511 196.882C53.22 198.09 54.3434 198.93 55.601 198.93H68.2439C68.2439 198.93 68.2439 198.93 68.2606 198.93H74.5988C75.7055 198.93 76.7283 198.292 77.1978 197.301C78.5896 194.346 80.6687 192.6 82.7479 192.6C84.8104 192.6 86.8896 194.363 88.2981 197.301C87.8789 196.395 87.9292 195.37 88.4657 194.531C88.9855 193.708 89.9078 193.188 90.8971 193.188H92.5906C92.4397 192.902 92.272 192.65 92.1211 192.432ZM92.1211 192.432C91.8025 191.945 91.4504 191.492 91.0815 191.072C90.9138 190.854 90.7294 190.669 90.5449 190.485C90.3773 190.3 90.176 190.098 89.9916 189.93C89.8072 189.746 89.6059 189.561 89.4047 189.393C88.734 188.822 88.013 188.352 87.2752 187.983C87.0573 187.865 86.8728 187.765 86.6716 187.681C86.4368 187.58 86.2356 187.496 86.0009 187.412C85.6991 187.294 85.3972 187.227 85.0787 187.126C84.911 187.093 84.7265 187.043 84.5589 187.026C84.4247 186.992 84.2906 186.975 84.1397 186.942C83.9217 186.908 83.7372 186.891 83.536 186.858C83.2677 186.841 82.9995 186.824 82.7312 186.824C82.4629 186.824 82.1946 186.841 81.9263 186.858C81.7084 186.875 81.5071 186.891 81.3227 186.942L80.9203 186.992C80.7358 187.026 80.5178 187.076 80.3502 187.126C80.0651 187.21 79.7801 187.294 79.495 187.395C79.2603 187.479 79.0423 187.563 78.8243 187.664C78.556 187.781 78.3213 187.899 78.0865 188.033C76.8457 188.705 75.672 189.645 74.6491 190.787C74.4815 191.005 74.2802 191.207 74.1126 191.442C73.8946 191.693 73.7269 191.945 73.5425 192.214C73.3748 192.466 73.1736 192.734 73.0227 193.003C72.9891 193.053 72.9388 193.121 72.9053 193.171H57.6467C57.5293 192.886 57.3951 192.6 57.261 192.331C57.1436 192.063 57.0262 191.794 56.8921 191.542C56.0873 189.93 55.1147 188.52 54.0081 187.345C53.7398 187.076 53.4715 186.807 53.2032 186.556C53.0355 186.388 52.8343 186.237 52.6499 186.086C52.4319 185.918 52.2139 185.733 51.9959 185.599C51.2582 185.045 50.4533 184.608 49.6317 184.272C47.7034 176.733 42.7234 171.78 36.8882 171.78C31.2039 171.78 26.3413 176.482 24.2956 183.685C23.3902 183.852 22.5015 184.155 21.6631 184.591C21.3613 184.742 21.0595 184.91 20.7576 185.095C18.1419 186.69 15.895 189.427 14.4362 192.969C14.4027 193.053 14.3859 193.104 14.3356 193.188H16.3813C17.2867 193.188 18.1419 193.607 18.6784 194.329C19.215 195.051 19.3827 195.992 19.1312 196.882C20.4726 192.348 23.3063 189.276 26.1233 189.276C26.1569 189.292 26.3748 189.292 26.4084 189.309C27.8672 189.393 29.1415 188.386 29.4098 186.975C30.4662 181.502 33.6017 177.539 36.8882 177.539C40.2082 177.539 43.3605 181.552 44.4001 187.093C44.6181 188.235 45.5068 189.141 46.6638 189.376C47.9717 189.645 49.2125 190.485 50.2688 191.794C51.3588 193.07 52.2307 194.816 52.8511 196.882C53.22 198.09 54.3434 198.93 55.601 198.93H68.2439C68.2439 198.93 68.2439 198.93 68.2606 198.93H74.5988C75.7055 198.93 76.7283 198.292 77.1978 197.301C78.5896 194.346 80.6687 192.6 82.7479 192.6C84.8104 192.6 86.8896 194.363 88.2981 197.301C87.8789 196.395 87.9292 195.37 88.4657 194.531C88.9855 193.708 89.9078 193.188 90.8971 193.188H92.5906C92.4397 192.902 92.272 192.65 92.1211 192.432ZM148.343 161.454L147.17 160.212C147.086 160.111 147.002 160.044 146.918 159.943C127.166 139.073 106.223 128.529 84.7098 128.529H3.2186C1.62567 128.529 0.351318 129.805 0.351318 131.4V196.025C0.351318 197.62 1.62567 198.896 3.2186 198.896H16.3477C17.6053 198.896 18.7288 198.057 19.0976 196.848C20.4391 192.315 23.2728 189.242 26.0898 189.242C26.1233 189.259 26.3413 189.259 26.3748 189.276C27.8336 189.36 29.108 188.352 29.3763 186.942C30.4326 181.468 33.5682 177.506 36.8547 177.506C40.1747 177.506 43.327 181.519 44.3666 187.059C44.5846 188.201 45.4733 189.108 46.6303 189.343C47.9381 189.611 49.179 190.451 50.2353 191.761C51.3252 193.037 52.1971 194.783 52.8175 196.848C53.1864 198.057 54.3099 198.896 55.5675 198.896H68.2103C68.2103 198.896 68.2103 198.896 68.2271 198.896H74.5653C75.672 198.896 76.6948 198.258 77.1643 197.268C78.556 194.313 80.6352 192.567 82.7144 192.567C84.7768 192.567 86.856 194.329 88.2645 197.268C88.7508 198.258 89.7569 198.896 90.8635 198.896H95.4746C95.4914 198.896 95.4914 198.896 95.5082 198.896H96.9502C97.5203 198.896 98.1239 198.729 98.5934 198.376L106.022 193.154H106.038L130.519 175.978C133.856 173.627 137.344 171.428 140.865 169.446C142.994 168.254 145.208 167.096 147.471 166.004C148.293 165.602 148.88 164.829 149.064 163.939C149.266 163.049 148.98 162.109 148.343 161.454ZM138.081 164.443C134.409 166.508 130.754 168.808 127.25 171.277L96.0783 193.154H92.6074C92.4565 192.902 92.3056 192.65 92.1546 192.432C91.8361 191.945 91.4839 191.492 91.115 191.072C90.9474 190.854 90.7629 190.669 90.5785 190.485C90.4108 190.3 90.2096 190.098 90.0251 189.93C89.8407 189.746 89.6395 189.561 89.4383 189.393C88.7676 188.822 88.0466 188.352 87.3088 187.983C87.0908 187.865 86.9063 187.765 86.7051 187.681C86.4704 187.58 86.2692 187.496 86.0344 187.412C85.7326 187.294 85.4308 187.227 85.1122 187.126C84.9445 187.093 84.7601 187.043 84.5924 187.026C84.4583 186.992 84.3241 186.975 84.1732 186.942C83.9552 186.908 83.7708 186.891 83.5696 186.858C83.3013 186.841 83.033 186.824 82.7647 186.824C82.4964 186.824 82.2281 186.841 81.9599 186.858C81.7419 186.875 81.5407 186.891 81.3562 186.942L80.9538 186.992C80.7694 187.026 80.5514 187.076 80.3837 187.126C80.0986 187.21 79.8136 187.294 79.5285 187.395C79.2938 187.479 79.0758 187.563 78.8578 187.664C78.5895 187.781 78.3548 187.899 78.12 188.033C76.8792 188.705 75.7055 189.645 74.6827 190.787C74.515 191.005 74.3138 191.207 74.1461 191.442C73.9281 191.693 73.7604 191.945 73.576 192.214C73.4083 192.466 73.2071 192.734 73.0562 193.003C73.0227 193.053 72.9724 193.121 72.9388 193.171H57.6802C57.5628 192.886 57.4287 192.6 57.2945 192.331C57.1772 192.063 57.0598 191.794 56.9256 191.542C56.1208 189.93 55.1483 188.52 54.0416 187.345C53.7733 187.076 53.505 186.807 53.2367 186.556C53.0691 186.388 52.8679 186.237 52.6834 186.086C52.4654 185.918 52.2474 185.733 52.0295 185.599C51.2917 185.045 50.4868 184.608 49.6652 184.272C47.7369 176.733 42.7569 171.78 36.9217 171.78C31.2375 171.78 26.3748 176.482 24.3292 183.685C23.4237 183.852 22.535 184.155 21.6966 184.591C21.3948 184.742 21.093 184.91 20.7912 185.095C18.1754 186.69 15.9285 189.427 14.4697 192.969C14.4362 193.053 14.4194 193.104 14.3691 193.188H6.15296V134.271H84.7768C104.211 134.271 123.309 143.791 141.569 162.579C140.362 163.201 139.205 163.805 138.081 164.443ZM92.1211 192.432C91.8025 191.945 91.4504 191.492 91.0815 191.072C90.9138 190.854 90.7294 190.669 90.5449 190.485C90.3773 190.3 90.176 190.098 89.9916 189.93C89.8072 189.746 89.6059 189.561 89.4047 189.393C88.734 188.822 88.013 188.352 87.2752 187.983C87.0573 187.865 86.8728 187.765 86.6716 187.681C86.4368 187.58 86.2356 187.496 86.0009 187.412C85.6991 187.294 85.3972 187.227 85.0787 187.126C84.911 187.093 84.7265 187.043 84.5589 187.026C84.4247 186.992 84.2906 186.975 84.1397 186.942C83.9217 186.908 83.7372 186.891 83.536 186.858C83.2677 186.841 82.9995 186.824 82.7312 186.824C82.4629 186.824 82.1946 186.841 81.9263 186.858C81.7084 186.875 81.5071 186.891 81.3227 186.942L80.9203 186.992C80.7358 187.026 80.5178 187.076 80.3502 187.126C80.0651 187.21 79.7801 187.294 79.495 187.395C79.2603 187.479 79.0423 187.563 78.8243 187.664C78.556 187.781 78.3213 187.899 78.0865 188.033C76.8457 188.705 75.672 189.645 74.6491 190.787C74.4815 191.005 74.2802 191.207 74.1126 191.442C73.8946 191.693 73.7269 191.945 73.5425 192.214C73.3748 192.466 73.1736 192.734 73.0227 193.003C72.9891 193.053 72.9388 193.121 72.9053 193.171H57.6467C57.5293 192.886 57.3951 192.6 57.261 192.331C57.1436 192.063 57.0262 191.794 56.8921 191.542C56.0873 189.93 55.1147 188.52 54.0081 187.345C53.7398 187.076 53.4715 186.807 53.2032 186.556C53.0355 186.388 52.8343 186.237 52.6499 186.086C52.4319 185.918 52.2139 185.733 51.9959 185.599C51.2582 185.045 50.4533 184.608 49.6317 184.272C47.7034 176.733 42.7234 171.78 36.8882 171.78C31.2039 171.78 26.3413 176.482 24.2956 183.685C23.3902 183.852 22.5015 184.155 21.6631 184.591C21.3613 184.742 21.0595 184.91 20.7576 185.095C18.1419 186.69 15.895 189.427 14.4362 192.969C14.4027 193.053 14.3859 193.104 14.3356 193.188H16.3813C17.2867 193.188 18.1419 193.607 18.6784 194.329C19.215 195.051 19.3827 195.992 19.1312 196.882C20.4726 192.348 23.3063 189.276 26.1233 189.276C26.1569 189.292 26.3748 189.292 26.4084 189.309C27.8672 189.393 29.1415 188.386 29.4098 186.975C30.4662 181.502 33.6017 177.539 36.8882 177.539C40.2082 177.539 43.3605 181.552 44.4001 187.093C44.6181 188.235 45.5068 189.141 46.6638 189.376C47.9717 189.645 49.2125 190.485 50.2688 191.794C51.3588 193.07 52.2307 194.816 52.8511 196.882C53.22 198.09 54.3434 198.93 55.601 198.93H68.2439C68.2439 198.93 68.2439 198.93 68.2606 198.93H74.5988C75.7055 198.93 76.7283 198.292 77.1978 197.301C78.5896 194.346 80.6687 192.6 82.7479 192.6C84.8104 192.6 86.8896 194.363 88.2981 197.301C87.8789 196.395 87.9292 195.37 88.4657 194.531C88.9855 193.708 89.9078 193.188 90.8971 193.188H92.5906C92.4397 192.902 92.272 192.65 92.1211 192.432Z" fill="#055052"/>
<path d="M59.1558 198.897C58.9713 197.654 58.703 196.412 58.3509 195.203C58.1329 194.498 57.8982 193.809 57.6467 193.154C57.5293 192.869 57.3951 192.583 57.261 192.315C57.1436 192.046 57.0262 191.778 56.8921 191.526C56.0873 189.914 55.1147 188.503 54.0081 187.328C53.7398 187.06 53.4715 186.791 53.2032 186.539C53.0355 186.371 52.8343 186.22 52.6499 186.069C52.4319 185.901 52.2139 185.716 51.9959 185.582C51.2582 185.028 50.4533 184.591 49.6317 184.256C47.7034 176.717 42.7234 171.764 36.8882 171.764C31.2039 171.764 26.3413 176.465 24.2956 183.668C23.3902 183.836 22.5015 184.138 21.6631 184.575C21.3613 184.726 21.0595 184.894 20.7576 185.078C18.1419 186.673 15.895 189.41 14.4362 192.953C14.4194 193.037 14.3859 193.104 14.3524 193.171C14.0841 193.843 13.8326 194.531 13.6314 195.236C13.2792 196.445 13.0277 197.671 12.8265 198.913C12.6588 200.173 12.5582 201.466 12.5582 202.742C12.5582 213.538 18.5443 221.983 26.1736 221.983H45.8422C53.4547 221.983 59.4408 213.538 59.4408 202.742C59.424 201.449 59.3234 200.156 59.1558 198.897ZM45.8254 216.224H26.1569C21.8979 216.224 18.276 210.045 18.276 202.725C18.276 200.693 18.5611 198.712 19.1144 196.848C20.4558 192.315 23.2896 189.242 26.1066 189.242C26.1401 189.259 26.3581 189.259 26.3916 189.276C27.8504 189.36 29.1247 188.352 29.393 186.942C30.4494 181.468 33.585 177.506 36.8714 177.506C40.1915 177.506 43.3438 181.519 44.3834 187.06C44.6014 188.201 45.4901 189.108 46.647 189.343C47.9549 189.612 49.1957 190.451 50.2521 191.761C51.342 193.037 52.2139 194.783 52.8343 196.848C53.3877 198.712 53.6727 200.693 53.6727 202.725C53.6895 210.045 50.0844 216.224 45.8254 216.224Z" fill="#055052"/>
<path d="M103.708 211.741C103.657 211.422 103.59 211.086 103.523 210.784C103.506 210.566 103.439 210.364 103.389 210.146C103.288 209.693 103.154 209.222 103.02 208.786C102.886 208.316 102.718 207.846 102.534 207.392C102.417 207.023 102.266 206.687 102.115 206.351C101.964 205.999 101.813 205.663 101.645 205.344C101.528 205.109 101.41 204.891 101.276 204.655C101.092 204.336 100.907 204.017 100.723 203.732C100.555 203.48 100.404 203.228 100.22 203.01C100.17 202.96 100.119 202.876 100.069 202.825C99.8846 202.557 99.6666 202.288 99.4319 202.036C99.3984 201.986 99.3816 201.935 99.3313 201.919C99.1133 201.667 98.8953 201.449 98.6774 201.214C98.5935 201.13 98.5264 201.062 98.4426 200.995C98.2582 200.811 98.0402 200.609 97.839 200.441C97.7551 200.357 97.6713 200.29 97.5874 200.223C97.403 200.072 97.185 199.921 96.9838 199.77C96.8832 199.719 96.7994 199.635 96.6988 199.585C96.464 199.434 96.246 199.283 95.9945 199.165C95.9107 199.115 95.8436 199.048 95.743 199.014C95.7095 198.997 95.6592 198.98 95.6089 198.964C95.5753 198.93 95.525 198.93 95.4747 198.913C95.2567 198.796 95.0555 198.695 94.8375 198.611C94.7369 198.292 94.6531 197.956 94.5525 197.637C94.4184 197.201 94.2674 196.781 94.0998 196.361C93.9153 195.824 93.6973 195.303 93.4458 194.816C93.1775 194.246 92.8925 193.708 92.5907 193.188H92.5739C92.423 192.936 92.2721 192.684 92.1212 192.466C91.8026 191.979 91.4505 191.526 91.0816 191.106C90.9139 190.888 90.7294 190.703 90.545 190.518C90.3773 190.333 90.1761 190.132 89.9917 189.964C89.8072 189.779 89.606 189.595 89.4048 189.427C88.7341 188.856 88.0131 188.386 87.2753 188.016C87.0573 187.899 86.8729 187.798 86.6716 187.714C86.4369 187.613 86.2357 187.53 86.0009 187.446C85.6991 187.328 85.3973 187.261 85.0787 187.16C84.911 187.127 84.7266 187.076 84.5589 187.059C84.4248 187.026 84.2906 187.009 84.1397 186.975C83.9217 186.942 83.7373 186.925 83.5361 186.891C83.2678 186.875 82.9995 186.858 82.7312 186.858C82.463 186.858 82.1947 186.875 81.9264 186.891C81.7084 186.908 81.5072 186.925 81.3227 186.975L80.9203 187.026C80.7359 187.059 80.5179 187.11 80.3502 187.16C80.0652 187.244 79.7801 187.328 79.4951 187.429C79.2603 187.513 79.0423 187.597 78.8244 187.697C78.5561 187.815 78.3213 187.932 78.0866 188.067C76.8458 188.738 75.672 189.679 74.6492 190.82C74.4815 191.039 74.2803 191.24 74.1126 191.475C73.8946 191.727 73.727 191.979 73.5425 192.248C73.3748 192.499 73.1736 192.768 73.0227 193.037C72.9892 193.087 72.9389 193.154 72.9053 193.205C72.6035 193.725 72.3017 194.262 72.0334 194.833C71.5304 195.874 71.128 196.932 70.8094 198.074C69.9375 198.242 69.0655 198.561 68.2607 198.947C68.2439 198.947 68.2439 198.947 68.2439 198.947C67.1372 199.501 66.1144 200.256 65.209 201.163C64.9742 201.381 64.773 201.583 64.5718 201.818C64.5215 201.852 64.4712 201.919 64.4376 201.969C64.2197 202.204 64.0184 202.456 63.834 202.708C63.5993 202.993 63.3813 203.295 63.1801 203.631C63.0292 203.85 62.895 204.068 62.7609 204.303C62.5261 204.672 62.3249 205.042 62.1069 205.445C61.738 206.183 61.4027 206.973 61.1176 207.795C61.0841 207.879 61.0673 207.946 61.0338 208.03C60.8661 208.517 60.7152 209.004 60.5811 209.508C60.4805 209.877 60.3966 210.23 60.3295 210.616C60.2289 210.935 60.1786 211.288 60.1116 211.607C60.0277 212.026 59.9774 212.446 59.9271 212.883C59.8768 213.336 59.8265 213.84 59.793 214.327V214.377C59.7594 214.931 59.7427 215.502 59.7427 216.073C59.7427 226.298 65.4269 234.29 72.6874 234.29H91.1486C98.3923 234.29 104.093 226.281 104.093 216.073C104.077 214.562 103.959 213.118 103.708 211.741ZM91.1319 228.531H72.6706C68.8308 228.531 65.4605 222.705 65.4605 216.056C65.4605 209.407 68.8308 203.598 72.6035 203.598H72.6203C72.6538 203.598 72.855 203.615 72.8886 203.615C73.6264 203.665 74.3641 203.396 74.9175 202.96C75.2864 202.641 75.5882 202.238 75.7559 201.768C75.8062 201.616 75.8565 201.449 75.89 201.264C76.1583 199.82 76.5942 198.493 77.1979 197.268C78.5896 194.313 80.6688 192.567 82.748 192.567C84.8104 192.567 86.8896 194.33 88.2981 197.268C88.9018 198.527 89.3545 199.904 89.6228 201.381C89.8575 202.523 90.7462 203.43 91.9032 203.665C95.0723 204.303 98.3588 209.105 98.3588 216.056C98.342 222.705 94.9717 228.531 91.1319 228.531Z" fill="#055052"/>
<path d="M84.7767 210.549V260.315C84.7767 260.533 84.7599 260.735 84.6928 260.936C84.4246 262.229 83.2843 263.186 81.9094 263.186C80.5344 263.186 79.3775 262.229 79.1092 260.936C79.0589 260.735 79.0421 260.533 79.0421 260.315V210.549C79.0421 208.971 80.3165 207.678 81.9094 207.678C83.4856 207.678 84.7767 208.971 84.7767 210.549Z" fill="#055052"/>
<path d="M188.284 198.897C186.708 198.897 185.417 197.604 185.417 196.025V147.905C185.417 146.327 186.708 145.034 188.284 145.034C189.86 145.034 191.151 146.327 191.151 147.905V196.025C191.151 197.621 189.877 198.897 188.284 198.897Z" fill="#055052"/>
<path d="M90.7125 157.811H37.3408C35.7646 157.811 34.4735 156.518 34.4735 154.94C34.4735 153.362 35.7646 152.069 37.3408 152.069H90.6957C92.2719 152.069 93.563 153.362 93.563 154.94C93.5798 156.535 92.2887 157.811 90.7125 157.811Z" fill="#055052"/>
<path d="M220.545 180.545H206.946C205.37 180.545 204.079 179.252 204.079 177.674C204.079 176.096 205.37 174.803 206.946 174.803H220.545C222.121 174.803 223.412 176.096 223.412 177.674C223.412 179.269 222.138 180.545 220.545 180.545Z" fill="#055052"/>
<path d="M50.6548 259.156C50.6548 260.735 49.3636 262.027 47.7875 262.027H24.8492C23.2563 262.027 21.9819 260.735 21.9819 259.156C21.9819 257.561 23.2563 256.285 24.8492 256.285H47.7875C49.3636 256.285 50.6548 257.561 50.6548 259.156Z" fill="#055052"/>
<path d="M100.857 263.807C100.857 265.385 99.5827 266.678 97.9897 266.678H65.8125C64.2195 266.678 62.9452 265.385 62.9452 263.807C62.9452 262.229 64.2195 260.936 65.8125 260.936H97.9897C99.5827 260.936 100.857 262.229 100.857 263.807Z" fill="#055052"/>
<path d="M185.434 196.025V193.154H106.038L98.6103 198.376C98.124 198.729 97.5372 198.896 96.9671 198.896H188.301C186.708 198.896 185.434 197.62 185.434 196.025ZM270.765 150.39H263.303C262.196 150.39 261.173 151.044 260.704 152.035C259.044 155.561 256.529 157.66 254.014 157.66H233.02C230.472 157.66 227.973 155.561 226.313 152.035C225.844 151.044 224.821 150.39 223.714 150.39H206.947C205.354 150.39 204.079 151.666 204.079 153.261C204.063 160.313 200.441 165.199 197.205 165.199H179.364C176.094 165.199 173.126 160.766 172.573 155.091C172.489 154.268 172.07 153.546 171.433 153.042C170.762 152.556 169.94 152.388 169.135 152.539C168.331 152.707 167.542 152.891 166.754 153.093C160.031 154.688 153.374 156.971 146.935 159.926C146.281 160.212 145.661 160.497 145.023 160.8C143.833 161.37 142.676 161.941 141.519 162.563C140.345 163.167 139.205 163.788 138.082 164.426C134.409 166.491 130.754 168.792 127.25 171.26L96.0784 193.137H96.0449L95.3238 193.658C94.4519 194.262 93.9992 195.287 94.1166 196.311C94.1333 196.479 94.1669 196.68 94.2339 196.865C94.3178 197.133 94.4184 197.385 94.5861 197.587C95.1059 198.376 95.9778 198.863 96.9838 198.863H270.765C271.687 198.863 272.492 198.443 272.995 197.772C273.397 197.285 273.632 196.663 273.632 195.992V153.261C273.632 151.682 272.341 150.39 270.765 150.39ZM106.055 193.154L130.536 175.978C133.873 173.627 137.361 171.428 140.882 169.446C143.011 168.254 145.225 167.096 147.488 166.005C153.944 162.898 160.617 160.514 167.392 158.852C167.509 159.356 167.643 159.843 167.794 160.329C167.945 160.833 168.096 161.303 168.297 161.773C168.465 162.227 168.666 162.697 168.867 163.117C169.052 163.553 169.286 163.973 169.521 164.376C169.756 164.796 169.974 165.182 170.242 165.568C170.46 165.87 170.661 166.156 170.896 166.441C171.064 166.676 171.265 166.894 171.449 167.113C171.466 167.146 171.5 167.197 171.567 167.23C171.734 167.448 171.936 167.633 172.137 167.818C173.042 168.725 174.032 169.43 175.105 169.917C175.256 170.017 175.407 170.085 175.591 170.152C175.624 170.185 175.641 170.185 175.692 170.185C175.826 170.269 175.96 170.32 176.111 170.353C176.128 170.37 176.144 170.37 176.161 170.37C176.312 170.454 176.463 170.487 176.647 170.521C176.664 170.538 176.681 170.538 176.698 170.538C176.849 170.588 176.999 170.639 177.15 170.672C177.469 170.756 177.838 170.823 178.19 170.857C178.576 170.907 178.978 170.941 179.38 170.941H197.221C197.389 170.941 197.59 170.941 197.758 170.924C197.926 170.924 198.11 170.89 198.294 170.874C200.323 170.655 202.168 169.782 203.794 168.422C204.079 168.17 204.348 167.919 204.616 167.65C206.41 165.853 207.835 163.419 208.724 160.548C208.808 160.313 208.875 160.111 208.942 159.876C208.992 159.658 209.076 159.44 209.11 159.204C209.16 158.969 209.227 158.718 209.277 158.483C209.328 158.214 209.395 157.928 209.428 157.643C209.529 157.156 209.596 156.686 209.663 156.199V156.115H222.004C222.155 156.367 222.306 156.619 222.457 156.837C222.608 157.089 222.759 157.307 222.926 157.542C223.496 158.348 224.117 159.087 224.787 159.742C225.005 159.96 225.19 160.128 225.391 160.296C225.659 160.548 225.928 160.749 226.196 160.967C226.431 161.135 226.682 161.32 226.9 161.471C227.152 161.639 227.403 161.79 227.638 161.925C227.89 162.059 228.158 162.21 228.426 162.327C228.661 162.445 228.862 162.546 229.097 162.613C229.348 162.714 229.6 162.798 229.835 162.882C230.489 163.1 231.159 163.251 231.847 163.301C231.998 163.318 232.149 163.335 232.299 163.335C232.534 163.368 232.786 163.368 233.004 163.368H253.997C255.07 163.368 256.126 163.201 257.149 162.865C257.417 162.781 257.669 162.697 257.921 162.596C258.172 162.495 258.424 162.378 258.658 162.277C258.876 162.176 259.061 162.059 259.262 161.958C261.475 160.732 263.454 158.718 264.996 156.098H267.864V193.121H106.055V193.154ZM185.434 196.025V193.154H106.038L98.6103 198.376C98.124 198.729 97.5372 198.896 96.9671 198.896H188.301C186.708 198.896 185.434 197.62 185.434 196.025Z" fill="#055052"/>
<path d="M197.205 170.941H179.364C172.975 170.941 167.727 164.51 166.889 155.645C166.805 154.856 166.754 154.05 166.754 153.227C166.754 144.211 171.332 136.957 177.469 135.715C179.38 129.15 183.874 124.885 189.106 124.885C194.488 124.885 199.083 129.402 200.893 136.303C206.159 138.502 209.814 145.252 209.814 153.244C209.797 163.184 204.264 170.941 197.205 170.941ZM179.313 141.272C176.128 141.272 172.506 146.192 172.506 153.244C172.506 153.882 172.556 154.503 172.606 155.108C173.143 160.783 176.128 165.215 179.38 165.215H197.221C200.458 165.215 204.079 160.313 204.096 153.277C204.096 146.662 200.894 141.944 197.926 141.356C196.769 141.138 195.88 140.215 195.662 139.073C194.757 134.187 192.007 130.628 189.123 130.628C186.272 130.628 183.522 134.137 182.6 138.972C182.332 140.399 181.041 141.39 179.598 141.289C179.531 141.289 179.347 141.272 179.313 141.272Z" fill="#055052"/>
<path d="M254.014 163.419H233.02C228.225 163.419 223.781 160.077 221.132 154.503C219.539 151.128 218.684 147.183 218.684 143.086C218.684 132.575 224.033 124.163 231.176 122.921C233.322 115.248 238.47 110.244 244.473 110.244C250.643 110.244 255.892 115.516 257.92 123.542C264.057 125.943 268.333 133.784 268.333 143.103C268.333 147.199 267.495 151.145 265.885 154.52C263.253 160.077 258.809 163.419 254.014 163.419ZM233.004 128.512C228.359 128.512 224.435 135.194 224.435 143.086C224.435 146.326 225.089 149.432 226.33 152.035C228.007 155.561 230.505 157.66 233.037 157.66H254.03C256.562 157.66 259.061 155.561 260.737 152.035C261.978 149.432 262.632 146.326 262.632 143.086C262.632 134.976 258.742 129.351 254.969 128.613C253.812 128.394 252.924 127.471 252.706 126.329C251.582 120.335 248.145 115.986 244.506 115.986C240.901 115.986 237.464 120.285 236.324 126.212C236.055 127.622 234.764 128.613 233.339 128.529C233.272 128.529 233.054 128.512 233.004 128.512Z" fill="#055052"/>
</svg>
