<?xml version="1.0" encoding="utf-8"?>
<!-- Generator: Adobe Illustrator 24.1.2, SVG Export Plug-In . SVG Version: 6.00 Build 0)  -->
<svg version="1.1" id="Слой_1" xmlns="http://www.w3.org/2000/svg" xmlns:xlink="http://www.w3.org/1999/xlink" x="0px" y="0px"
	 viewBox="0 0 320 320" style="enable-background:new 0 0 320 320;" xml:space="preserve">
<style type="text/css">
	.st0{fill:#055052;}
	.st1{fill:none;}
	.st2{fill:#0AC789;}
	.st3{fill:#A8D7D9;}
	.st4{fill:#FB9477;}
	.st5{fill:#F3ECDE;}
</style>
<g>
	<g>
		<g>
			<g>
				<path class="st0" d="M273.3,191.8c-1.5,0-2.8-1.2-2.8-2.8v-54.1c0-1.5,1.2-2.8,2.8-2.8s2.8,1.2,2.8,2.8V189
					C276,190.6,274.8,191.8,273.3,191.8z"/>
			</g>
		</g>
		<g>
			<g>
				<path class="st0" d="M261,269.9c0,0,0.6-0.4,1.4-1.1l-13.6-7.4c-29.7-16.1-61-24.2-93-24.2h-42.2v5.5h42.2
					c31,0,61.4,7.9,90.2,23.5l15.2,8.2c-0.3-0.2-0.5-0.4-0.7-0.6C259.4,272.5,259.7,270.7,261,269.9z M261,269.9
					c0,0,0.6-0.4,1.4-1.1l-13.6-7.4c-29.7-16.1-61-24.2-93-24.2h-42.2v5.5h42.2c31,0,61.4,7.9,90.2,23.5l15.2,8.2
					c-0.3-0.2-0.5-0.4-0.7-0.6C259.4,272.5,259.7,270.7,261,269.9z M261,269.9c0,0,0.6-0.4,1.4-1.1l-13.6-7.4
					c-29.7-16.1-61-24.2-93-24.2h-42.2v5.5h42.2c31,0,61.4,7.9,90.2,23.5l15.2,8.2c-0.3-0.2-0.5-0.4-0.7-0.6
					C259.4,272.5,259.7,270.7,261,269.9z M297.2,287.6L296,287l-28.4-15.4l-5.2-2.8l-13.6-7.4c-29.7-16.1-61-24.2-93-24.2H32
					c-1.6,0-2.9,1.2-2.9,2.8v50c0,1.5,1.3,2.8,2.9,2.8h263.8c1.3,0,2.5-0.8,2.8-2C298.8,289.5,298.3,288.2,297.2,287.6z M34.9,287.2
					v-44.7h120.8c31,0,61.4,7.9,90.2,23.5l15.2,8.2h0.1c0.1,0,0.2,0.1,0.3,0.1l0,0l23.4,12.7L34.9,287.2L34.9,287.2z M261,269.9
					c0,0,0.6-0.4,1.4-1.1l-13.6-7.4c-29.7-16.1-61-24.2-93-24.2h-42.2v5.5h42.2c31,0,61.4,7.9,90.2,23.5l15.2,8.2
					c-0.3-0.2-0.5-0.4-0.7-0.6C259.4,272.5,259.7,270.7,261,269.9z M261,269.9c0,0,0.6-0.4,1.4-1.1l-13.6-7.4
					c-29.7-16.1-61-24.2-93-24.2h-42.2v5.5h42.2c31,0,61.4,7.9,90.2,23.5l15.3,8c-0.3-0.2-0.6-0.2-0.8-0.4
					C259.4,272.5,259.7,270.7,261,269.9z"/>
				<line class="st1" x1="67.6" y1="242.6" x2="107.8" y2="242.6"/>
				<path class="st2" d="M113.5,242.6h42.2c31,0,61.4,7.9,90.2,23.5l15.4,8l0.3,0.1c0.1,0,0.1,0.2,0.2,0.2l0.1,0.1l23.4,12.7H34.9
					v-44.7h27"/>
			</g>
		</g>
		<g>
			<g>
				<path class="st3" d="M298.6,193.6v94.8L262,267.6c3.9-3.7,10-11,9.8-20.2c-0.2-8.8-10.9-13.8-22.3-21.2c-4.1-2.7-6.5-6-7.1-10.1
					c-1.4-9.1,6-19.4,8.4-22.6L298.6,193.6L298.6,193.6z"/>
				<path class="st3" d="M273.1,251.4c0.2,8.1-6.4,14.7-9.3,17.2l-13.7-7.4c-29.9-16.1-61.4-24.3-93.6-24.3l-69.9-0.1l3.2-43.4h38.5
					c7.3,0,5.1,26.9,5.1,17.1c0-1.4-0.1-2.8-0.4-4.1c-0.1-0.3-0.1-0.6-0.2-0.9c0-0.2-0.1-0.4-0.1-0.6c-0.1-0.4-0.2-0.9-0.4-1.3
					c-0.1-0.5-0.3-0.9-0.5-1.3c-0.1-0.4-0.3-0.7-0.4-1c-0.1-0.3-0.3-0.7-0.5-1c-0.1-0.2-0.3-0.4-0.4-0.7c-0.2-0.3-0.4-0.6-0.6-0.9
					c-0.2-0.2-0.3-0.5-0.5-0.7c-0.1-0.1-0.1-0.1-0.1-0.2c-0.2-0.3-0.4-0.5-0.6-0.8c0-0.1-0.1-0.1-0.1-0.1c-0.2-0.2-0.4-0.5-0.6-0.7
					c-0.1-0.1-0.2-0.1-0.2-0.2c-0.2-0.2-0.4-0.4-0.6-0.5c-0.1-0.1-0.2-0.1-0.3-0.2c-0.2-0.2-0.4-0.3-0.6-0.4
					c-0.1-0.1-0.2-0.1-0.3-0.2c-0.2-0.1-0.5-0.3-0.7-0.4c-0.1-0.1-0.2-0.1-0.3-0.1c-0.1,0-0.2-0.1-0.2-0.1h130.9
					c-3.6,5.3-8.5,14.4-7.2,23.3c0.9,5.7,4.1,10.4,9.6,13.9C271.7,235.5,273,244.5,273.1,251.4z"/>
				<path class="st3" d="M115.5,228.1v8.9l-69.1,1.5l-8-45h14c7.7,0,13.3,1.6,35.8-1.6c1.2-0.2,0.3,3.5,0.1,2.3h9.1
					c-1.1,0.5-2.1,1.3-3.1,2.1c-0.2,0.2-0.4,0.4-0.6,0.6c-0.1,0-0.1,0.1-0.1,0.1c-0.2,0.2-0.4,0.5-0.6,0.7c-0.2,0.3-0.5,0.6-0.7,0.9
					c-0.2,0.2-0.3,0.4-0.4,0.6c-0.2,0.4-0.4,0.7-0.7,1.1c-0.4,0.7-0.7,1.5-1,2.3c0,0.1-0.1,0.1-0.1,0.2c-0.2,0.5-0.3,0.9-0.5,1.4
					c-0.1,0.4-0.2,0.7-0.3,1.1c-0.1,0.3-0.2,0.6-0.2,0.9c-0.1,0.4-0.1,0.8-0.2,1.2s-0.1,0.9-0.1,1.4v0.1c0,0.5-0.1,1.1-0.1,1.6
					c0,9.8,5.7,17.4,13,17.4L115.5,228.1L115.5,228.1z"/>
				<path class="st0" d="M32,188.7c-1.6,0-2.9,1.2-2.9,2.8v48.3c0,1.5,1.3,2.8,2.9,2.8h124.5c31.2,0,61.8,7.9,90.8,23.5l15.3,8.2
					h0.1c0.1,0,0.2,0.1,0.3,0.1l0,0l23.6,12.7l0,0l9.5,5.2c0.4,0.2,0.9,0.3,1.4,0.3h3.1c1.6,0,2.9-1.2,2.9-2.8v-98.5
					c0-1.5-1.3-2.8-2.9-2.8H120.2c-1,0-1.9,0.5-2.4,1.3s-0.6,1.8-0.2,2.6 M48,192.3c0.3-0.8,0.1-1.7-0.5-2.4 M82.4,189.9
					c-0.5,0.7-0.7,1.6-0.5,2.4 M106.4,192.7c0.4-0.9,0.4-1.9-0.2-2.6c-0.5-0.8-1.4-1.3-2.4-1.3 M88.3,194.2h9.1 M297.7,194.2v92.7
					l-28.6-15.4l-5.3-2.9l-13.7-7.4c-29.9-16.1-61.4-24.3-93.6-24.3H34.9v-42.8h6.8 M103.8,194.2h-6.4l0,0"/>
				<path class="st3" d="M62.1,216.3V237H34.9v-42.8h6.8c-0.2,1.2-0.3,2.4-0.3,3.7c0,10.3,6,18.4,13.7,18.4L62.1,216.3L62.1,216.3z"
					/>
			</g>
		</g>
		<g>
			<g>
				<path class="st3" d="M178.3,42.4c-1.6-5.6-6.8-9.6-12.8-9.6c-1,0-2,0.1-3,0.3c-2.4-2.2-5.6-3.4-8.9-3.4
					c-7.1,0-12.9,5.6-13.3,12.6c-5.8,0.8-10.3,5.8-10.3,11.8c0,6.6,5.4,12,12,12h34.8c6.6,0,12-5.3,12-12
					C188.7,48.2,184.2,43.2,178.3,42.4z"/>
			</g>
		</g>
		<g>
			<g>
				<path class="st3" d="M192.8,95.2c-1.5-4.8-5.9-8.3-11.2-8.3c-0.9,0-1.7,0.1-2.5,0.3c-2.1-1.9-4.9-2.9-7.8-2.9
					c-6.2,0-11.3,4.8-11.7,10.9c-5,0.8-8.9,5.2-8.9,10.4c0,5.8,4.7,10.6,10.6,10.6h30.1c5.8,0,10.6-4.7,10.6-10.6
					C201.8,100.3,197.9,96,192.8,95.2z"/>
			</g>
		</g>
		<g>
			
				<ellipse transform="matrix(0.2298 -0.9732 0.9732 0.2298 124.7609 283.0421)" class="st4" cx="241.2" cy="62.7" rx="16.4" ry="16.4"/>
			<g>
				<g>
					<path class="st4" d="M240.9,39.8c-1.8,0-3.3-1.5-3.3-3.3V23.4c0-1.8,1.5-3.3,3.3-3.3s3.3,1.5,3.3,3.3v13.1
						C244.2,38.3,242.8,39.8,240.9,39.8z"/>
				</g>
			</g>
			<g>
				<g>
					<path class="st4" d="M240.9,105.5c-1.8,0-3.3-1.5-3.3-3.3V89.1c0-1.8,1.5-3.3,3.3-3.3s3.3,1.5,3.3,3.3v13.1
						C244.2,104.1,242.8,105.5,240.9,105.5z"/>
				</g>
			</g>
			<g>
				<g>
					<path class="st4" d="M222.3,47.5c-0.8,0-1.7-0.3-2.3-1l-9.3-9.3c-1.3-1.3-1.3-3.4,0-4.7c1.3-1.3,3.4-1.3,4.7,0l9.3,9.3
						c1.3,1.3,1.3,3.4,0,4.7C224,47.2,223.2,47.5,222.3,47.5z"/>
				</g>
			</g>
			<g>
				<g>
					<path class="st4" d="M268.8,94c-0.8,0-1.7-0.3-2.3-1l-9.3-9.3c-1.3-1.3-1.3-3.4,0-4.7c1.3-1.3,3.4-1.3,4.7,0l9.3,9.3
						c1.3,1.3,1.3,3.4,0,4.7C270.5,93.7,269.7,94,268.8,94z"/>
				</g>
			</g>
			<g>
				<g>
					<path class="st4" d="M214.6,66.1h-13.1c-1.8,0-3.3-1.5-3.3-3.3s1.5-3.3,3.3-3.3h13.1c1.8,0,3.3,1.5,3.3,3.3
						C217.9,64.6,216.4,66.1,214.6,66.1z"/>
				</g>
			</g>
			<g>
				<g>
					<path class="st4" d="M280.4,66.1h-13.1c-1.8,0-3.3-1.5-3.3-3.3s1.5-3.3,3.3-3.3h13.1c1.8,0,3.3,1.5,3.3,3.3
						C283.7,64.6,282.2,66.1,280.4,66.1z"/>
				</g>
			</g>
			<g>
				<g>
					<path class="st4" d="M213.1,94c-0.8,0-1.7-0.3-2.3-1c-1.3-1.3-1.3-3.4,0-4.7l9.3-9.3c1.3-1.3,3.4-1.3,4.7,0s1.3,3.4,0,4.7
						l-9.3,9.3C214.7,93.7,213.9,94,213.1,94z"/>
				</g>
			</g>
			<g>
				<g>
					<path class="st4" d="M259.5,47.5c-0.8,0-1.7-0.3-2.3-1c-1.3-1.3-1.3-3.4,0-4.7l9.3-9.3c1.3-1.3,3.4-1.3,4.7,0
						c1.3,1.3,1.3,3.4,0,4.7l-9.3,9.3C261.2,47.2,260.4,47.5,259.5,47.5z"/>
				</g>
			</g>
		</g>
		<g>
			<g>
				<path class="st0" d="M87.7,65.7v86.5c0,1.5-1.2,2.8-2.8,2.8s-2.8-1.2-2.8-2.8V65.7c0-1.5,1.2-2.8,2.8-2.8S87.7,64.2,87.7,65.7z"
					/>
			</g>
		</g>
		<g>
			<g>
				<path class="st0" d="M87.7,119.4c-0.1,0.1-0.2,0.2-0.2,0.3c-0.5,0.5-1.1,0.8-1.7,0.8c-0.1,0-0.2,0-0.2,0c-0.7,0-1.4-0.3-1.9-0.8
					l-11.4-11.4c-1.1-1.1-1.1-2.8,0-3.9s2.8-1.1,3.9,0l11.4,11.4c0.1,0.1,0.2,0.2,0.2,0.3C88.4,117,88.5,118.4,87.7,119.4z"/>
			</g>
		</g>
		<g>
			<g>
				<path class="st0" d="M105.7,101.8l-2.3,2.3l0,0l-4,4l-11.5,11.5c-0.1,0.1-0.1,0.1-0.2,0.2c-0.5,0.4-1.1,0.6-1.7,0.6
					c-0.1,0-0.1,0-0.2,0l0,0c-0.6,0-1.3-0.3-1.7-0.8c-1.1-1.1-1.1-2.8,0-3.9l3.7-3.7l7.7-7.7l6.4-6.4c1.1-1.1,2.8-1.1,3.9,0
					C106.8,99,106.8,100.8,105.7,101.8z"/>
			</g>
		</g>
		<g>
			<g>
				<path class="st2" d="M79.9,69c-15.6-2.4-27.6-16-27.6-32.3C52.3,18.7,66.9,4,85,4c18,0,32.7,14.7,32.7,32.7
					c0,16.3-12,29.9-27.6,32.3"/>
			</g>
		</g>
		<g>
			<g>
				<path class="st2" d="M110.7,72.6c-10.8,0-19.6,8.8-19.6,19.6c0,4.6,1.6,8.9,4.3,12.2c1.2,1.4,2.5,2.7,4,3.8
					c3.2,2.3,7.1,3.6,11.3,3.6c10.8,0,19.6-8.8,19.6-19.6S121.5,72.6,110.7,72.6z"/>
			</g>
		</g>
		<g>
			<g>
				<path class="st2" d="M59.4,74c-10.8,0-19.6,8.8-19.6,19.6s8.8,19.6,19.6,19.6c4.1,0,7.9-1.3,11.1-3.4c1.5-1,2.9-2.3,4.1-3.7
					c2.8-3.4,4.4-7.7,4.4-12.4C79,82.8,70.2,74,59.4,74z"/>
			</g>
		</g>
		<g>
			<g>
				<path class="st0" d="M98.6,188.8H84 M113.3,192.7c-0.4-0.9-0.3-1.9,0.2-2.7s1.4-1.3,2.3-1.3h1.6 M79.4,192.3
					c0.3,1.1,1.4,2,2.6,2h12.1l0,0h6.1c1.1,0,2-0.6,2.5-1.6 M42.5,188.8h2c0.9,0,1.7,0.4,2.2,1.1c0.5,0.7,0.7,1.6,0.4,2.4
					 M98.6,188.8H84 M113.3,192.7c-0.4-0.9-0.3-1.9,0.2-2.7s1.4-1.3,2.3-1.3h1.6 M79.4,192.3c0.3,1.1,1.4,2,2.6,2h12.1l0,0h6.1
					c1.1,0,2-0.6,2.5-1.6 M42.5,188.8h2c0.9,0,1.7,0.4,2.2,1.1c0.5,0.7,0.7,1.6,0.4,2.4 M113.3,192.7c0.5,0.9,1.4,1.6,2.5,1.6h4.4
					l0,0h1.4c0.6,0,1.1-0.2,1.6-0.5l7.1-5l0,0l23.5-16.4c3.2-2.3,6.5-4.4,9.9-6.3c2-1.1,4.2-2.3,6.3-3.3c0.8-0.4,1.4-1.1,1.5-2
					s-0.1-1.8-0.7-2.4l-1.1-1.2c-0.1-0.1-0.2-0.2-0.2-0.3c-18.9-20-39-30.1-59.6-30.1h-78c-1.5,0-2.8,1.2-2.8,2.8v61.8
					c0,1.5,1.2,2.8,2.8,2.8h12.6c1.2,0,2.3-0.8,2.6-2 M79.4,192.3c0.3,1.1,1.4,2,2.6,2h12.1l0,0h6.1c1.1,0,2-0.6,2.5-1.6
					 M98.6,188.8H84 M42.5,188.8h-7.9v-56.3h75.3c18.6,0,38.5,10.7,56,28.7c-1.1,0.6-2.2,1.2-3.3,1.8c-3.5,2-7,4.2-10.4,6.5
					l-29.9,20.9l-4.9-1.6 M98.6,188.8H84 M113.3,192.7c-0.4-0.9-0.3-1.9,0.2-2.7s1.4-1.3,2.3-1.3h1.6 M70.5,193.6
					c1,1.2,8.3-3.2,8.9-1.2c0.3,1.1,1.4,2,2.6,2h12.1l0,0h6.1c1.1,0,2-0.6,2.5-1.6 M42.5,188.8h2c0.9,0,1.7,0.4,2.2,1.1
					c0.5,0.7,0.7,1.6,0.4,2.4"/>
			</g>
		</g>
		<g>
			<g>
				<path class="st0" d="M93.4,187.9c-0.2-1.2-0.6-2.4-1-3.5c-0.3-0.7-0.6-1.3-0.9-2c-0.1-0.3-0.3-0.6-0.5-0.8
					c-0.1-0.3-0.3-0.5-0.4-0.8c-1-1.5-2.2-2.9-3.5-4c-0.3-0.3-0.7-0.5-1-0.8c-0.2-0.2-0.4-0.3-0.7-0.5c-0.3-0.2-0.5-0.3-0.8-0.5
					c-0.9-0.5-1.9-0.9-2.9-1.3c-2.3-7.2-8.4-12-15.5-12c-6.9,0-12.8,4.5-15.3,11.4c-1.1,0.2-2.2,0.5-3.2,0.9
					c-0.4,0.1-0.7,0.3-1.1,0.5c-3.2,1.5-5.9,4.1-7.7,7.5c0,0.1-0.1,0.1-0.1,0.2c-0.3,0.6-0.6,1.3-0.9,2c-0.4,1.1-0.7,2.3-1,3.5
					c-0.2,1.2-0.3,2.4-0.3,3.7c0,10.3,7.3,18.4,16.5,18.4H77c9.3,0,16.5-8.1,16.5-18.4C93.7,190.3,93.6,189.1,93.4,187.9z
					 M77.2,204.4H53.3c-5.2,0-9.6-5.9-9.6-12.9c0-1.9,0.3-3.9,1-5.6c1.6-4.3,5.1-7.3,8.5-7.3h0.3c1.8,0.1,3.3-0.9,3.7-2.2
					c1.3-5.2,5.1-9,9.1-9s7.9,3.9,9.1,9.1c0.3,1.1,1.3,2,2.7,2.2c1.6,0.3,3.1,1.1,4.4,2.3s2.4,2.9,3.1,4.9c0.7,1.8,1,3.7,1,5.6
					C86.8,198.5,82.4,204.4,77.2,204.4z"/>
			</g>
			<path class="st5" d="M77.9,205.5H53.1c-5.4,0-9.9-6.1-9.9-13.4c0-2,0.4-4,1.1-5.8c1.7-4.5,5.3-7.6,8.8-7.6c0,0,0.3,0,0.4,0
				c1.8,0.1,3.5-0.9,3.8-2.3c1.3-5.4,5.3-9.4,9.4-9.4c4.2,0,8.2,4,9.5,9.5c0.3,1.1,1.4,2,2.8,2.3c1.6,0.3,3.2,1.1,4.6,2.4
				c1.4,1.3,2.5,3,3.3,5.1c0.7,1.8,1.1,3.8,1.1,5.8C87.8,199.4,83.3,205.5,77.9,205.5z"/>
		</g>
		<g>
			<g>
				<path class="st0" d="M217.2,194.3c-1.5,0-2.8-1.2-2.8-2.8v-46c0-1.5,1.2-2.8,2.8-2.8s2.8,1.2,2.8,2.8v46
					C219.9,193.1,218.7,194.3,217.2,194.3z"/>
			</g>
		</g>
		<g>
			<g>
				<path class="st0" d="M115.7,155H64.5c-1.5,0-2.8-1.2-2.8-2.8s1.2-2.8,2.8-2.8h51.1c1.5,0,2.8,1.2,2.8,2.8S117.2,155,115.7,155z"
					/>
			</g>
		</g>
		<g>
			<g>
				<path class="st0" d="M240.1,176.7h-13c-1.5,0-2.8-1.2-2.8-2.8s1.2-2.8,2.8-2.8h13c1.5,0,2.8,1.2,2.8,2.8
					S241.6,176.7,240.1,176.7z"/>
			</g>
		</g>
		<g>
			<g>
				<path class="st0" d="M78.9,251.9c0,1.5-1.2,2.8-2.8,2.8h-22c-1.5,0-2.8-1.2-2.8-2.8c0-1.5,1.2-2.8,2.8-2.8h22
					C77.7,249.2,78.9,250.4,78.9,251.9z"/>
			</g>
		</g>
		<g>
			<g>
				<path class="st0" d="M214.9,191.6v-2.8h-79.7l-7.5,5c-0.5,0.3-1.1,0.5-1.7,0.5h91.7C216.2,194.3,214.9,193.1,214.9,191.6z
					 M300.5,147.9H293c-1.1,0-2.1,0.6-2.6,1.6c-1.7,3.4-4.2,5.4-6.7,5.4h-21.1c-2.5,0-5.1-2-6.7-5.4c-0.5-0.9-1.5-1.6-2.6-1.6h-16.8
					c-1.6,0-2.9,1.2-2.9,2.8c0,6.7-3.6,11.4-6.9,11.4h-17.9c-3.3,0-6.3-4.3-6.8-9.7c-0.1-0.8-0.5-1.5-1.1-2
					c-0.7-0.5-1.5-0.6-2.3-0.5c-0.8,0.2-1.6,0.3-2.4,0.5c-6.8,1.5-13.4,3.7-19.9,6.5c-0.6,0.3-1.3,0.6-1.9,0.8
					c-1.2,0.6-2.4,1.1-3.5,1.7c-1.2,0.6-2.3,1.2-3.4,1.8c-3.7,2-7.4,4.2-10.9,6.5l-31.3,20.9l0,0l-0.7,0.5c-0.9,0.6-1.3,1.6-1.2,2.6
					c0,0.2,0.1,0.4,0.1,0.5c0.1,0.3,0.2,0.5,0.3,0.7c0.5,0.8,1.4,1.2,2.4,1.2h174.5c0.9,0,1.7-0.4,2.2-1c0.4-0.5,0.6-1.1,0.6-1.7
					v-40.9C303.4,149.1,302.1,147.9,300.5,147.9z M135.2,188.8l24.6-16.4c3.4-2.3,6.9-4.4,10.4-6.3c2.1-1.1,4.4-2.3,6.6-3.3
					c6.5-3,13.2-5.3,20-6.9c0.1,0.5,0.3,0.9,0.4,1.4c0.1,0.5,0.3,0.9,0.5,1.4c0.2,0.4,0.4,0.9,0.6,1.3c0.2,0.4,0.4,0.8,0.6,1.2
					c0.2,0.4,0.5,0.8,0.7,1.1s0.4,0.6,0.6,0.8c0.2,0.2,0.4,0.4,0.6,0.6l0.1,0.1c0.2,0.2,0.4,0.4,0.6,0.6c0.9,0.9,1.9,1.5,3,2
					c0.1,0.1,0.3,0.2,0.5,0.2h0.1c0.1,0.1,0.3,0.1,0.4,0.2c0,0,0,0,0.1,0c0.1,0.1,0.3,0.1,0.5,0.1c0,0,0,0,0.1,0
					c0.1,0.1,0.3,0.1,0.5,0.1c0.3,0.1,0.7,0.1,1,0.2c0.4,0.1,0.8,0.1,1.2,0.1h17.9c0.2,0,0.4,0,0.5,0c0.2,0,0.4,0,0.5-0.1
					c2-0.2,3.9-1,5.5-2.3c0.3-0.2,0.6-0.5,0.8-0.7c1.8-1.7,3.2-4.1,4.1-6.8c0.1-0.2,0.1-0.4,0.2-0.6c0.1-0.2,0.1-0.4,0.2-0.6
					c0.1-0.2,0.1-0.5,0.2-0.7c0.1-0.3,0.1-0.5,0.1-0.8c0.1-0.5,0.2-0.9,0.2-1.4v-0.1h12.4c0.1,0.2,0.3,0.5,0.5,0.7
					c0.1,0.2,0.3,0.5,0.5,0.7c0.6,0.8,1.2,1.5,1.9,2.1c0.2,0.2,0.4,0.4,0.6,0.5c0.3,0.2,0.5,0.4,0.8,0.6c0.2,0.2,0.5,0.3,0.7,0.5
					c0.3,0.2,0.5,0.3,0.8,0.4s0.5,0.3,0.8,0.4c0.2,0.1,0.4,0.2,0.7,0.3c0.3,0.1,0.5,0.2,0.8,0.3c0.6,0.2,1.3,0.4,2,0.4
					c0.1,0,0.3,0,0.5,0s0.5,0,0.7,0h21.1c1.1,0,2.1-0.2,3.2-0.5c0.3-0.1,0.5-0.2,0.8-0.3s0.5-0.2,0.8-0.3c0.2-0.1,0.4-0.2,0.6-0.3
					c2.2-1.2,4.2-3.1,5.8-5.6h2.9v35.4L135.2,188.8L135.2,188.8z M214.9,191.6v-2.8h-79.7l-7.5,5c-0.5,0.3-1.1,0.5-1.7,0.5h91.7
					C216.2,194.3,214.9,193.1,214.9,191.6z"/>
			</g>
		</g>
		<g>
			<g>
				<path class="st0" d="M226.7,167.6h-17.9c-6.4,0-11.7-6.2-12.5-14.6c-0.1-0.8-0.1-1.5-0.1-2.3c0-8.6,4.6-15.6,10.8-16.8
					c1.9-6.3,6.4-10.4,11.7-10.4c5.4,0,10,4.3,11.8,10.9c5.3,2.1,8.9,8.6,8.9,16.2C239.4,160.1,233.8,167.6,226.7,167.6z
					 M208.7,139.2c-3.2,0-6.8,4.7-6.8,11.4c0,0.6,0,1.2,0.1,1.8c0.5,5.4,3.5,9.7,6.8,9.7h17.9c3.3,0,6.9-4.7,6.9-11.4
					c0-6.3-3.2-10.8-6.2-11.4c-1.2-0.2-2.1-1.1-2.3-2.2c-0.9-4.7-3.7-8.1-6.6-8.1c-2.9,0-5.6,3.4-6.6,8c-0.3,1.4-1.6,2.3-3,2.2
					C209,139.2,208.8,139.2,208.7,139.2L208.7,139.2z"/>
			</g>
		</g>
		<g>
			<g>
				<path class="st0" d="M283.7,160.4h-21.1c-4.8,0-9.3-3.2-11.9-8.5c-1.6-3.2-2.4-7-2.4-10.9c0-10.1,5.4-18.1,12.5-19.3
					c2.1-7.3,7.3-12.1,13.3-12.1c6.2,0,11.5,5,13.5,12.7c6.1,2.3,10.5,9.8,10.5,18.7c0,3.9-0.9,7.7-2.5,10.9
					C293,157.2,288.6,160.4,283.7,160.4z M262.6,127c-4.7,0-8.6,6.4-8.6,14c0,3.1,0.7,6.1,1.9,8.6c1.7,3.4,4.2,5.4,6.7,5.4h21.1
					c2.5,0,5-2,6.7-5.4c1.2-2.5,1.9-5.5,1.9-8.6c0-7.8-3.9-13.1-7.7-13.8c-1.2-0.2-2.1-1.1-2.3-2.2c-1.1-5.7-4.6-9.9-8.2-9.9
					s-7.1,4.1-8.2,9.8c-0.3,1.4-1.6,2.3-3,2.2C262.9,127,262.7,127,262.6,127L262.6,127z"/>
			</g>
		</g>
		<g>
			<g>
				<path class="st0" d="M67.6,190v58.6c0,0.2,0,0.4-0.1,0.5c-0.2,1.3-1.3,2.3-2.7,2.3c-1.3,0-2.5-1-2.7-2.3c0-0.2-0.1-0.4-0.1-0.5
					V190c0-1.6,1.2-2.9,2.7-2.9C66.4,187.1,67.6,188.4,67.6,190z"/>
			</g>
		</g>
		<g>
			<g>
				<path class="st0" d="M136.7,251.9c0,1.5-1.2,2.8-2.8,2.8h-22c-1.5,0-2.8-1.2-2.8-2.8c0-1.5,1.2-2.8,2.8-2.8h22
					C135.5,249.2,136.7,250.4,136.7,251.9z"/>
			</g>
		</g>
		<g>
			<path class="st0" d="M145.6,193.7c-0.1-0.3-0.1-0.6-0.2-0.9c0-0.2-0.1-0.4-0.1-0.6c-0.1-0.4-0.3-0.8-0.4-1.2
				c-0.1-0.4-0.3-0.8-0.5-1.3c-0.1-0.3-0.3-0.6-0.5-0.9c-0.2-0.3-0.3-0.6-0.5-0.9c-0.1-0.2-0.3-0.4-0.4-0.6
				c-0.2-0.3-0.4-0.6-0.6-0.8c-0.2-0.2-0.4-0.4-0.6-0.6c-0.1-0.1-0.1-0.1-0.2-0.2c-0.2-0.2-0.4-0.5-0.7-0.7c0-0.1-0.1-0.1-0.1-0.1
				c-0.2-0.2-0.5-0.4-0.7-0.6c-0.1-0.1-0.2-0.1-0.3-0.2c-0.2-0.2-0.4-0.3-0.7-0.5c-0.1-0.1-0.2-0.1-0.3-0.2
				c-0.2-0.1-0.4-0.3-0.7-0.4c-0.1-0.1-0.2-0.1-0.3-0.2c-0.3-0.1-0.5-0.3-0.8-0.4c-0.1-0.1-0.2-0.1-0.3-0.1c0,0-0.1,0-0.1-0.1
				c0,0-0.1,0-0.1-0.1c-0.2-0.1-0.5-0.2-0.7-0.3c-0.1-0.3-0.2-0.6-0.3-0.9c-0.1-0.4-0.3-0.8-0.5-1.1c-0.2-0.5-0.4-0.9-0.7-1.4
				s-0.6-1-0.9-1.5l0,0c-0.2-0.2-0.3-0.4-0.5-0.6c-0.4-0.4-0.7-0.8-1.1-1.2c-0.2-0.2-0.4-0.4-0.6-0.5c-0.2-0.2-0.4-0.3-0.6-0.5
				c-0.2-0.2-0.4-0.3-0.6-0.5c-0.7-0.5-1.5-0.9-2.3-1.3c-0.2-0.1-0.4-0.2-0.7-0.3c-0.3-0.1-0.5-0.2-0.7-0.2c-0.3-0.1-0.7-0.2-1-0.3
				c-0.2,0-0.4-0.1-0.6-0.1s-0.3-0.1-0.5-0.1s-0.4-0.1-0.7-0.1c-0.3,0-0.6,0-0.9,0s-0.6,0-0.9,0c-0.2,0-0.5,0-0.7,0.1l-0.4,0.1
				c-0.2,0-0.4,0.1-0.6,0.1c-0.3,0.1-0.6,0.1-0.9,0.2c-0.3,0.1-0.5,0.1-0.7,0.2c-0.3,0.1-0.6,0.2-0.8,0.3c-1.4,0.6-2.7,1.4-3.8,2.5
				c-0.2,0.2-0.4,0.4-0.6,0.6c-0.2,0.2-0.4,0.4-0.6,0.7c-0.2,0.2-0.4,0.5-0.6,0.7c0,0.1-0.1,0.1-0.1,0.1c-0.3,0.5-0.7,0.9-1,1.5
				c-0.6,0.9-1,1.9-1.3,2.9c-1,0.1-1.9,0.4-2.8,0.8l0,0c-1.2,0.5-2.3,1.2-3.3,2c-0.3,0.2-0.5,0.4-0.7,0.6c-0.1,0-0.1,0.1-0.2,0.1
				c-0.2,0.2-0.5,0.4-0.7,0.7c-0.3,0.3-0.5,0.5-0.7,0.8c-0.2,0.2-0.3,0.4-0.5,0.6c-0.3,0.3-0.5,0.7-0.7,1c-0.4,0.7-0.8,1.4-1.1,2.1
				c0,0.1-0.1,0.1-0.1,0.2c-0.2,0.4-0.4,0.9-0.5,1.3c-0.1,0.3-0.2,0.6-0.3,1c-0.1,0.3-0.2,0.6-0.2,0.9c-0.1,0.4-0.2,0.8-0.2,1.1
				c-0.1,0.4-0.1,0.9-0.2,1.3v0.1c0,0.5-0.1,1-0.1,1.5c0,9.2,6.2,16.4,14.2,16.4h20.3c8,0,14.2-7.2,14.2-16.4
				C146,196.2,145.9,194.9,145.6,193.7z M131.8,208.7h-20.3c-4.2,0-7.9-5.2-7.9-11.2s3.7-11.2,7.9-11.2l0,0h0.3
				c0.8,0.1,1.6-0.2,2.2-0.6c0.4-0.3,0.7-0.6,0.9-1.1c0.1-0.1,0.1-0.3,0.2-0.4c0.3-1.3,0.8-2.5,1.4-3.6c1.5-2.6,3.8-4.2,6.1-4.2
				s4.6,1.6,6.1,4.2c0.7,1.1,1.2,2.4,1.4,3.7c0.3,1,1.2,1.8,2.5,2c3.5,0.6,7.1,4.9,7.1,11.1C139.7,203.5,136,208.7,131.8,208.7z"/>
			<path class="st5" d="M132.6,208.6h-21.4c-4.5,0-8.4-5.1-8.4-11c0-5.8,3.9-11,8.3-11l0,0h0.3c0.9,0.1,1.7-0.2,2.3-0.6
				c0.4-0.3,0.8-0.6,1-1c0.1-0.1,0.1-0.3,0.2-0.4c0.3-1.3,0.8-2.4,1.5-3.5c1.6-2.6,4-4.1,6.4-4.1s4.8,1.6,6.4,4.1
				c0.7,1.1,1.2,2.3,1.5,3.6c0.3,1,1.3,1.8,2.6,2c3.7,0.6,7.5,4.8,7.5,10.9C141,203.4,137.1,208.6,132.6,208.6z"/>
		</g>
		<g>
			<g>
				<path class="st0" d="M125.4,196.1v52.8c0,0.1,0,0.3-0.1,0.5c-0.2,1.2-1.3,2.1-2.7,2.1c-1.3,0-2.5-0.9-2.7-2.1
					c0-0.1-0.1-0.3-0.1-0.5v-52.8c0-1.4,1.2-2.6,2.8-2.6C124.2,193.6,125.4,194.7,125.4,196.1z"/>
			</g>
		</g>
	</g>
</g>
</svg>
