<svg width="316" height="410" viewBox="0 0 316 410" fill="none" xmlns="http://www.w3.org/2000/svg">
<path d="M255.645 130.862L255.11 131.446C254.484 131.984 253.703 132.276 252.899 132.276C252.185 132.276 251.47 132.029 250.845 131.558C250.019 130.907 249.171 130.257 248.322 129.628C222.668 110.335 192.326 99.9472 160.153 99.521C159.461 99.4985 158.746 99.4985 158.032 99.4985C156.201 99.4985 154.683 97.9729 154.683 96.1333C154.683 94.2712 156.201 92.7681 158.032 92.7681C158.746 92.7681 159.438 92.7681 160.153 92.7905C193.934 93.2168 225.861 104.165 252.765 124.536C253.502 125.097 254.239 125.658 254.976 126.241C256.382 127.363 256.672 129.404 255.645 130.862Z" fill="#055052"/>
<path d="M272.971 358.038C272.971 358.935 272.592 359.787 271.989 360.416C271.364 361.044 270.515 361.403 269.622 361.403C268.729 361.403 267.858 361.044 267.255 360.416L267.233 360.393C266.92 360.079 266.697 359.743 266.519 359.316C266.362 358.913 266.273 358.486 266.273 358.038C266.273 357.163 266.63 356.288 267.255 355.66C268.014 354.874 269.153 354.515 270.269 354.74C270.493 354.785 270.694 354.852 270.917 354.919L271.475 355.233L271.966 355.637L272.011 355.682C272.591 356.31 272.971 357.14 272.971 358.038Z" fill="#1D6EA1"/>
<path d="M284.604 168.508C283.577 166.96 284.024 164.873 285.587 163.864C287.127 162.854 289.204 163.28 290.208 164.851C291.213 166.399 290.789 168.485 289.226 169.495C288.668 169.876 288.043 170.056 287.395 170.056C286.301 170.056 285.229 169.495 284.604 168.508ZM296.527 190.83C295.79 189.125 296.571 187.129 298.268 186.388C299.965 185.648 301.93 186.433 302.667 188.138C303.404 189.843 302.644 191.84 300.925 192.58C300.501 192.76 300.055 192.849 299.608 192.849C298.313 192.849 297.085 192.087 296.527 190.83ZM304.587 214.813C304.14 213.018 305.234 211.179 307.043 210.752C308.829 210.304 310.637 211.403 311.084 213.22C311.531 215.015 310.437 216.832 308.628 217.281C308.36 217.348 308.092 217.371 307.824 217.371C306.328 217.371 304.944 216.361 304.587 214.813ZM308.516 239.828C308.382 237.966 309.767 236.373 311.62 236.216C313.451 236.081 315.058 237.472 315.192 239.334C315.326 241.197 313.942 242.812 312.111 242.946H311.865C310.124 242.946 308.65 241.6 308.516 239.828ZM311.307 268.814C309.477 268.657 308.115 267.019 308.293 265.157C308.449 263.317 310.079 261.949 311.932 262.128C313.763 262.285 315.125 263.923 314.947 265.785H314.969C314.79 267.535 313.339 268.836 311.642 268.836L311.307 268.814ZM306.261 294.21C304.475 293.739 303.404 291.877 303.872 290.082H303.895C304.364 288.287 306.194 287.233 307.981 287.704C309.767 288.175 310.838 290.015 310.347 291.81C309.968 293.335 308.606 294.322 307.132 294.322C306.842 294.322 306.552 294.277 306.261 294.21ZM297.04 318.372C295.366 317.61 294.607 315.613 295.388 313.93C296.147 312.225 298.134 311.485 299.831 312.27C301.506 313.033 302.243 315.03 301.483 316.712C300.925 317.946 299.697 318.686 298.425 318.686C297.956 318.686 297.487 318.597 297.04 318.372ZM283.934 340.673C282.394 339.618 281.992 337.532 283.041 336.006C284.068 334.458 286.145 334.054 287.685 335.109C289.204 336.141 289.605 338.227 288.578 339.775C287.931 340.74 286.882 341.256 285.81 341.256C285.162 341.256 284.515 341.054 283.934 340.673Z" fill="#055052"/>
<path d="M158.054 409.436C116.191 409.436 76.7612 393.081 47.0216 363.422C45.7266 362.121 45.7043 359.967 47.0216 358.666C48.3166 357.342 50.4376 357.342 51.7549 358.644C80.2219 387.068 117.977 402.706 158.054 402.706C191.589 402.706 223.36 391.847 249.907 371.319C251.381 370.175 253.48 370.467 254.618 371.925C255.735 373.406 255.467 375.515 253.993 376.636C226.263 398.106 193.085 409.436 158.054 409.436Z" fill="#055052"/>
<path d="M25.4765 171.806C23.9136 170.819 23.4224 168.732 24.4048 167.162C25.3872 165.591 27.4636 165.12 29.0265 166.107C30.5894 167.094 31.0806 169.158 30.0982 170.729C29.4507 171.761 28.3567 172.322 27.2403 172.322C26.6375 172.322 26.0347 172.142 25.4765 171.806ZM14.3353 194.622C12.6384 193.927 11.8347 191.952 12.5491 190.225H12.5268C13.2413 188.52 15.2061 187.712 16.9252 188.43C18.6221 189.148 19.4259 191.1 18.7114 192.827C18.1755 194.106 16.9476 194.891 15.6303 194.891C15.2061 194.891 14.7595 194.801 14.3353 194.622ZM7.10135 218.986C5.29286 218.56 4.17651 216.765 4.60073 214.948C5.02494 213.153 6.8111 212.009 8.61959 212.435C10.4281 212.862 11.5444 214.679 11.1202 216.474C10.763 218.044 9.3787 219.076 7.86047 219.076C7.61487 219.076 7.34695 219.054 7.10135 218.986ZM3.93091 244.225C2.07777 244.091 0.693496 242.498 0.805131 240.636C0.939093 238.774 2.52431 237.383 4.37745 237.495C6.20827 237.63 7.61487 239.222 7.50324 241.085C7.3916 242.857 5.89569 244.225 4.15418 244.225H3.93091ZM1.22935 266.615V266.593C1.05073 264.753 2.39035 263.116 4.22117 262.936C6.07431 262.757 7.70418 264.103 7.88279 265.965V265.942C8.06141 267.804 6.72179 269.442 4.86865 269.622L4.55607 269.644C2.83689 269.644 1.38563 268.343 1.22935 266.615ZM5.82871 292.169C5.35984 290.374 6.40921 288.534 8.19537 288.041C9.98153 287.57 11.8347 288.624 12.3035 290.419C12.7724 292.214 11.723 294.053 9.93688 294.547C9.64663 294.614 9.35638 294.659 9.06613 294.659C7.59255 294.659 6.2306 293.672 5.82871 292.169ZM14.5809 316.6C13.7995 314.918 14.5586 312.921 16.2331 312.158C17.93 311.373 19.8947 312.136 20.6762 313.818C21.4353 315.501 20.6985 317.498 19.0016 318.283C18.5551 318.485 18.0862 318.574 17.6174 318.574C16.3447 318.574 15.1391 317.857 14.5809 316.6ZM27.1957 339.282C26.1463 337.734 26.5705 335.647 28.1111 334.615C29.6293 333.561 31.7057 333.987 32.7551 335.513C33.7821 337.061 33.3802 339.147 31.8397 340.202C31.2592 340.583 30.6117 340.762 29.9642 340.762C28.8925 340.762 27.8431 340.246 27.1957 339.282Z" fill="#055052"/>
<path d="M45.4826 181.139C43.7857 181.139 42.3344 179.86 42.1558 178.133L39.231 151.525L12.7511 154.464C10.8757 154.666 9.2458 153.342 9.04486 151.48C8.84392 149.64 10.1835 147.958 12.0144 147.756L41.8209 144.458C43.6964 144.234 45.3039 145.58 45.5272 147.442L48.8093 177.392C49.0102 179.232 47.6929 180.915 45.8398 181.117L45.4826 181.139Z" fill="#055052"/>
<path d="M47.4912 393.372H47.4242C45.571 393.327 44.0974 391.802 44.1421 389.94L44.7226 359.81C44.7226 358.912 45.1022 358.06 45.7496 357.454C46.3971 356.848 47.2232 356.534 48.1386 356.512L78.1238 357.095C79.9546 357.14 81.4282 358.665 81.4059 360.528C81.3612 362.39 79.7537 363.87 77.9899 363.825L51.3537 363.309L50.8402 390.074C50.7956 391.914 49.2996 393.372 47.4912 393.372Z" fill="#055052"/>
<path d="M145.664 104.345C141.154 104.345 137.493 100.665 137.493 96.1335C137.493 91.5792 141.154 87.8999 145.664 87.8999C150.174 87.8999 153.858 91.5792 153.858 96.1335C153.858 100.665 150.174 104.345 145.664 104.345ZM160.154 92.7907C158.659 86.15 152.742 81.1694 145.664 81.1694C137.47 81.1694 130.794 87.8774 130.794 96.1335C130.794 104.367 137.47 111.075 145.664 111.075C152.72 111.075 158.636 106.139 160.154 99.5211C160.422 98.4443 160.556 97.3001 160.556 96.1335C160.556 94.9893 160.422 93.8676 160.154 92.7907Z" fill="#055052"/>
<path d="M153.858 96.133C153.858 100.665 150.174 104.344 145.664 104.344C141.154 104.344 137.493 100.665 137.493 96.133C137.493 91.5787 141.154 87.8994 145.664 87.8994C150.174 87.8994 153.858 91.5787 153.858 96.133Z" fill="#0AC789"/>
<path d="M261.452 144.907C256.919 144.907 253.258 141.205 253.258 136.673C253.258 134.699 253.95 132.859 255.111 131.446L255.647 130.862C257.143 129.359 259.197 128.439 261.452 128.439C265.962 128.439 269.623 132.141 269.623 136.673C269.623 138.737 268.864 140.689 267.502 142.214C265.939 143.919 263.729 144.907 261.452 144.907ZM261.452 121.709C258.214 121.709 255.2 122.763 252.766 124.536C250.913 125.859 249.395 127.609 248.323 129.628C247.207 131.737 246.56 134.138 246.56 136.673C246.56 144.929 253.235 151.637 261.452 151.637C264.443 151.637 267.346 150.717 269.78 149.035C270.74 148.406 271.633 147.621 272.437 146.746C273.151 145.961 273.754 145.131 274.245 144.234C275.607 141.968 276.321 139.365 276.321 136.673C276.321 128.417 269.646 121.709 261.452 121.709Z" fill="#055052"/>
<path d="M269.624 136.673C269.624 138.737 268.864 140.689 267.502 142.214C265.94 143.919 263.729 144.907 261.452 144.907C256.919 144.907 253.258 141.205 253.258 136.673C253.258 134.699 253.95 132.859 255.111 131.446L255.647 130.862C257.143 129.359 259.197 128.439 261.452 128.439C265.962 128.439 269.624 132.141 269.624 136.673Z" fill="#0AC789"/>
<path d="M267.502 371.746C265.939 373.451 263.729 374.438 261.452 374.438C256.919 374.438 253.258 370.736 253.258 366.204C253.258 361.672 256.919 357.993 261.452 357.993C263.707 357.993 265.761 358.913 267.234 360.394L267.257 360.416C268.708 361.919 269.623 363.938 269.623 366.204C269.623 368.268 268.864 370.22 267.502 371.746ZM272.012 355.682L271.968 355.637C269.266 352.945 265.538 351.263 261.452 351.263C253.235 351.263 246.56 357.971 246.56 366.204C246.56 368.537 247.095 370.736 248.078 372.71C249.038 374.774 250.467 376.569 252.253 377.96C254.776 379.957 257.969 381.168 261.452 381.168C265.627 381.168 269.623 379.396 272.437 376.278C274.937 373.518 276.321 369.951 276.321 366.204C276.321 362.099 274.669 358.397 272.012 355.682Z" fill="#055052"/>
<path d="M269.624 366.204C269.624 368.268 268.864 370.22 267.502 371.746C265.94 373.451 263.729 374.438 261.452 374.438C256.919 374.438 253.258 370.736 253.258 366.204C253.258 361.672 256.919 357.993 261.452 357.993C263.707 357.993 265.761 358.913 267.234 360.394L267.257 360.416C268.708 361.919 269.624 363.938 269.624 366.204Z" fill="#0AC789"/>
<path d="M156.94 271.619C156.359 271.619 155.779 271.394 155.332 270.945L140.15 255.667C139.257 254.77 139.257 253.334 140.15 252.437C141.021 251.539 142.449 251.539 143.343 252.437L156.94 266.1L170.537 252.437C171.43 251.539 172.859 251.539 173.752 252.437C174.623 253.334 174.623 254.77 173.752 255.667L158.547 270.945C158.101 271.394 157.498 271.619 156.94 271.619Z" fill="#1D6EA1"/>
<path d="M156.94 296.611C156.359 296.611 155.779 296.386 155.332 295.938L140.15 280.66C139.257 279.762 139.257 278.326 140.15 277.451C141.021 276.554 142.449 276.554 143.343 277.451L156.94 291.114L170.537 277.451C171.43 276.554 172.859 276.554 173.752 277.451C174.623 278.349 174.623 279.785 173.752 280.66L158.547 295.938C158.101 296.386 157.498 296.611 156.94 296.611Z" fill="#1D6EA1"/>
<path d="M156.938 325.036C155.687 325.036 154.683 324.027 154.683 322.77V221.544C154.683 220.288 155.687 219.278 156.938 219.278C158.188 219.278 159.193 220.288 159.193 221.544V322.77C159.193 324.027 158.188 325.036 156.938 325.036Z" fill="#1D6EA1"/>
<path d="M159.193 317.79C158.278 318.62 157.519 319.293 156.938 319.809C156.335 319.293 155.576 318.62 154.683 317.79C147.025 310.745 130.056 292.775 130.056 272.135C130.056 251.517 147.025 233.524 154.683 226.48C155.598 225.65 156.335 224.977 156.938 224.461C157.519 224.977 158.3 225.65 159.193 226.48C166.829 233.502 183.82 251.495 183.82 272.135C183.82 292.775 166.829 310.768 159.193 317.79ZM188.241 269.061C186.477 244.203 164.038 224.438 159.193 220.445C158.724 220.064 158.434 219.817 158.322 219.749L158.211 219.682L157.809 219.48L157.496 219.368H157.474L157.318 219.346L156.938 219.301L156.558 219.346L156.402 219.368H156.38L156.067 219.48L155.665 219.682L155.554 219.749C155.442 219.817 155.152 220.064 154.683 220.445C149.771 224.506 126.774 244.764 125.569 270.093C125.546 270.766 125.524 271.462 125.524 272.157C125.524 272.987 125.546 273.817 125.591 274.648C127.042 299.797 149.793 319.854 154.683 323.87C155.152 324.273 155.442 324.498 155.554 324.587L155.665 324.655L156.067 324.857L156.38 324.969H156.402L156.536 324.991L156.938 325.036L157.318 324.991L157.474 324.969H157.496L157.809 324.857L158.211 324.655L158.322 324.587C158.434 324.52 158.724 324.273 159.193 323.87C164.15 319.786 187.459 299.236 188.33 273.616C188.33 273.122 188.352 272.651 188.352 272.157C188.352 271.103 188.308 270.071 188.241 269.061Z" fill="#1D6EA1"/>
<path d="M202.26 186.501C183.215 156.618 163.902 131.984 163.701 131.737L158.142 124.67L152.582 131.737C152.382 131.984 133.069 156.618 114.024 186.501C87.9681 227.377 74.7505 258.337 74.7505 278.506C74.7505 327.661 112.148 367.64 158.142 367.64C204.136 367.64 241.533 327.661 241.533 278.506C241.533 258.337 228.316 227.377 202.26 186.501Z" fill="#A8D7D9"/>
<path d="M158.167 370.982C110.342 370.982 71.4263 329.5 71.4263 278.484C71.4263 257.664 84.8225 226.098 111.213 184.661C130.504 154.397 149.772 129.853 149.973 129.629L158.167 119.219L166.361 129.629C166.562 129.875 185.852 154.441 205.098 184.661C231.511 226.098 244.907 257.664 244.907 278.484C244.885 329.5 205.991 370.982 158.167 370.982ZM158.167 130.077L155.242 133.801C155.041 134.048 135.773 158.659 116.884 188.296C91.1857 228.633 78.1467 258.965 78.1467 278.484C78.1467 325.776 114.049 364.252 158.189 364.252C202.33 364.252 238.231 325.776 238.231 278.484C238.231 258.965 225.192 228.633 199.494 188.296C180.471 158.435 161.315 134.048 161.136 133.801L158.167 130.077Z" fill="#055052"/>
<path d="M100.719 102.46C94.0433 91.9826 87.2559 83.3227 87.1889 83.233L85.2464 80.7651L83.304 83.2554C83.237 83.3451 76.4496 91.9826 69.7738 102.482C60.6421 116.818 55.998 127.676 55.998 134.766C55.998 152.018 69.1263 166.04 85.2464 166.04C101.367 166.04 114.495 152.018 114.495 134.766C114.495 127.676 109.873 116.818 100.719 102.46Z" fill="#A8D7D9"/>
<path d="M122.779 18.1946C117.174 9.40019 111.503 2.15374 111.436 2.08644L109.807 0L108.177 2.08644C108.11 2.15374 102.439 9.40019 96.8346 18.1946C89.1764 30.2197 85.2915 39.3283 85.2915 45.2511C85.2915 59.6991 96.2987 71.4774 109.829 71.4774C123.359 71.4774 134.366 59.7215 134.366 45.2511C134.344 39.3283 130.459 30.2197 122.779 18.1946Z" fill="#A8D7D9"/>
<path d="M170.958 253.67C165.421 244.988 159.817 237.854 159.772 237.764L158.165 235.7L156.557 237.764C156.49 237.832 150.886 244.988 145.371 253.67C137.802 265.539 133.984 274.512 133.984 280.368C133.984 294.636 144.835 306.235 158.187 306.235C171.538 306.235 182.389 294.636 182.389 280.368C182.367 274.512 178.527 265.516 170.958 253.67Z" fill="#0AC789"/>
<path d="M158.166 309.601C142.984 309.601 130.615 296.476 130.615 280.368C130.615 273.772 134.522 264.439 142.537 251.853C148.164 243.036 153.879 235.745 153.924 235.678L158.144 230.293L162.386 235.7C163.011 236.508 168.459 243.53 173.773 251.876C181.811 264.462 185.695 273.795 185.695 280.39C185.718 296.476 173.349 309.601 158.166 309.601ZM158.166 241.174C156.313 243.62 152.205 249.161 148.186 255.488C139.211 269.577 137.313 276.801 137.313 280.368C137.313 292.774 146.668 302.87 158.166 302.87C169.665 302.87 179.02 292.774 179.02 280.368C179.02 276.801 177.144 269.577 168.146 255.488C164.128 249.161 160.042 243.642 158.166 241.174Z" fill="#055052"/>
<path d="M161.136 237.809H154.438V305.114H161.136V237.809Z" fill="#055052"/>
<path d="M157.741 272.964L143.117 264.058L146.578 258.314L157.831 265.157L169.798 258.27L173.125 264.103L157.741 272.964Z" fill="#055052"/>
<path d="M157.785 295.399L133.739 281.086L137.155 275.298L157.785 287.57L178.393 275.298L181.809 281.086L157.785 295.399Z" fill="#055052"/>
</svg>
