<svg width="788" height="559" viewBox="0 0 788 559" fill="none" xmlns="http://www.w3.org/2000/svg">
<path d="M-3.74314 81.5628C87.6555 12.217 206.583 -1.18386 317.914 0.935661C386.318 2.23472 458.212 11.9606 504.185 68.35C554.76 130.397 523.861 185.676 480.882 240.048C465.329 259.739 443.395 285.635 451.453 312.761C459.649 340.349 493.371 352.724 518.095 360.023C555.376 371.048 594.659 373.612 631.667 385.696C671.943 398.858 711.688 423.985 740.209 455.453C754.136 470.819 765.942 488.476 774.018 507.586C775.882 511.979 790.289 566.009 787.346 566.009C787.329 566.009 -3.76025 566.009 -3.76025 566.009V81.5628H-3.74314Z" fill="#F3ECDE"/>
</svg>
